M48
; DRILL file {KiCad (5.1.4)-1} date 05/04/21 15:54:21
; FORMAT={-:-/ absolute / inch / decimal}
; #@! TF.CreationDate,2021-05-04T15:54:21+02:00
; #@! TF.GenerationSoftware,Kicad,Pcbnew,(5.1.4)-1
; #@! TF.FileFunction,Plated,1,2,PTH
FMAT,2
INCH
T1C0.0157
T2C0.0276
T3C0.0409
T4C0.0579
%
G90
G05
T1
X2.66Y-2.45
X2.695Y-1.585
X2.916Y-1.921
X2.916Y-2.171
X2.9228Y-1.6915
X2.9228Y-1.7485
X2.9871Y-2.2889
X2.99Y-2.41
X3.48Y-2.395
X3.655Y-2.395
X3.665Y-1.9
T3
X4.1688Y-1.825
X4.2687Y-1.825
X4.9188Y-2.575
X5.0187Y-2.575
X4.17Y-2.575
X4.27Y-2.575
X4.9188Y-1.825
X5.0187Y-1.825
T4
X4.8187Y-1.525
X4.8703Y-1.4675
X5.0672Y-1.4478
X5.0687Y-1.425
X4.0687Y-1.525
X4.1203Y-1.4675
X4.3172Y-1.4478
X4.3187Y-1.425
X4.8187Y-2.275
X4.8703Y-2.2175
X5.0672Y-2.1978
X5.0687Y-2.175
X4.07Y-2.275
X4.1216Y-2.2175
X4.3184Y-2.1978
X4.32Y-2.175
T2
G00X2.3339Y-1.2976
M15
G01X2.3339Y-1.3449
M16
G05
G00X2.3339Y-1.4748
M15
G01X2.3339Y-1.522
M16
G05
G00X2.6213Y-1.2976
M15
G01X2.6213Y-1.3449
M16
G05
G00X2.6213Y-1.4748
M15
G01X2.6213Y-1.522
M16
G05
T0
M30
