G04 #@! TF.GenerationSoftware,KiCad,Pcbnew,(5.1.4)-1*
G04 #@! TF.CreationDate,2021-05-04T15:53:45+02:00*
G04 #@! TF.ProjectId,techo,74656368-6f2e-46b6-9963-61645f706362,rev?*
G04 #@! TF.SameCoordinates,Original*
G04 #@! TF.FileFunction,Soldermask,Bot*
G04 #@! TF.FilePolarity,Negative*
%FSLAX46Y46*%
G04 Gerber Fmt 4.6, Leading zero omitted, Abs format (unit mm)*
G04 Created by KiCad (PCBNEW (5.1.4)-1) date 2021-05-04 15:53:45*
%MOMM*%
%LPD*%
G04 APERTURE LIST*
%ADD10C,0.100000*%
G04 APERTURE END LIST*
D10*
G36*
X66535000Y-66586000D02*
G01*
X64633000Y-66586000D01*
X64633000Y-65384000D01*
X66535000Y-65384000D01*
X66535000Y-66586000D01*
X66535000Y-66586000D01*
G37*
G36*
X60335000Y-66586000D02*
G01*
X58433000Y-66586000D01*
X58433000Y-65384000D01*
X60335000Y-65384000D01*
X60335000Y-66586000D01*
X60335000Y-66586000D01*
G37*
G36*
X125062675Y-64406988D02*
G01*
X125228960Y-64440063D01*
X125411586Y-64515709D01*
X125575944Y-64625530D01*
X125715720Y-64765306D01*
X125825541Y-64929664D01*
X125901187Y-65112290D01*
X125939750Y-65306164D01*
X125939750Y-65503836D01*
X125901187Y-65697710D01*
X125825541Y-65880336D01*
X125715720Y-66044694D01*
X125575944Y-66184470D01*
X125411586Y-66294291D01*
X125228960Y-66369937D01*
X125062675Y-66403012D01*
X125035087Y-66408500D01*
X124837413Y-66408500D01*
X124809825Y-66403012D01*
X124643540Y-66369937D01*
X124460914Y-66294291D01*
X124296556Y-66184470D01*
X124156780Y-66044694D01*
X124046959Y-65880336D01*
X123971313Y-65697710D01*
X123932750Y-65503836D01*
X123932750Y-65306164D01*
X123971313Y-65112290D01*
X124046959Y-64929664D01*
X124156780Y-64765306D01*
X124296556Y-64625530D01*
X124460914Y-64515709D01*
X124643540Y-64440063D01*
X124809825Y-64406988D01*
X124837413Y-64401500D01*
X125035087Y-64401500D01*
X125062675Y-64406988D01*
X125062675Y-64406988D01*
G37*
G36*
X109461500Y-66408500D02*
G01*
X107454500Y-66408500D01*
X107454500Y-64401500D01*
X109461500Y-64401500D01*
X109461500Y-66408500D01*
X109461500Y-66408500D01*
G37*
G36*
X106044425Y-64406988D02*
G01*
X106210710Y-64440063D01*
X106393336Y-64515709D01*
X106557694Y-64625530D01*
X106697470Y-64765306D01*
X106807291Y-64929664D01*
X106882937Y-65112290D01*
X106921500Y-65306164D01*
X106921500Y-65503836D01*
X106882937Y-65697710D01*
X106807291Y-65880336D01*
X106697470Y-66044694D01*
X106557694Y-66184470D01*
X106393336Y-66294291D01*
X106210710Y-66369937D01*
X106044425Y-66403012D01*
X106016837Y-66408500D01*
X105819163Y-66408500D01*
X105791575Y-66403012D01*
X105625290Y-66369937D01*
X105442664Y-66294291D01*
X105278306Y-66184470D01*
X105138530Y-66044694D01*
X105028709Y-65880336D01*
X104953063Y-65697710D01*
X104914500Y-65503836D01*
X104914500Y-65306164D01*
X104953063Y-65112290D01*
X105028709Y-64929664D01*
X105138530Y-64765306D01*
X105278306Y-64625530D01*
X105442664Y-64515709D01*
X105625290Y-64440063D01*
X105791575Y-64406988D01*
X105819163Y-64401500D01*
X106016837Y-64401500D01*
X106044425Y-64406988D01*
X106044425Y-64406988D01*
G37*
G36*
X128479750Y-66408500D02*
G01*
X126472750Y-66408500D01*
X126472750Y-64401500D01*
X128479750Y-64401500D01*
X128479750Y-66408500D01*
X128479750Y-66408500D01*
G37*
G36*
X66535000Y-62886000D02*
G01*
X64633000Y-62886000D01*
X64633000Y-61684000D01*
X66535000Y-61684000D01*
X66535000Y-62886000D01*
X66535000Y-62886000D01*
G37*
G36*
X60335000Y-62886000D02*
G01*
X58433000Y-62886000D01*
X58433000Y-61684000D01*
X60335000Y-61684000D01*
X60335000Y-62886000D01*
X60335000Y-62886000D01*
G37*
G36*
X134890000Y-62476000D02*
G01*
X133588000Y-62476000D01*
X133588000Y-61474000D01*
X134890000Y-61474000D01*
X134890000Y-62476000D01*
X134890000Y-62476000D01*
G37*
G36*
X115840000Y-62476000D02*
G01*
X114538000Y-62476000D01*
X114538000Y-61474000D01*
X115840000Y-61474000D01*
X115840000Y-62476000D01*
X115840000Y-62476000D01*
G37*
G36*
X107784474Y-58358684D02*
G01*
X108002474Y-58448983D01*
X108156623Y-58512833D01*
X108491548Y-58736623D01*
X108776377Y-59021452D01*
X109000167Y-59356377D01*
X109032562Y-59434586D01*
X109154316Y-59728526D01*
X109232900Y-60123594D01*
X109232900Y-60526406D01*
X109154316Y-60921474D01*
X109103451Y-61044272D01*
X109000167Y-61293623D01*
X108776377Y-61628548D01*
X108491548Y-61913377D01*
X108156623Y-62137167D01*
X108002474Y-62201017D01*
X107784474Y-62291316D01*
X107389406Y-62369900D01*
X106986594Y-62369900D01*
X106591526Y-62291316D01*
X106373526Y-62201017D01*
X106219377Y-62137167D01*
X105884452Y-61913377D01*
X105599623Y-61628548D01*
X105375833Y-61293623D01*
X105272549Y-61044272D01*
X105221684Y-60921474D01*
X105143100Y-60526406D01*
X105143100Y-60123594D01*
X105221684Y-59728526D01*
X105343438Y-59434586D01*
X105375833Y-59356377D01*
X105599623Y-59021452D01*
X105884452Y-58736623D01*
X106219377Y-58512833D01*
X106373526Y-58448983D01*
X106591526Y-58358684D01*
X106986594Y-58280100D01*
X107389406Y-58280100D01*
X107784474Y-58358684D01*
X107784474Y-58358684D01*
G37*
G36*
X126802724Y-58358684D02*
G01*
X127020724Y-58448983D01*
X127174873Y-58512833D01*
X127509798Y-58736623D01*
X127794627Y-59021452D01*
X128018417Y-59356377D01*
X128050812Y-59434586D01*
X128172566Y-59728526D01*
X128251150Y-60123594D01*
X128251150Y-60526406D01*
X128172566Y-60921474D01*
X128121701Y-61044272D01*
X128018417Y-61293623D01*
X127794627Y-61628548D01*
X127509798Y-61913377D01*
X127174873Y-62137167D01*
X127020724Y-62201017D01*
X126802724Y-62291316D01*
X126407656Y-62369900D01*
X126004844Y-62369900D01*
X125609776Y-62291316D01*
X125391776Y-62201017D01*
X125237627Y-62137167D01*
X124902702Y-61913377D01*
X124617873Y-61628548D01*
X124394083Y-61293623D01*
X124290799Y-61044272D01*
X124239934Y-60921474D01*
X124161350Y-60526406D01*
X124161350Y-60123594D01*
X124239934Y-59728526D01*
X124361688Y-59434586D01*
X124394083Y-59356377D01*
X124617873Y-59021452D01*
X124902702Y-58736623D01*
X125237627Y-58512833D01*
X125391776Y-58448983D01*
X125609776Y-58358684D01*
X126004844Y-58280100D01*
X126407656Y-58280100D01*
X126802724Y-58358684D01*
X126802724Y-58358684D01*
G37*
G36*
X85159468Y-60086565D02*
G01*
X85198138Y-60098296D01*
X85233777Y-60117346D01*
X85265017Y-60142983D01*
X85290654Y-60174223D01*
X85309704Y-60209862D01*
X85321435Y-60248532D01*
X85326000Y-60294888D01*
X85326000Y-61371112D01*
X85321435Y-61417468D01*
X85309704Y-61456138D01*
X85290654Y-61491777D01*
X85265017Y-61523017D01*
X85233777Y-61548654D01*
X85198138Y-61567704D01*
X85159468Y-61579435D01*
X85113112Y-61584000D01*
X84461888Y-61584000D01*
X84415532Y-61579435D01*
X84376862Y-61567704D01*
X84341223Y-61548654D01*
X84309983Y-61523017D01*
X84284346Y-61491777D01*
X84265296Y-61456138D01*
X84253565Y-61417468D01*
X84249000Y-61371112D01*
X84249000Y-60294888D01*
X84253565Y-60248532D01*
X84265296Y-60209862D01*
X84284346Y-60174223D01*
X84309983Y-60142983D01*
X84341223Y-60117346D01*
X84376862Y-60098296D01*
X84415532Y-60086565D01*
X84461888Y-60082000D01*
X85113112Y-60082000D01*
X85159468Y-60086565D01*
X85159468Y-60086565D01*
G37*
G36*
X87034468Y-60086565D02*
G01*
X87073138Y-60098296D01*
X87108777Y-60117346D01*
X87140017Y-60142983D01*
X87165654Y-60174223D01*
X87184704Y-60209862D01*
X87196435Y-60248532D01*
X87201000Y-60294888D01*
X87201000Y-61371112D01*
X87196435Y-61417468D01*
X87184704Y-61456138D01*
X87165654Y-61491777D01*
X87140017Y-61523017D01*
X87108777Y-61548654D01*
X87073138Y-61567704D01*
X87034468Y-61579435D01*
X86988112Y-61584000D01*
X86336888Y-61584000D01*
X86290532Y-61579435D01*
X86251862Y-61567704D01*
X86216223Y-61548654D01*
X86184983Y-61523017D01*
X86159346Y-61491777D01*
X86140296Y-61456138D01*
X86128565Y-61417468D01*
X86124000Y-61371112D01*
X86124000Y-60294888D01*
X86128565Y-60248532D01*
X86140296Y-60209862D01*
X86159346Y-60174223D01*
X86184983Y-60142983D01*
X86216223Y-60117346D01*
X86251862Y-60098296D01*
X86290532Y-60086565D01*
X86336888Y-60082000D01*
X86988112Y-60082000D01*
X87034468Y-60086565D01*
X87034468Y-60086565D01*
G37*
G36*
X131556354Y-59434585D02*
G01*
X131724876Y-59504389D01*
X131876541Y-59605728D01*
X132005522Y-59734709D01*
X132106861Y-59886374D01*
X132176665Y-60054896D01*
X132212250Y-60233797D01*
X132212250Y-60416203D01*
X132176665Y-60595104D01*
X132106861Y-60763626D01*
X132005522Y-60915291D01*
X131876541Y-61044272D01*
X131724876Y-61145611D01*
X131556354Y-61215415D01*
X131377453Y-61251000D01*
X131195047Y-61251000D01*
X131016146Y-61215415D01*
X130847624Y-61145611D01*
X130695959Y-61044272D01*
X130566978Y-60915291D01*
X130465639Y-60763626D01*
X130395835Y-60595104D01*
X130360250Y-60416203D01*
X130360250Y-60233797D01*
X130395835Y-60054896D01*
X130465639Y-59886374D01*
X130566978Y-59734709D01*
X130695959Y-59605728D01*
X130847624Y-59504389D01*
X131016146Y-59434585D01*
X131195047Y-59399000D01*
X131377453Y-59399000D01*
X131556354Y-59434585D01*
X131556354Y-59434585D01*
G37*
G36*
X102378104Y-59434585D02*
G01*
X102546626Y-59504389D01*
X102698291Y-59605728D01*
X102827272Y-59734709D01*
X102928611Y-59886374D01*
X102998415Y-60054896D01*
X103034000Y-60233797D01*
X103034000Y-60416203D01*
X102998415Y-60595104D01*
X102928611Y-60763626D01*
X102827272Y-60915291D01*
X102698291Y-61044272D01*
X102546626Y-61145611D01*
X102378104Y-61215415D01*
X102199203Y-61251000D01*
X102016797Y-61251000D01*
X101837896Y-61215415D01*
X101669374Y-61145611D01*
X101517709Y-61044272D01*
X101388728Y-60915291D01*
X101287389Y-60763626D01*
X101217585Y-60595104D01*
X101182000Y-60416203D01*
X101182000Y-60233797D01*
X101217585Y-60054896D01*
X101287389Y-59886374D01*
X101388728Y-59734709D01*
X101517709Y-59605728D01*
X101669374Y-59504389D01*
X101837896Y-59434585D01*
X102016797Y-59399000D01*
X102199203Y-59399000D01*
X102378104Y-59434585D01*
X102378104Y-59434585D01*
G37*
G36*
X112538104Y-59434585D02*
G01*
X112706626Y-59504389D01*
X112858291Y-59605728D01*
X112987272Y-59734709D01*
X113088611Y-59886374D01*
X113158415Y-60054896D01*
X113194000Y-60233797D01*
X113194000Y-60416203D01*
X113158415Y-60595104D01*
X113088611Y-60763626D01*
X112987272Y-60915291D01*
X112858291Y-61044272D01*
X112706626Y-61145611D01*
X112538104Y-61215415D01*
X112359203Y-61251000D01*
X112176797Y-61251000D01*
X111997896Y-61215415D01*
X111829374Y-61145611D01*
X111677709Y-61044272D01*
X111548728Y-60915291D01*
X111447389Y-60763626D01*
X111377585Y-60595104D01*
X111342000Y-60416203D01*
X111342000Y-60233797D01*
X111377585Y-60054896D01*
X111447389Y-59886374D01*
X111548728Y-59734709D01*
X111677709Y-59605728D01*
X111829374Y-59504389D01*
X111997896Y-59434585D01*
X112176797Y-59399000D01*
X112359203Y-59399000D01*
X112538104Y-59434585D01*
X112538104Y-59434585D01*
G37*
G36*
X121396354Y-59434585D02*
G01*
X121564876Y-59504389D01*
X121716541Y-59605728D01*
X121845522Y-59734709D01*
X121946861Y-59886374D01*
X122016665Y-60054896D01*
X122052250Y-60233797D01*
X122052250Y-60416203D01*
X122016665Y-60595104D01*
X121946861Y-60763626D01*
X121845522Y-60915291D01*
X121716541Y-61044272D01*
X121564876Y-61145611D01*
X121396354Y-61215415D01*
X121217453Y-61251000D01*
X121035047Y-61251000D01*
X120856146Y-61215415D01*
X120687624Y-61145611D01*
X120535959Y-61044272D01*
X120406978Y-60915291D01*
X120305639Y-60763626D01*
X120235835Y-60595104D01*
X120200250Y-60416203D01*
X120200250Y-60233797D01*
X120235835Y-60054896D01*
X120305639Y-59886374D01*
X120406978Y-59734709D01*
X120535959Y-59605728D01*
X120687624Y-59504389D01*
X120856146Y-59434585D01*
X121035047Y-59399000D01*
X121217453Y-59399000D01*
X121396354Y-59434585D01*
X121396354Y-59434585D01*
G37*
G36*
X134890000Y-59176000D02*
G01*
X133588000Y-59176000D01*
X133588000Y-58174000D01*
X134890000Y-58174000D01*
X134890000Y-59176000D01*
X134890000Y-59176000D01*
G37*
G36*
X115840000Y-59176000D02*
G01*
X114538000Y-59176000D01*
X114538000Y-58174000D01*
X115840000Y-58174000D01*
X115840000Y-59176000D01*
X115840000Y-59176000D01*
G37*
G36*
X104711205Y-55148881D02*
G01*
X104716645Y-55149000D01*
X104803828Y-55149000D01*
X104820097Y-55152236D01*
X104838956Y-55154515D01*
X104855532Y-55155246D01*
X104940223Y-55176010D01*
X104945518Y-55177184D01*
X105031027Y-55194193D01*
X105046362Y-55200545D01*
X105064401Y-55206455D01*
X105080521Y-55210407D01*
X105159504Y-55247280D01*
X105164494Y-55249477D01*
X105245045Y-55282842D01*
X105258841Y-55292060D01*
X105275393Y-55301382D01*
X105290426Y-55308400D01*
X105360694Y-55359971D01*
X105365192Y-55363122D01*
X105437656Y-55411541D01*
X105449383Y-55423268D01*
X105463809Y-55435648D01*
X105477179Y-55445461D01*
X105477180Y-55445462D01*
X105536021Y-55509733D01*
X105539829Y-55513714D01*
X105601459Y-55575344D01*
X105610674Y-55589135D01*
X105622396Y-55604078D01*
X105633605Y-55616321D01*
X105678799Y-55690874D01*
X105681746Y-55695501D01*
X105730158Y-55767955D01*
X105736505Y-55783277D01*
X105745092Y-55800231D01*
X105753691Y-55814417D01*
X105783478Y-55896368D01*
X105785452Y-55901448D01*
X105818754Y-55981846D01*
X105818807Y-55981974D01*
X105822041Y-55998233D01*
X105827158Y-56016542D01*
X105832825Y-56032134D01*
X105846055Y-56118345D01*
X105847001Y-56123713D01*
X105864000Y-56209173D01*
X105864000Y-56225752D01*
X105865444Y-56244692D01*
X105867963Y-56261104D01*
X105864120Y-56348249D01*
X105864000Y-56353689D01*
X105864000Y-56440825D01*
X105860766Y-56457083D01*
X105858488Y-56475941D01*
X105857756Y-56492531D01*
X105836988Y-56577237D01*
X105835812Y-56582537D01*
X105818807Y-56668027D01*
X105812457Y-56683357D01*
X105806549Y-56701393D01*
X105802595Y-56717520D01*
X105765711Y-56796526D01*
X105763511Y-56801523D01*
X105730158Y-56882045D01*
X105720944Y-56895835D01*
X105711622Y-56912387D01*
X105704602Y-56927424D01*
X105653011Y-56997720D01*
X105649866Y-57002210D01*
X105601461Y-57074654D01*
X105544460Y-57131655D01*
X105539811Y-57136563D01*
X104922580Y-57824468D01*
X104214723Y-58613376D01*
X104086679Y-58730602D01*
X103987630Y-58790646D01*
X103888583Y-58850689D01*
X103670866Y-58929823D01*
X103441895Y-58964961D01*
X103210470Y-58954754D01*
X102985481Y-58899593D01*
X102880727Y-58850689D01*
X102775579Y-58801602D01*
X102678838Y-58730602D01*
X102588823Y-58664539D01*
X102514394Y-58583241D01*
X102432398Y-58493679D01*
X102350564Y-58358685D01*
X102312311Y-58295583D01*
X102233177Y-58077866D01*
X102198039Y-57848895D01*
X102208246Y-57617470D01*
X102263407Y-57392481D01*
X102314972Y-57282028D01*
X102361398Y-57182580D01*
X102361400Y-57182577D01*
X102464114Y-57042622D01*
X103197060Y-56225752D01*
X103750787Y-55608621D01*
X103761681Y-55594589D01*
X103774539Y-55575346D01*
X103831573Y-55518312D01*
X103836223Y-55513403D01*
X103851278Y-55496624D01*
X103872701Y-55477011D01*
X103876682Y-55473203D01*
X103938346Y-55411539D01*
X103952143Y-55402320D01*
X103967102Y-55390585D01*
X103979321Y-55379398D01*
X104011385Y-55359961D01*
X104053830Y-55334231D01*
X104058421Y-55331308D01*
X104130955Y-55282842D01*
X104146300Y-55276486D01*
X104163248Y-55267901D01*
X104177416Y-55259312D01*
X104177417Y-55259312D01*
X104177418Y-55259311D01*
X104259312Y-55229545D01*
X104264410Y-55227563D01*
X104344973Y-55194193D01*
X104361252Y-55190955D01*
X104379542Y-55185844D01*
X104395135Y-55180177D01*
X104481300Y-55166954D01*
X104486663Y-55166009D01*
X104572173Y-55149000D01*
X104588766Y-55149000D01*
X104607709Y-55147555D01*
X104624106Y-55145039D01*
X104711205Y-55148881D01*
X104711205Y-55148881D01*
G37*
G36*
X123729455Y-55148881D02*
G01*
X123734895Y-55149000D01*
X123822078Y-55149000D01*
X123838347Y-55152236D01*
X123857206Y-55154515D01*
X123873782Y-55155246D01*
X123958473Y-55176010D01*
X123963768Y-55177184D01*
X124049277Y-55194193D01*
X124064612Y-55200545D01*
X124082651Y-55206455D01*
X124098771Y-55210407D01*
X124177754Y-55247280D01*
X124182744Y-55249477D01*
X124263295Y-55282842D01*
X124277091Y-55292060D01*
X124293643Y-55301382D01*
X124308676Y-55308400D01*
X124378944Y-55359971D01*
X124383442Y-55363122D01*
X124455906Y-55411541D01*
X124467633Y-55423268D01*
X124482059Y-55435648D01*
X124495429Y-55445461D01*
X124495430Y-55445462D01*
X124554271Y-55509733D01*
X124558079Y-55513714D01*
X124619709Y-55575344D01*
X124628924Y-55589135D01*
X124640646Y-55604078D01*
X124651855Y-55616321D01*
X124697049Y-55690874D01*
X124699996Y-55695501D01*
X124748408Y-55767955D01*
X124754755Y-55783277D01*
X124763342Y-55800231D01*
X124771941Y-55814417D01*
X124801728Y-55896368D01*
X124803702Y-55901448D01*
X124837004Y-55981846D01*
X124837057Y-55981974D01*
X124840291Y-55998233D01*
X124845408Y-56016542D01*
X124851075Y-56032134D01*
X124864305Y-56118345D01*
X124865251Y-56123713D01*
X124882250Y-56209173D01*
X124882250Y-56225752D01*
X124883694Y-56244692D01*
X124886213Y-56261104D01*
X124882370Y-56348249D01*
X124882250Y-56353689D01*
X124882250Y-56440825D01*
X124879016Y-56457083D01*
X124876738Y-56475941D01*
X124876006Y-56492531D01*
X124855238Y-56577237D01*
X124854062Y-56582537D01*
X124837057Y-56668027D01*
X124830707Y-56683357D01*
X124824799Y-56701393D01*
X124820845Y-56717520D01*
X124783961Y-56796526D01*
X124781761Y-56801523D01*
X124748408Y-56882045D01*
X124739194Y-56895835D01*
X124729872Y-56912387D01*
X124722852Y-56927424D01*
X124671261Y-56997720D01*
X124668116Y-57002210D01*
X124619711Y-57074654D01*
X124562710Y-57131655D01*
X124558061Y-57136563D01*
X123940830Y-57824468D01*
X123232973Y-58613376D01*
X123104929Y-58730602D01*
X123005880Y-58790646D01*
X122906833Y-58850689D01*
X122689116Y-58929823D01*
X122460145Y-58964961D01*
X122228720Y-58954754D01*
X122003731Y-58899593D01*
X121898977Y-58850689D01*
X121793829Y-58801602D01*
X121697088Y-58730602D01*
X121607073Y-58664539D01*
X121532644Y-58583241D01*
X121450648Y-58493679D01*
X121368814Y-58358685D01*
X121330561Y-58295583D01*
X121251427Y-58077866D01*
X121216289Y-57848895D01*
X121226496Y-57617470D01*
X121281657Y-57392481D01*
X121333222Y-57282028D01*
X121379648Y-57182580D01*
X121379650Y-57182577D01*
X121482364Y-57042622D01*
X122215310Y-56225752D01*
X122769037Y-55608621D01*
X122779931Y-55594589D01*
X122792789Y-55575346D01*
X122849823Y-55518312D01*
X122854473Y-55513403D01*
X122869528Y-55496624D01*
X122890951Y-55477011D01*
X122894932Y-55473203D01*
X122956596Y-55411539D01*
X122970393Y-55402320D01*
X122985352Y-55390585D01*
X122997571Y-55379398D01*
X123029635Y-55359961D01*
X123072080Y-55334231D01*
X123076671Y-55331308D01*
X123149205Y-55282842D01*
X123164550Y-55276486D01*
X123181498Y-55267901D01*
X123195666Y-55259312D01*
X123195667Y-55259312D01*
X123195668Y-55259311D01*
X123277562Y-55229545D01*
X123282660Y-55227563D01*
X123363223Y-55194193D01*
X123379502Y-55190955D01*
X123397792Y-55185844D01*
X123413385Y-55180177D01*
X123499550Y-55166954D01*
X123504913Y-55166009D01*
X123590423Y-55149000D01*
X123607016Y-55149000D01*
X123625959Y-55147555D01*
X123642356Y-55145039D01*
X123729455Y-55148881D01*
X123729455Y-55148881D01*
G37*
G36*
X72339468Y-56918565D02*
G01*
X72378138Y-56930296D01*
X72413777Y-56949346D01*
X72445017Y-56974983D01*
X72470654Y-57006223D01*
X72489704Y-57041862D01*
X72501435Y-57080532D01*
X72506000Y-57126888D01*
X72506000Y-57778112D01*
X72501435Y-57824468D01*
X72489704Y-57863138D01*
X72470654Y-57898777D01*
X72445017Y-57930017D01*
X72413777Y-57955654D01*
X72378138Y-57974704D01*
X72339468Y-57986435D01*
X72293112Y-57991000D01*
X71216888Y-57991000D01*
X71170532Y-57986435D01*
X71131862Y-57974704D01*
X71096223Y-57955654D01*
X71064983Y-57930017D01*
X71039346Y-57898777D01*
X71020296Y-57863138D01*
X71008565Y-57824468D01*
X71004000Y-57778112D01*
X71004000Y-57126888D01*
X71008565Y-57080532D01*
X71020296Y-57041862D01*
X71039346Y-57006223D01*
X71064983Y-56974983D01*
X71096223Y-56949346D01*
X71131862Y-56930296D01*
X71170532Y-56918565D01*
X71216888Y-56914000D01*
X72293112Y-56914000D01*
X72339468Y-56918565D01*
X72339468Y-56918565D01*
G37*
G36*
X86368000Y-57301000D02*
G01*
X77716000Y-57301000D01*
X77716000Y-55699000D01*
X86368000Y-55699000D01*
X86368000Y-57301000D01*
X86368000Y-57301000D01*
G37*
G36*
X91643468Y-55951065D02*
G01*
X91682138Y-55962796D01*
X91717777Y-55981846D01*
X91749017Y-56007483D01*
X91774654Y-56038723D01*
X91793704Y-56074362D01*
X91805435Y-56113032D01*
X91810000Y-56159388D01*
X91810000Y-56810612D01*
X91805435Y-56856968D01*
X91793704Y-56895638D01*
X91774654Y-56931277D01*
X91749017Y-56962517D01*
X91717777Y-56988154D01*
X91682138Y-57007204D01*
X91643468Y-57018935D01*
X91597112Y-57023500D01*
X90520888Y-57023500D01*
X90474532Y-57018935D01*
X90435862Y-57007204D01*
X90400223Y-56988154D01*
X90368983Y-56962517D01*
X90343346Y-56931277D01*
X90324296Y-56895638D01*
X90312565Y-56856968D01*
X90308000Y-56810612D01*
X90308000Y-56159388D01*
X90312565Y-56113032D01*
X90324296Y-56074362D01*
X90343346Y-56038723D01*
X90368983Y-56007483D01*
X90400223Y-55981846D01*
X90435862Y-55962796D01*
X90474532Y-55951065D01*
X90520888Y-55946500D01*
X91597112Y-55946500D01*
X91643468Y-55951065D01*
X91643468Y-55951065D01*
G37*
G36*
X128834377Y-54067261D02*
G01*
X128855150Y-54069000D01*
X128862077Y-54069000D01*
X128957004Y-54087882D01*
X128960598Y-54088542D01*
X129055980Y-54104624D01*
X129062453Y-54107085D01*
X129082478Y-54112841D01*
X129089277Y-54114193D01*
X129133433Y-54132483D01*
X129178693Y-54151230D01*
X129182094Y-54152581D01*
X129272505Y-54186961D01*
X129278377Y-54190640D01*
X129296886Y-54200187D01*
X129303295Y-54202842D01*
X129383813Y-54256642D01*
X129386804Y-54258578D01*
X129468807Y-54309959D01*
X129473834Y-54314700D01*
X129490146Y-54327691D01*
X129495902Y-54331537D01*
X129564360Y-54399995D01*
X129566939Y-54402499D01*
X129637340Y-54468889D01*
X129640976Y-54474000D01*
X129641345Y-54474519D01*
X129654809Y-54490444D01*
X129659709Y-54495344D01*
X129713494Y-54575839D01*
X129715541Y-54578807D01*
X129771630Y-54657645D01*
X129774464Y-54663958D01*
X129784558Y-54682193D01*
X129788408Y-54687955D01*
X129825470Y-54777430D01*
X129826874Y-54780685D01*
X129866515Y-54868973D01*
X129868065Y-54875725D01*
X129874402Y-54895562D01*
X129877057Y-54901973D01*
X129895942Y-54996917D01*
X129896688Y-55000401D01*
X129918348Y-55094751D01*
X129918348Y-55094754D01*
X129918550Y-55101654D01*
X129920897Y-55122370D01*
X129922250Y-55129174D01*
X129922250Y-55225986D01*
X129922303Y-55229584D01*
X129923438Y-55268277D01*
X129922545Y-55281225D01*
X129922250Y-55289797D01*
X129922250Y-55360826D01*
X129916331Y-55390585D01*
X129915854Y-55392979D01*
X129913750Y-55408750D01*
X129875488Y-55963545D01*
X129846626Y-56134730D01*
X129764288Y-56351255D01*
X129641291Y-56547557D01*
X129482361Y-56716090D01*
X129293605Y-56850380D01*
X129082277Y-56945265D01*
X128856499Y-56997098D01*
X128624948Y-57003889D01*
X128624947Y-57003889D01*
X128559539Y-56992861D01*
X128396520Y-56965376D01*
X128179995Y-56883038D01*
X127983693Y-56760041D01*
X127815160Y-56601111D01*
X127680870Y-56412355D01*
X127585985Y-56201027D01*
X127534152Y-55975249D01*
X127529062Y-55801723D01*
X127569954Y-55208794D01*
X127570250Y-55200196D01*
X127570250Y-55129175D01*
X127570483Y-55128005D01*
X127589138Y-55034219D01*
X127589794Y-55030645D01*
X127590099Y-55028837D01*
X127605874Y-54935270D01*
X127608335Y-54928799D01*
X127614092Y-54908767D01*
X127615443Y-54901974D01*
X127618093Y-54895576D01*
X127652514Y-54812476D01*
X127653803Y-54809230D01*
X127688212Y-54718745D01*
X127691886Y-54712881D01*
X127701437Y-54694365D01*
X127704092Y-54687955D01*
X127757907Y-54607415D01*
X127759827Y-54604449D01*
X127811209Y-54522443D01*
X127815961Y-54517404D01*
X127828939Y-54501107D01*
X127832787Y-54495348D01*
X127901243Y-54426892D01*
X127903796Y-54424262D01*
X127924273Y-54402548D01*
X127970139Y-54353910D01*
X127975771Y-54349903D01*
X127991697Y-54336438D01*
X127996596Y-54331539D01*
X128077074Y-54277766D01*
X128080056Y-54275710D01*
X128158895Y-54219620D01*
X128165205Y-54216787D01*
X128183444Y-54206691D01*
X128189201Y-54202844D01*
X128189204Y-54202843D01*
X128189205Y-54202842D01*
X128278679Y-54165781D01*
X128281937Y-54164375D01*
X128370223Y-54124735D01*
X128376975Y-54123185D01*
X128396812Y-54116848D01*
X128403223Y-54114193D01*
X128498149Y-54095311D01*
X128501696Y-54094551D01*
X128596001Y-54072901D01*
X128598380Y-54072831D01*
X128602915Y-54072698D01*
X128623631Y-54070351D01*
X128630424Y-54069000D01*
X128727209Y-54069000D01*
X128730834Y-54068947D01*
X128827552Y-54066110D01*
X128834377Y-54067261D01*
X128834377Y-54067261D01*
G37*
G36*
X109816127Y-54067261D02*
G01*
X109836900Y-54069000D01*
X109843827Y-54069000D01*
X109938754Y-54087882D01*
X109942348Y-54088542D01*
X110037730Y-54104624D01*
X110044203Y-54107085D01*
X110064228Y-54112841D01*
X110071027Y-54114193D01*
X110115183Y-54132483D01*
X110160443Y-54151230D01*
X110163844Y-54152581D01*
X110254255Y-54186961D01*
X110260127Y-54190640D01*
X110278636Y-54200187D01*
X110285045Y-54202842D01*
X110365563Y-54256642D01*
X110368554Y-54258578D01*
X110450557Y-54309959D01*
X110455584Y-54314700D01*
X110471896Y-54327691D01*
X110477652Y-54331537D01*
X110546110Y-54399995D01*
X110548689Y-54402499D01*
X110619090Y-54468889D01*
X110622726Y-54474000D01*
X110623095Y-54474519D01*
X110636559Y-54490444D01*
X110641459Y-54495344D01*
X110695244Y-54575839D01*
X110697291Y-54578807D01*
X110753380Y-54657645D01*
X110756214Y-54663958D01*
X110766308Y-54682193D01*
X110770158Y-54687955D01*
X110807220Y-54777430D01*
X110808624Y-54780685D01*
X110848265Y-54868973D01*
X110849815Y-54875725D01*
X110856152Y-54895562D01*
X110858807Y-54901973D01*
X110877692Y-54996917D01*
X110878438Y-55000401D01*
X110900098Y-55094751D01*
X110900098Y-55094754D01*
X110900300Y-55101654D01*
X110902647Y-55122370D01*
X110904000Y-55129174D01*
X110904000Y-55225986D01*
X110904053Y-55229584D01*
X110905188Y-55268277D01*
X110904295Y-55281225D01*
X110904000Y-55289797D01*
X110904000Y-55360826D01*
X110898081Y-55390585D01*
X110897604Y-55392979D01*
X110895500Y-55408750D01*
X110857238Y-55963545D01*
X110828376Y-56134730D01*
X110746038Y-56351255D01*
X110623041Y-56547557D01*
X110464111Y-56716090D01*
X110275355Y-56850380D01*
X110064027Y-56945265D01*
X109838249Y-56997098D01*
X109606698Y-57003889D01*
X109606697Y-57003889D01*
X109541289Y-56992861D01*
X109378270Y-56965376D01*
X109161745Y-56883038D01*
X108965443Y-56760041D01*
X108796910Y-56601111D01*
X108662620Y-56412355D01*
X108567735Y-56201027D01*
X108515902Y-55975249D01*
X108510812Y-55801723D01*
X108551704Y-55208794D01*
X108552000Y-55200196D01*
X108552000Y-55129175D01*
X108552233Y-55128005D01*
X108570888Y-55034219D01*
X108571544Y-55030645D01*
X108571849Y-55028837D01*
X108587624Y-54935270D01*
X108590085Y-54928799D01*
X108595842Y-54908767D01*
X108597193Y-54901974D01*
X108599843Y-54895576D01*
X108634264Y-54812476D01*
X108635553Y-54809230D01*
X108669962Y-54718745D01*
X108673636Y-54712881D01*
X108683187Y-54694365D01*
X108685842Y-54687955D01*
X108739657Y-54607415D01*
X108741577Y-54604449D01*
X108792959Y-54522443D01*
X108797711Y-54517404D01*
X108810689Y-54501107D01*
X108814537Y-54495348D01*
X108882993Y-54426892D01*
X108885546Y-54424262D01*
X108906023Y-54402548D01*
X108951889Y-54353910D01*
X108957521Y-54349903D01*
X108973447Y-54336438D01*
X108978346Y-54331539D01*
X109058824Y-54277766D01*
X109061806Y-54275710D01*
X109140645Y-54219620D01*
X109146955Y-54216787D01*
X109165194Y-54206691D01*
X109170951Y-54202844D01*
X109170954Y-54202843D01*
X109170955Y-54202842D01*
X109260429Y-54165781D01*
X109263687Y-54164375D01*
X109351973Y-54124735D01*
X109358725Y-54123185D01*
X109378562Y-54116848D01*
X109384973Y-54114193D01*
X109479899Y-54095311D01*
X109483446Y-54094551D01*
X109577751Y-54072901D01*
X109580130Y-54072831D01*
X109584665Y-54072698D01*
X109605381Y-54070351D01*
X109612174Y-54069000D01*
X109708959Y-54069000D01*
X109712584Y-54068947D01*
X109809302Y-54066110D01*
X109816127Y-54067261D01*
X109816127Y-54067261D01*
G37*
G36*
X72339468Y-55043565D02*
G01*
X72378138Y-55055296D01*
X72413777Y-55074346D01*
X72445017Y-55099983D01*
X72470654Y-55131223D01*
X72489704Y-55166862D01*
X72501435Y-55205532D01*
X72506000Y-55251888D01*
X72506000Y-55903112D01*
X72501435Y-55949468D01*
X72489704Y-55988138D01*
X72470654Y-56023777D01*
X72445017Y-56055017D01*
X72413777Y-56080654D01*
X72378138Y-56099704D01*
X72339468Y-56111435D01*
X72293112Y-56116000D01*
X71216888Y-56116000D01*
X71170532Y-56111435D01*
X71131862Y-56099704D01*
X71096223Y-56080654D01*
X71064983Y-56055017D01*
X71039346Y-56023777D01*
X71020296Y-55988138D01*
X71008565Y-55949468D01*
X71004000Y-55903112D01*
X71004000Y-55251888D01*
X71008565Y-55205532D01*
X71020296Y-55166862D01*
X71039346Y-55131223D01*
X71064983Y-55099983D01*
X71096223Y-55074346D01*
X71131862Y-55055296D01*
X71170532Y-55043565D01*
X71216888Y-55039000D01*
X72293112Y-55039000D01*
X72339468Y-55043565D01*
X72339468Y-55043565D01*
G37*
G36*
X91643468Y-54076065D02*
G01*
X91682138Y-54087796D01*
X91717777Y-54106846D01*
X91749017Y-54132483D01*
X91774654Y-54163723D01*
X91793704Y-54199362D01*
X91805435Y-54238032D01*
X91810000Y-54284388D01*
X91810000Y-54935612D01*
X91805435Y-54981968D01*
X91793704Y-55020638D01*
X91774654Y-55056277D01*
X91749017Y-55087517D01*
X91717777Y-55113154D01*
X91682138Y-55132204D01*
X91643468Y-55143935D01*
X91597112Y-55148500D01*
X90520888Y-55148500D01*
X90474532Y-55143935D01*
X90435862Y-55132204D01*
X90400223Y-55113154D01*
X90368983Y-55087517D01*
X90343346Y-55056277D01*
X90324296Y-55020638D01*
X90312565Y-54981968D01*
X90308000Y-54935612D01*
X90308000Y-54284388D01*
X90312565Y-54238032D01*
X90324296Y-54199362D01*
X90343346Y-54163723D01*
X90368983Y-54132483D01*
X90400223Y-54106846D01*
X90435862Y-54087796D01*
X90474532Y-54076065D01*
X90520888Y-54071500D01*
X91597112Y-54071500D01*
X91643468Y-54076065D01*
X91643468Y-54076065D01*
G37*
G36*
X77143000Y-55126000D02*
G01*
X75541000Y-55126000D01*
X75541000Y-46474000D01*
X77143000Y-46474000D01*
X77143000Y-55126000D01*
X77143000Y-55126000D01*
G37*
G36*
X88543000Y-55126000D02*
G01*
X86941000Y-55126000D01*
X86941000Y-46474000D01*
X88543000Y-46474000D01*
X88543000Y-55126000D01*
X88543000Y-55126000D01*
G37*
G36*
X70300468Y-48783565D02*
G01*
X70339138Y-48795296D01*
X70374777Y-48814346D01*
X70406017Y-48839983D01*
X70431654Y-48871223D01*
X70450704Y-48906862D01*
X70462435Y-48945532D01*
X70467000Y-48991888D01*
X70467000Y-50068112D01*
X70462435Y-50114468D01*
X70450704Y-50153138D01*
X70431654Y-50188777D01*
X70406017Y-50220017D01*
X70374777Y-50245654D01*
X70339138Y-50264704D01*
X70300468Y-50276435D01*
X70254112Y-50281000D01*
X69602888Y-50281000D01*
X69556532Y-50276435D01*
X69517862Y-50264704D01*
X69482223Y-50245654D01*
X69450983Y-50220017D01*
X69425346Y-50188777D01*
X69406296Y-50153138D01*
X69394565Y-50114468D01*
X69390000Y-50068112D01*
X69390000Y-48991888D01*
X69394565Y-48945532D01*
X69406296Y-48906862D01*
X69425346Y-48871223D01*
X69450983Y-48839983D01*
X69482223Y-48814346D01*
X69517862Y-48795296D01*
X69556532Y-48783565D01*
X69602888Y-48779000D01*
X70254112Y-48779000D01*
X70300468Y-48783565D01*
X70300468Y-48783565D01*
G37*
G36*
X72175468Y-48783565D02*
G01*
X72214138Y-48795296D01*
X72249777Y-48814346D01*
X72281017Y-48839983D01*
X72306654Y-48871223D01*
X72325704Y-48906862D01*
X72337435Y-48945532D01*
X72342000Y-48991888D01*
X72342000Y-50068112D01*
X72337435Y-50114468D01*
X72325704Y-50153138D01*
X72306654Y-50188777D01*
X72281017Y-50220017D01*
X72249777Y-50245654D01*
X72214138Y-50264704D01*
X72175468Y-50276435D01*
X72129112Y-50281000D01*
X71477888Y-50281000D01*
X71431532Y-50276435D01*
X71392862Y-50264704D01*
X71357223Y-50245654D01*
X71325983Y-50220017D01*
X71300346Y-50188777D01*
X71281296Y-50153138D01*
X71269565Y-50114468D01*
X71265000Y-50068112D01*
X71265000Y-48991888D01*
X71269565Y-48945532D01*
X71281296Y-48906862D01*
X71300346Y-48871223D01*
X71325983Y-48839983D01*
X71357223Y-48814346D01*
X71392862Y-48795296D01*
X71431532Y-48783565D01*
X71477888Y-48779000D01*
X72129112Y-48779000D01*
X72175468Y-48783565D01*
X72175468Y-48783565D01*
G37*
G36*
X59315604Y-48356347D02*
G01*
X59352144Y-48367432D01*
X59385821Y-48385433D01*
X59415341Y-48409659D01*
X59439567Y-48439179D01*
X59457568Y-48472856D01*
X59468653Y-48509396D01*
X59473000Y-48553538D01*
X59473000Y-49502462D01*
X59468653Y-49546604D01*
X59457568Y-49583144D01*
X59439567Y-49616821D01*
X59415341Y-49646341D01*
X59385821Y-49670567D01*
X59352144Y-49688568D01*
X59315604Y-49699653D01*
X59271462Y-49704000D01*
X57822538Y-49704000D01*
X57778396Y-49699653D01*
X57741856Y-49688568D01*
X57708179Y-49670567D01*
X57678659Y-49646341D01*
X57654433Y-49616821D01*
X57636432Y-49583144D01*
X57625347Y-49546604D01*
X57621000Y-49502462D01*
X57621000Y-48553538D01*
X57625347Y-48509396D01*
X57636432Y-48472856D01*
X57654433Y-48439179D01*
X57678659Y-48409659D01*
X57708179Y-48385433D01*
X57741856Y-48367432D01*
X57778396Y-48356347D01*
X57822538Y-48352000D01*
X59271462Y-48352000D01*
X59315604Y-48356347D01*
X59315604Y-48356347D01*
G37*
G36*
X92151468Y-47774565D02*
G01*
X92190138Y-47786296D01*
X92225777Y-47805346D01*
X92257017Y-47830983D01*
X92282654Y-47862223D01*
X92301704Y-47897862D01*
X92313435Y-47936532D01*
X92318000Y-47982888D01*
X92318000Y-48634112D01*
X92313435Y-48680468D01*
X92301704Y-48719138D01*
X92282654Y-48754777D01*
X92257017Y-48786017D01*
X92225777Y-48811654D01*
X92190138Y-48830704D01*
X92151468Y-48842435D01*
X92105112Y-48847000D01*
X91028888Y-48847000D01*
X90982532Y-48842435D01*
X90943862Y-48830704D01*
X90908223Y-48811654D01*
X90876983Y-48786017D01*
X90851346Y-48754777D01*
X90832296Y-48719138D01*
X90820565Y-48680468D01*
X90816000Y-48634112D01*
X90816000Y-47982888D01*
X90820565Y-47936532D01*
X90832296Y-47897862D01*
X90851346Y-47862223D01*
X90876983Y-47830983D01*
X90908223Y-47805346D01*
X90943862Y-47786296D01*
X90982532Y-47774565D01*
X91028888Y-47770000D01*
X92105112Y-47770000D01*
X92151468Y-47774565D01*
X92151468Y-47774565D01*
G37*
G36*
X106012675Y-45356988D02*
G01*
X106178960Y-45390063D01*
X106361586Y-45465709D01*
X106525944Y-45575530D01*
X106665720Y-45715306D01*
X106775541Y-45879664D01*
X106851187Y-46062290D01*
X106889750Y-46256164D01*
X106889750Y-46453836D01*
X106851187Y-46647710D01*
X106775541Y-46830336D01*
X106665720Y-46994694D01*
X106525944Y-47134470D01*
X106361586Y-47244291D01*
X106178960Y-47319937D01*
X106012675Y-47353012D01*
X105985087Y-47358500D01*
X105787413Y-47358500D01*
X105759825Y-47353012D01*
X105593540Y-47319937D01*
X105410914Y-47244291D01*
X105246556Y-47134470D01*
X105106780Y-46994694D01*
X104996959Y-46830336D01*
X104921313Y-46647710D01*
X104882750Y-46453836D01*
X104882750Y-46256164D01*
X104921313Y-46062290D01*
X104996959Y-45879664D01*
X105106780Y-45715306D01*
X105246556Y-45575530D01*
X105410914Y-45465709D01*
X105593540Y-45390063D01*
X105759825Y-45356988D01*
X105787413Y-45351500D01*
X105985087Y-45351500D01*
X106012675Y-45356988D01*
X106012675Y-45356988D01*
G37*
G36*
X128479750Y-47358500D02*
G01*
X126472750Y-47358500D01*
X126472750Y-45351500D01*
X128479750Y-45351500D01*
X128479750Y-47358500D01*
X128479750Y-47358500D01*
G37*
G36*
X109429750Y-47358500D02*
G01*
X107422750Y-47358500D01*
X107422750Y-45351500D01*
X109429750Y-45351500D01*
X109429750Y-47358500D01*
X109429750Y-47358500D01*
G37*
G36*
X125062675Y-45356988D02*
G01*
X125228960Y-45390063D01*
X125411586Y-45465709D01*
X125575944Y-45575530D01*
X125715720Y-45715306D01*
X125825541Y-45879664D01*
X125901187Y-46062290D01*
X125939750Y-46256164D01*
X125939750Y-46453836D01*
X125901187Y-46647710D01*
X125825541Y-46830336D01*
X125715720Y-46994694D01*
X125575944Y-47134470D01*
X125411586Y-47244291D01*
X125228960Y-47319937D01*
X125062675Y-47353012D01*
X125035087Y-47358500D01*
X124837413Y-47358500D01*
X124809825Y-47353012D01*
X124643540Y-47319937D01*
X124460914Y-47244291D01*
X124296556Y-47134470D01*
X124156780Y-46994694D01*
X124046959Y-46830336D01*
X123971313Y-46647710D01*
X123932750Y-46453836D01*
X123932750Y-46256164D01*
X123971313Y-46062290D01*
X124046959Y-45879664D01*
X124156780Y-45715306D01*
X124296556Y-45575530D01*
X124460914Y-45465709D01*
X124643540Y-45390063D01*
X124809825Y-45356988D01*
X124837413Y-45351500D01*
X125035087Y-45351500D01*
X125062675Y-45356988D01*
X125062675Y-45356988D01*
G37*
G36*
X92151468Y-45899565D02*
G01*
X92190138Y-45911296D01*
X92225777Y-45930346D01*
X92257017Y-45955983D01*
X92282654Y-45987223D01*
X92301704Y-46022862D01*
X92313435Y-46061532D01*
X92318000Y-46107888D01*
X92318000Y-46759112D01*
X92313435Y-46805468D01*
X92301704Y-46844138D01*
X92282654Y-46879777D01*
X92257017Y-46911017D01*
X92225777Y-46936654D01*
X92190138Y-46955704D01*
X92151468Y-46967435D01*
X92105112Y-46972000D01*
X91028888Y-46972000D01*
X90982532Y-46967435D01*
X90943862Y-46955704D01*
X90908223Y-46936654D01*
X90876983Y-46911017D01*
X90851346Y-46879777D01*
X90832296Y-46844138D01*
X90820565Y-46805468D01*
X90816000Y-46759112D01*
X90816000Y-46107888D01*
X90820565Y-46061532D01*
X90832296Y-46022862D01*
X90851346Y-45987223D01*
X90876983Y-45955983D01*
X90908223Y-45930346D01*
X90943862Y-45911296D01*
X90982532Y-45899565D01*
X91028888Y-45895000D01*
X92105112Y-45895000D01*
X92151468Y-45899565D01*
X92151468Y-45899565D01*
G37*
G36*
X59315604Y-45556347D02*
G01*
X59352144Y-45567432D01*
X59385821Y-45585433D01*
X59415341Y-45609659D01*
X59439567Y-45639179D01*
X59457568Y-45672856D01*
X59468653Y-45709396D01*
X59473000Y-45753538D01*
X59473000Y-46702462D01*
X59468653Y-46746604D01*
X59457568Y-46783144D01*
X59439567Y-46816821D01*
X59415341Y-46846341D01*
X59385821Y-46870567D01*
X59352144Y-46888568D01*
X59315604Y-46899653D01*
X59271462Y-46904000D01*
X57822538Y-46904000D01*
X57778396Y-46899653D01*
X57741856Y-46888568D01*
X57708179Y-46870567D01*
X57678659Y-46846341D01*
X57654433Y-46816821D01*
X57636432Y-46783144D01*
X57625347Y-46746604D01*
X57621000Y-46702462D01*
X57621000Y-45753538D01*
X57625347Y-45709396D01*
X57636432Y-45672856D01*
X57654433Y-45639179D01*
X57678659Y-45609659D01*
X57708179Y-45585433D01*
X57741856Y-45567432D01*
X57778396Y-45556347D01*
X57822538Y-45552000D01*
X59271462Y-45552000D01*
X59315604Y-45556347D01*
X59315604Y-45556347D01*
G37*
G36*
X86368000Y-45901000D02*
G01*
X77716000Y-45901000D01*
X77716000Y-44299000D01*
X86368000Y-44299000D01*
X86368000Y-45901000D01*
X86368000Y-45901000D01*
G37*
G36*
X64719468Y-43329565D02*
G01*
X64758138Y-43341296D01*
X64793777Y-43360346D01*
X64825017Y-43385983D01*
X64850654Y-43417223D01*
X64869704Y-43452862D01*
X64881435Y-43491532D01*
X64886000Y-43537888D01*
X64886000Y-44189112D01*
X64881435Y-44235468D01*
X64869704Y-44274138D01*
X64850654Y-44309777D01*
X64825017Y-44341017D01*
X64793777Y-44366654D01*
X64758138Y-44385704D01*
X64719468Y-44397435D01*
X64673112Y-44402000D01*
X63596888Y-44402000D01*
X63550532Y-44397435D01*
X63511862Y-44385704D01*
X63476223Y-44366654D01*
X63444983Y-44341017D01*
X63419346Y-44309777D01*
X63400296Y-44274138D01*
X63388565Y-44235468D01*
X63384000Y-44189112D01*
X63384000Y-43537888D01*
X63388565Y-43491532D01*
X63400296Y-43452862D01*
X63419346Y-43417223D01*
X63444983Y-43385983D01*
X63476223Y-43360346D01*
X63511862Y-43341296D01*
X63550532Y-43329565D01*
X63596888Y-43325000D01*
X64673112Y-43325000D01*
X64719468Y-43329565D01*
X64719468Y-43329565D01*
G37*
G36*
X61544468Y-43329565D02*
G01*
X61583138Y-43341296D01*
X61618777Y-43360346D01*
X61650017Y-43385983D01*
X61675654Y-43417223D01*
X61694704Y-43452862D01*
X61706435Y-43491532D01*
X61711000Y-43537888D01*
X61711000Y-44189112D01*
X61706435Y-44235468D01*
X61694704Y-44274138D01*
X61675654Y-44309777D01*
X61650017Y-44341017D01*
X61618777Y-44366654D01*
X61583138Y-44385704D01*
X61544468Y-44397435D01*
X61498112Y-44402000D01*
X60421888Y-44402000D01*
X60375532Y-44397435D01*
X60336862Y-44385704D01*
X60301223Y-44366654D01*
X60269983Y-44341017D01*
X60244346Y-44309777D01*
X60225296Y-44274138D01*
X60213565Y-44235468D01*
X60209000Y-44189112D01*
X60209000Y-43537888D01*
X60213565Y-43491532D01*
X60225296Y-43452862D01*
X60244346Y-43417223D01*
X60269983Y-43385983D01*
X60301223Y-43360346D01*
X60336862Y-43341296D01*
X60375532Y-43329565D01*
X60421888Y-43325000D01*
X61498112Y-43325000D01*
X61544468Y-43329565D01*
X61544468Y-43329565D01*
G37*
G36*
X115713000Y-43553000D02*
G01*
X114411000Y-43553000D01*
X114411000Y-42551000D01*
X115713000Y-42551000D01*
X115713000Y-43553000D01*
X115713000Y-43553000D01*
G37*
G36*
X134890000Y-43553000D02*
G01*
X133588000Y-43553000D01*
X133588000Y-42551000D01*
X134890000Y-42551000D01*
X134890000Y-43553000D01*
X134890000Y-43553000D01*
G37*
G36*
X107752724Y-39308684D02*
G01*
X107964590Y-39396442D01*
X108124873Y-39462833D01*
X108459798Y-39686623D01*
X108744627Y-39971452D01*
X108968417Y-40306377D01*
X109000812Y-40384586D01*
X109122566Y-40678526D01*
X109201150Y-41073594D01*
X109201150Y-41476406D01*
X109122566Y-41871474D01*
X109071701Y-41994272D01*
X108968417Y-42243623D01*
X108744627Y-42578548D01*
X108459798Y-42863377D01*
X108124873Y-43087167D01*
X107970724Y-43151017D01*
X107752724Y-43241316D01*
X107357656Y-43319900D01*
X106954844Y-43319900D01*
X106559776Y-43241316D01*
X106341776Y-43151017D01*
X106187627Y-43087167D01*
X105852702Y-42863377D01*
X105567873Y-42578548D01*
X105344083Y-42243623D01*
X105240799Y-41994272D01*
X105189934Y-41871474D01*
X105111350Y-41476406D01*
X105111350Y-41073594D01*
X105189934Y-40678526D01*
X105311688Y-40384586D01*
X105344083Y-40306377D01*
X105567873Y-39971452D01*
X105852702Y-39686623D01*
X106187627Y-39462833D01*
X106347910Y-39396442D01*
X106559776Y-39308684D01*
X106954844Y-39230100D01*
X107357656Y-39230100D01*
X107752724Y-39308684D01*
X107752724Y-39308684D01*
G37*
G36*
X126802724Y-39308684D02*
G01*
X127014590Y-39396442D01*
X127174873Y-39462833D01*
X127509798Y-39686623D01*
X127794627Y-39971452D01*
X128018417Y-40306377D01*
X128050812Y-40384586D01*
X128172566Y-40678526D01*
X128251150Y-41073594D01*
X128251150Y-41476406D01*
X128172566Y-41871474D01*
X128121701Y-41994272D01*
X128018417Y-42243623D01*
X127794627Y-42578548D01*
X127509798Y-42863377D01*
X127174873Y-43087167D01*
X127020724Y-43151017D01*
X126802724Y-43241316D01*
X126407656Y-43319900D01*
X126004844Y-43319900D01*
X125609776Y-43241316D01*
X125391776Y-43151017D01*
X125237627Y-43087167D01*
X124902702Y-42863377D01*
X124617873Y-42578548D01*
X124394083Y-42243623D01*
X124290799Y-41994272D01*
X124239934Y-41871474D01*
X124161350Y-41476406D01*
X124161350Y-41073594D01*
X124239934Y-40678526D01*
X124361688Y-40384586D01*
X124394083Y-40306377D01*
X124617873Y-39971452D01*
X124902702Y-39686623D01*
X125237627Y-39462833D01*
X125397910Y-39396442D01*
X125609776Y-39308684D01*
X126004844Y-39230100D01*
X126407656Y-39230100D01*
X126802724Y-39308684D01*
X126802724Y-39308684D01*
G37*
G36*
X71323468Y-41678565D02*
G01*
X71362138Y-41690296D01*
X71397777Y-41709346D01*
X71429017Y-41734983D01*
X71454654Y-41766223D01*
X71473704Y-41801862D01*
X71485435Y-41840532D01*
X71490000Y-41886888D01*
X71490000Y-42538112D01*
X71485435Y-42584468D01*
X71473704Y-42623138D01*
X71454654Y-42658777D01*
X71429017Y-42690017D01*
X71397777Y-42715654D01*
X71362138Y-42734704D01*
X71323468Y-42746435D01*
X71277112Y-42751000D01*
X70200888Y-42751000D01*
X70154532Y-42746435D01*
X70115862Y-42734704D01*
X70080223Y-42715654D01*
X70048983Y-42690017D01*
X70023346Y-42658777D01*
X70004296Y-42623138D01*
X69992565Y-42584468D01*
X69988000Y-42538112D01*
X69988000Y-41886888D01*
X69992565Y-41840532D01*
X70004296Y-41801862D01*
X70023346Y-41766223D01*
X70048983Y-41734983D01*
X70080223Y-41709346D01*
X70115862Y-41690296D01*
X70154532Y-41678565D01*
X70200888Y-41674000D01*
X71277112Y-41674000D01*
X71323468Y-41678565D01*
X71323468Y-41678565D01*
G37*
G36*
X74752468Y-41551565D02*
G01*
X74791138Y-41563296D01*
X74826777Y-41582346D01*
X74858017Y-41607983D01*
X74883654Y-41639223D01*
X74902704Y-41674862D01*
X74914435Y-41713532D01*
X74919000Y-41759888D01*
X74919000Y-42411112D01*
X74914435Y-42457468D01*
X74902704Y-42496138D01*
X74883654Y-42531777D01*
X74858017Y-42563017D01*
X74826777Y-42588654D01*
X74791138Y-42607704D01*
X74752468Y-42619435D01*
X74706112Y-42624000D01*
X73629888Y-42624000D01*
X73583532Y-42619435D01*
X73544862Y-42607704D01*
X73509223Y-42588654D01*
X73477983Y-42563017D01*
X73452346Y-42531777D01*
X73433296Y-42496138D01*
X73421565Y-42457468D01*
X73417000Y-42411112D01*
X73417000Y-41759888D01*
X73421565Y-41713532D01*
X73433296Y-41674862D01*
X73452346Y-41639223D01*
X73477983Y-41607983D01*
X73509223Y-41582346D01*
X73544862Y-41563296D01*
X73583532Y-41551565D01*
X73629888Y-41547000D01*
X74706112Y-41547000D01*
X74752468Y-41551565D01*
X74752468Y-41551565D01*
G37*
G36*
X61544468Y-41454565D02*
G01*
X61583138Y-41466296D01*
X61618777Y-41485346D01*
X61650017Y-41510983D01*
X61675654Y-41542223D01*
X61694704Y-41577862D01*
X61706435Y-41616532D01*
X61711000Y-41662888D01*
X61711000Y-42314112D01*
X61706435Y-42360468D01*
X61694704Y-42399138D01*
X61675654Y-42434777D01*
X61650017Y-42466017D01*
X61618777Y-42491654D01*
X61583138Y-42510704D01*
X61544468Y-42522435D01*
X61498112Y-42527000D01*
X60421888Y-42527000D01*
X60375532Y-42522435D01*
X60336862Y-42510704D01*
X60301223Y-42491654D01*
X60269983Y-42466017D01*
X60244346Y-42434777D01*
X60225296Y-42399138D01*
X60213565Y-42360468D01*
X60209000Y-42314112D01*
X60209000Y-41662888D01*
X60213565Y-41616532D01*
X60225296Y-41577862D01*
X60244346Y-41542223D01*
X60269983Y-41510983D01*
X60301223Y-41485346D01*
X60336862Y-41466296D01*
X60375532Y-41454565D01*
X60421888Y-41450000D01*
X61498112Y-41450000D01*
X61544468Y-41454565D01*
X61544468Y-41454565D01*
G37*
G36*
X64719468Y-41454565D02*
G01*
X64758138Y-41466296D01*
X64793777Y-41485346D01*
X64825017Y-41510983D01*
X64850654Y-41542223D01*
X64869704Y-41577862D01*
X64881435Y-41616532D01*
X64886000Y-41662888D01*
X64886000Y-42314112D01*
X64881435Y-42360468D01*
X64869704Y-42399138D01*
X64850654Y-42434777D01*
X64825017Y-42466017D01*
X64793777Y-42491654D01*
X64758138Y-42510704D01*
X64719468Y-42522435D01*
X64673112Y-42527000D01*
X63596888Y-42527000D01*
X63550532Y-42522435D01*
X63511862Y-42510704D01*
X63476223Y-42491654D01*
X63444983Y-42466017D01*
X63419346Y-42434777D01*
X63400296Y-42399138D01*
X63388565Y-42360468D01*
X63384000Y-42314112D01*
X63384000Y-41662888D01*
X63388565Y-41616532D01*
X63400296Y-41577862D01*
X63419346Y-41542223D01*
X63444983Y-41510983D01*
X63476223Y-41485346D01*
X63511862Y-41466296D01*
X63550532Y-41454565D01*
X63596888Y-41450000D01*
X64673112Y-41450000D01*
X64719468Y-41454565D01*
X64719468Y-41454565D01*
G37*
G36*
X112506354Y-40384585D02*
G01*
X112674876Y-40454389D01*
X112826541Y-40555728D01*
X112955522Y-40684709D01*
X113056861Y-40836374D01*
X113126665Y-41004896D01*
X113162250Y-41183797D01*
X113162250Y-41366203D01*
X113126665Y-41545104D01*
X113056861Y-41713626D01*
X112955522Y-41865291D01*
X112826541Y-41994272D01*
X112674876Y-42095611D01*
X112506354Y-42165415D01*
X112327453Y-42201000D01*
X112145047Y-42201000D01*
X111966146Y-42165415D01*
X111797624Y-42095611D01*
X111645959Y-41994272D01*
X111516978Y-41865291D01*
X111415639Y-41713626D01*
X111345835Y-41545104D01*
X111310250Y-41366203D01*
X111310250Y-41183797D01*
X111345835Y-41004896D01*
X111415639Y-40836374D01*
X111516978Y-40684709D01*
X111645959Y-40555728D01*
X111797624Y-40454389D01*
X111966146Y-40384585D01*
X112145047Y-40349000D01*
X112327453Y-40349000D01*
X112506354Y-40384585D01*
X112506354Y-40384585D01*
G37*
G36*
X102346354Y-40384585D02*
G01*
X102514876Y-40454389D01*
X102666541Y-40555728D01*
X102795522Y-40684709D01*
X102896861Y-40836374D01*
X102966665Y-41004896D01*
X103002250Y-41183797D01*
X103002250Y-41366203D01*
X102966665Y-41545104D01*
X102896861Y-41713626D01*
X102795522Y-41865291D01*
X102666541Y-41994272D01*
X102514876Y-42095611D01*
X102346354Y-42165415D01*
X102167453Y-42201000D01*
X101985047Y-42201000D01*
X101806146Y-42165415D01*
X101637624Y-42095611D01*
X101485959Y-41994272D01*
X101356978Y-41865291D01*
X101255639Y-41713626D01*
X101185835Y-41545104D01*
X101150250Y-41366203D01*
X101150250Y-41183797D01*
X101185835Y-41004896D01*
X101255639Y-40836374D01*
X101356978Y-40684709D01*
X101485959Y-40555728D01*
X101637624Y-40454389D01*
X101806146Y-40384585D01*
X101985047Y-40349000D01*
X102167453Y-40349000D01*
X102346354Y-40384585D01*
X102346354Y-40384585D01*
G37*
G36*
X131556354Y-40384585D02*
G01*
X131724876Y-40454389D01*
X131876541Y-40555728D01*
X132005522Y-40684709D01*
X132106861Y-40836374D01*
X132176665Y-41004896D01*
X132212250Y-41183797D01*
X132212250Y-41366203D01*
X132176665Y-41545104D01*
X132106861Y-41713626D01*
X132005522Y-41865291D01*
X131876541Y-41994272D01*
X131724876Y-42095611D01*
X131556354Y-42165415D01*
X131377453Y-42201000D01*
X131195047Y-42201000D01*
X131016146Y-42165415D01*
X130847624Y-42095611D01*
X130695959Y-41994272D01*
X130566978Y-41865291D01*
X130465639Y-41713626D01*
X130395835Y-41545104D01*
X130360250Y-41366203D01*
X130360250Y-41183797D01*
X130395835Y-41004896D01*
X130465639Y-40836374D01*
X130566978Y-40684709D01*
X130695959Y-40555728D01*
X130847624Y-40454389D01*
X131016146Y-40384585D01*
X131195047Y-40349000D01*
X131377453Y-40349000D01*
X131556354Y-40384585D01*
X131556354Y-40384585D01*
G37*
G36*
X121396354Y-40384585D02*
G01*
X121564876Y-40454389D01*
X121716541Y-40555728D01*
X121845522Y-40684709D01*
X121946861Y-40836374D01*
X122016665Y-41004896D01*
X122052250Y-41183797D01*
X122052250Y-41366203D01*
X122016665Y-41545104D01*
X121946861Y-41713626D01*
X121845522Y-41865291D01*
X121716541Y-41994272D01*
X121564876Y-42095611D01*
X121396354Y-42165415D01*
X121217453Y-42201000D01*
X121035047Y-42201000D01*
X120856146Y-42165415D01*
X120687624Y-42095611D01*
X120535959Y-41994272D01*
X120406978Y-41865291D01*
X120305639Y-41713626D01*
X120235835Y-41545104D01*
X120200250Y-41366203D01*
X120200250Y-41183797D01*
X120235835Y-41004896D01*
X120305639Y-40836374D01*
X120406978Y-40684709D01*
X120535959Y-40555728D01*
X120687624Y-40454389D01*
X120856146Y-40384585D01*
X121035047Y-40349000D01*
X121217453Y-40349000D01*
X121396354Y-40384585D01*
X121396354Y-40384585D01*
G37*
G36*
X71323468Y-39803565D02*
G01*
X71362138Y-39815296D01*
X71397777Y-39834346D01*
X71429017Y-39859983D01*
X71454654Y-39891223D01*
X71473704Y-39926862D01*
X71485435Y-39965532D01*
X71490000Y-40011888D01*
X71490000Y-40663112D01*
X71485435Y-40709468D01*
X71473704Y-40748138D01*
X71454654Y-40783777D01*
X71429017Y-40815017D01*
X71397777Y-40840654D01*
X71362138Y-40859704D01*
X71323468Y-40871435D01*
X71277112Y-40876000D01*
X70200888Y-40876000D01*
X70154532Y-40871435D01*
X70115862Y-40859704D01*
X70080223Y-40840654D01*
X70048983Y-40815017D01*
X70023346Y-40783777D01*
X70004296Y-40748138D01*
X69992565Y-40709468D01*
X69988000Y-40663112D01*
X69988000Y-40011888D01*
X69992565Y-39965532D01*
X70004296Y-39926862D01*
X70023346Y-39891223D01*
X70048983Y-39859983D01*
X70080223Y-39834346D01*
X70115862Y-39815296D01*
X70154532Y-39803565D01*
X70200888Y-39799000D01*
X71277112Y-39799000D01*
X71323468Y-39803565D01*
X71323468Y-39803565D01*
G37*
G36*
X74752468Y-39676565D02*
G01*
X74791138Y-39688296D01*
X74826777Y-39707346D01*
X74858017Y-39732983D01*
X74883654Y-39764223D01*
X74902704Y-39799862D01*
X74914435Y-39838532D01*
X74919000Y-39884888D01*
X74919000Y-40536112D01*
X74914435Y-40582468D01*
X74902704Y-40621138D01*
X74883654Y-40656777D01*
X74858017Y-40688017D01*
X74826777Y-40713654D01*
X74791138Y-40732704D01*
X74752468Y-40744435D01*
X74706112Y-40749000D01*
X73629888Y-40749000D01*
X73583532Y-40744435D01*
X73544862Y-40732704D01*
X73509223Y-40713654D01*
X73477983Y-40688017D01*
X73452346Y-40656777D01*
X73433296Y-40621138D01*
X73421565Y-40582468D01*
X73417000Y-40536112D01*
X73417000Y-39884888D01*
X73421565Y-39838532D01*
X73433296Y-39799862D01*
X73452346Y-39764223D01*
X73477983Y-39732983D01*
X73509223Y-39707346D01*
X73544862Y-39688296D01*
X73583532Y-39676565D01*
X73629888Y-39672000D01*
X74706112Y-39672000D01*
X74752468Y-39676565D01*
X74752468Y-39676565D01*
G37*
G36*
X115713000Y-40253000D02*
G01*
X114411000Y-40253000D01*
X114411000Y-39251000D01*
X115713000Y-39251000D01*
X115713000Y-40253000D01*
X115713000Y-40253000D01*
G37*
G36*
X134890000Y-40253000D02*
G01*
X133588000Y-40253000D01*
X133588000Y-39251000D01*
X134890000Y-39251000D01*
X134890000Y-40253000D01*
X134890000Y-40253000D01*
G37*
G36*
X104679455Y-36098881D02*
G01*
X104684895Y-36099000D01*
X104772078Y-36099000D01*
X104788347Y-36102236D01*
X104807206Y-36104515D01*
X104823782Y-36105246D01*
X104908473Y-36126010D01*
X104913768Y-36127184D01*
X104999277Y-36144193D01*
X105014612Y-36150545D01*
X105032651Y-36156455D01*
X105048771Y-36160407D01*
X105127754Y-36197280D01*
X105132744Y-36199477D01*
X105213295Y-36232842D01*
X105227091Y-36242060D01*
X105243643Y-36251382D01*
X105258676Y-36258400D01*
X105328944Y-36309971D01*
X105333440Y-36313121D01*
X105357799Y-36329397D01*
X105405906Y-36361541D01*
X105417633Y-36373268D01*
X105432059Y-36385648D01*
X105445429Y-36395461D01*
X105445430Y-36395462D01*
X105504271Y-36459733D01*
X105508079Y-36463714D01*
X105569709Y-36525344D01*
X105578924Y-36539135D01*
X105590646Y-36554078D01*
X105601855Y-36566321D01*
X105647049Y-36640874D01*
X105649996Y-36645501D01*
X105675909Y-36684283D01*
X105698408Y-36717955D01*
X105704755Y-36733277D01*
X105713342Y-36750231D01*
X105721941Y-36764417D01*
X105751728Y-36846368D01*
X105753702Y-36851448D01*
X105785319Y-36927778D01*
X105787057Y-36931974D01*
X105790291Y-36948233D01*
X105795408Y-36966542D01*
X105801075Y-36982134D01*
X105814305Y-37068345D01*
X105815251Y-37073713D01*
X105832250Y-37159173D01*
X105832250Y-37175752D01*
X105833694Y-37194692D01*
X105836213Y-37211104D01*
X105832370Y-37298249D01*
X105832250Y-37303689D01*
X105832250Y-37390825D01*
X105829016Y-37407083D01*
X105826738Y-37425941D01*
X105826006Y-37442531D01*
X105805238Y-37527237D01*
X105804062Y-37532537D01*
X105787057Y-37618027D01*
X105780707Y-37633357D01*
X105774799Y-37651393D01*
X105770845Y-37667520D01*
X105733961Y-37746526D01*
X105731761Y-37751523D01*
X105698408Y-37832045D01*
X105689194Y-37845835D01*
X105679872Y-37862387D01*
X105672852Y-37877424D01*
X105621261Y-37947720D01*
X105618116Y-37952210D01*
X105569711Y-38024654D01*
X105512710Y-38081655D01*
X105508061Y-38086563D01*
X105076561Y-38567470D01*
X104182973Y-39563376D01*
X104054929Y-39680602D01*
X103968521Y-39732983D01*
X103856833Y-39800689D01*
X103639116Y-39879823D01*
X103410145Y-39914961D01*
X103178720Y-39904754D01*
X102953731Y-39849593D01*
X102856442Y-39804174D01*
X102743829Y-39751602D01*
X102663293Y-39692495D01*
X102557073Y-39614539D01*
X102482644Y-39533241D01*
X102400648Y-39443679D01*
X102318814Y-39308685D01*
X102280561Y-39245583D01*
X102201427Y-39027866D01*
X102166289Y-38798895D01*
X102176496Y-38567470D01*
X102231657Y-38342481D01*
X102296359Y-38203888D01*
X102329648Y-38132580D01*
X102347165Y-38108712D01*
X102432364Y-37992622D01*
X103165310Y-37175752D01*
X103719037Y-36558621D01*
X103729931Y-36544589D01*
X103742789Y-36525346D01*
X103799823Y-36468312D01*
X103804473Y-36463403D01*
X103819528Y-36446624D01*
X103840951Y-36427011D01*
X103844932Y-36423203D01*
X103906596Y-36361539D01*
X103920393Y-36352320D01*
X103935352Y-36340585D01*
X103947571Y-36329398D01*
X103979635Y-36309961D01*
X104022080Y-36284231D01*
X104026671Y-36281308D01*
X104099205Y-36232842D01*
X104114550Y-36226486D01*
X104131498Y-36217901D01*
X104145666Y-36209312D01*
X104145667Y-36209312D01*
X104145668Y-36209311D01*
X104227562Y-36179545D01*
X104232660Y-36177563D01*
X104313223Y-36144193D01*
X104329502Y-36140955D01*
X104347792Y-36135844D01*
X104363385Y-36130177D01*
X104449550Y-36116954D01*
X104454913Y-36116009D01*
X104540423Y-36099000D01*
X104557016Y-36099000D01*
X104575959Y-36097555D01*
X104592356Y-36095039D01*
X104679455Y-36098881D01*
X104679455Y-36098881D01*
G37*
G36*
X123729455Y-36098881D02*
G01*
X123734895Y-36099000D01*
X123822078Y-36099000D01*
X123838347Y-36102236D01*
X123857206Y-36104515D01*
X123873782Y-36105246D01*
X123958473Y-36126010D01*
X123963768Y-36127184D01*
X124049277Y-36144193D01*
X124064612Y-36150545D01*
X124082651Y-36156455D01*
X124098771Y-36160407D01*
X124177754Y-36197280D01*
X124182744Y-36199477D01*
X124263295Y-36232842D01*
X124277091Y-36242060D01*
X124293643Y-36251382D01*
X124308676Y-36258400D01*
X124378944Y-36309971D01*
X124383440Y-36313121D01*
X124407799Y-36329397D01*
X124455906Y-36361541D01*
X124467633Y-36373268D01*
X124482059Y-36385648D01*
X124495429Y-36395461D01*
X124495430Y-36395462D01*
X124554271Y-36459733D01*
X124558079Y-36463714D01*
X124619709Y-36525344D01*
X124628924Y-36539135D01*
X124640646Y-36554078D01*
X124651855Y-36566321D01*
X124697049Y-36640874D01*
X124699996Y-36645501D01*
X124725909Y-36684283D01*
X124748408Y-36717955D01*
X124754755Y-36733277D01*
X124763342Y-36750231D01*
X124771941Y-36764417D01*
X124801728Y-36846368D01*
X124803702Y-36851448D01*
X124835319Y-36927778D01*
X124837057Y-36931974D01*
X124840291Y-36948233D01*
X124845408Y-36966542D01*
X124851075Y-36982134D01*
X124864305Y-37068345D01*
X124865251Y-37073713D01*
X124882250Y-37159173D01*
X124882250Y-37175752D01*
X124883694Y-37194692D01*
X124886213Y-37211104D01*
X124882370Y-37298249D01*
X124882250Y-37303689D01*
X124882250Y-37390825D01*
X124879016Y-37407083D01*
X124876738Y-37425941D01*
X124876006Y-37442531D01*
X124855238Y-37527237D01*
X124854062Y-37532537D01*
X124837057Y-37618027D01*
X124830707Y-37633357D01*
X124824799Y-37651393D01*
X124820845Y-37667520D01*
X124783961Y-37746526D01*
X124781761Y-37751523D01*
X124748408Y-37832045D01*
X124739194Y-37845835D01*
X124729872Y-37862387D01*
X124722852Y-37877424D01*
X124671261Y-37947720D01*
X124668116Y-37952210D01*
X124619711Y-38024654D01*
X124562710Y-38081655D01*
X124558061Y-38086563D01*
X124126561Y-38567470D01*
X123232973Y-39563376D01*
X123104929Y-39680602D01*
X123018521Y-39732983D01*
X122906833Y-39800689D01*
X122689116Y-39879823D01*
X122460145Y-39914961D01*
X122228720Y-39904754D01*
X122003731Y-39849593D01*
X121906442Y-39804174D01*
X121793829Y-39751602D01*
X121713293Y-39692495D01*
X121607073Y-39614539D01*
X121532644Y-39533241D01*
X121450648Y-39443679D01*
X121368814Y-39308685D01*
X121330561Y-39245583D01*
X121251427Y-39027866D01*
X121216289Y-38798895D01*
X121226496Y-38567470D01*
X121281657Y-38342481D01*
X121346359Y-38203888D01*
X121379648Y-38132580D01*
X121397165Y-38108712D01*
X121482364Y-37992622D01*
X122215310Y-37175752D01*
X122769037Y-36558621D01*
X122779931Y-36544589D01*
X122792789Y-36525346D01*
X122849823Y-36468312D01*
X122854473Y-36463403D01*
X122869528Y-36446624D01*
X122890951Y-36427011D01*
X122894932Y-36423203D01*
X122956596Y-36361539D01*
X122970393Y-36352320D01*
X122985352Y-36340585D01*
X122997571Y-36329398D01*
X123029635Y-36309961D01*
X123072080Y-36284231D01*
X123076671Y-36281308D01*
X123149205Y-36232842D01*
X123164550Y-36226486D01*
X123181498Y-36217901D01*
X123195666Y-36209312D01*
X123195667Y-36209312D01*
X123195668Y-36209311D01*
X123277562Y-36179545D01*
X123282660Y-36177563D01*
X123363223Y-36144193D01*
X123379502Y-36140955D01*
X123397792Y-36135844D01*
X123413385Y-36130177D01*
X123499550Y-36116954D01*
X123504913Y-36116009D01*
X123590423Y-36099000D01*
X123607016Y-36099000D01*
X123625959Y-36097555D01*
X123642356Y-36095039D01*
X123729455Y-36098881D01*
X123729455Y-36098881D01*
G37*
G36*
X66756627Y-36672037D02*
G01*
X66926466Y-36723557D01*
X66926468Y-36723558D01*
X66979763Y-36752045D01*
X67082991Y-36807222D01*
X67118729Y-36836552D01*
X67220186Y-36919814D01*
X67299646Y-37016638D01*
X67332778Y-37057009D01*
X67416443Y-37213534D01*
X67467963Y-37383373D01*
X67481000Y-37515742D01*
X67481000Y-38604258D01*
X67467963Y-38736627D01*
X67416443Y-38906466D01*
X67332778Y-39062991D01*
X67328667Y-39068000D01*
X67220186Y-39200186D01*
X67082989Y-39312779D01*
X66926467Y-39396442D01*
X66926465Y-39396443D01*
X66756626Y-39447963D01*
X66580000Y-39465359D01*
X66403373Y-39447963D01*
X66233534Y-39396443D01*
X66077009Y-39312778D01*
X66041271Y-39283448D01*
X65939814Y-39200186D01*
X65827221Y-39062989D01*
X65743558Y-38906467D01*
X65743557Y-38906465D01*
X65692037Y-38736626D01*
X65679000Y-38604257D01*
X65679001Y-37515742D01*
X65692038Y-37383373D01*
X65743558Y-37213534D01*
X65827223Y-37057009D01*
X65860355Y-37016638D01*
X65939815Y-36919814D01*
X66041272Y-36836552D01*
X66077010Y-36807222D01*
X66180238Y-36752045D01*
X66233533Y-36723558D01*
X66233535Y-36723557D01*
X66403374Y-36672037D01*
X66580000Y-36654641D01*
X66756627Y-36672037D01*
X66756627Y-36672037D01*
G37*
G36*
X59456627Y-36672037D02*
G01*
X59626466Y-36723557D01*
X59626468Y-36723558D01*
X59679763Y-36752045D01*
X59782991Y-36807222D01*
X59818729Y-36836552D01*
X59920186Y-36919814D01*
X59999646Y-37016638D01*
X60032778Y-37057009D01*
X60116443Y-37213534D01*
X60167963Y-37383373D01*
X60181000Y-37515742D01*
X60181000Y-38604258D01*
X60167963Y-38736627D01*
X60116443Y-38906466D01*
X60032778Y-39062991D01*
X60028667Y-39068000D01*
X59920186Y-39200186D01*
X59782989Y-39312779D01*
X59626467Y-39396442D01*
X59626465Y-39396443D01*
X59456626Y-39447963D01*
X59280000Y-39465359D01*
X59103373Y-39447963D01*
X58933534Y-39396443D01*
X58777009Y-39312778D01*
X58741271Y-39283448D01*
X58639814Y-39200186D01*
X58527221Y-39062989D01*
X58443558Y-38906467D01*
X58443557Y-38906465D01*
X58392037Y-38736626D01*
X58379000Y-38604257D01*
X58379001Y-37515742D01*
X58392038Y-37383373D01*
X58443558Y-37213534D01*
X58527223Y-37057009D01*
X58560355Y-37016638D01*
X58639815Y-36919814D01*
X58741272Y-36836552D01*
X58777010Y-36807222D01*
X58880238Y-36752045D01*
X58933533Y-36723558D01*
X58933535Y-36723557D01*
X59103374Y-36672037D01*
X59280000Y-36654641D01*
X59456627Y-36672037D01*
X59456627Y-36672037D01*
G37*
G36*
X64831000Y-39236000D02*
G01*
X61029000Y-39236000D01*
X61029000Y-36884000D01*
X64831000Y-36884000D01*
X64831000Y-39236000D01*
X64831000Y-39236000D01*
G37*
G36*
X87833468Y-37995565D02*
G01*
X87872138Y-38007296D01*
X87907777Y-38026346D01*
X87939017Y-38051983D01*
X87964654Y-38083223D01*
X87983704Y-38118862D01*
X87995435Y-38157532D01*
X88000000Y-38203888D01*
X88000000Y-38855112D01*
X87995435Y-38901468D01*
X87983704Y-38940138D01*
X87964654Y-38975777D01*
X87939017Y-39007017D01*
X87907777Y-39032654D01*
X87872138Y-39051704D01*
X87833468Y-39063435D01*
X87787112Y-39068000D01*
X86710888Y-39068000D01*
X86664532Y-39063435D01*
X86625862Y-39051704D01*
X86590223Y-39032654D01*
X86558983Y-39007017D01*
X86533346Y-38975777D01*
X86514296Y-38940138D01*
X86502565Y-38901468D01*
X86498000Y-38855112D01*
X86498000Y-38203888D01*
X86502565Y-38157532D01*
X86514296Y-38118862D01*
X86533346Y-38083223D01*
X86558983Y-38051983D01*
X86590223Y-38026346D01*
X86625862Y-38007296D01*
X86664532Y-37995565D01*
X86710888Y-37991000D01*
X87787112Y-37991000D01*
X87833468Y-37995565D01*
X87833468Y-37995565D01*
G37*
G36*
X77292468Y-37947065D02*
G01*
X77331138Y-37958796D01*
X77366777Y-37977846D01*
X77398017Y-38003483D01*
X77423654Y-38034723D01*
X77442704Y-38070362D01*
X77454435Y-38109032D01*
X77459000Y-38155388D01*
X77459000Y-38806612D01*
X77454435Y-38852968D01*
X77442704Y-38891638D01*
X77423654Y-38927277D01*
X77398017Y-38958517D01*
X77366777Y-38984154D01*
X77331138Y-39003204D01*
X77292468Y-39014935D01*
X77246112Y-39019500D01*
X76169888Y-39019500D01*
X76123532Y-39014935D01*
X76084862Y-39003204D01*
X76049223Y-38984154D01*
X76017983Y-38958517D01*
X75992346Y-38927277D01*
X75973296Y-38891638D01*
X75961565Y-38852968D01*
X75957000Y-38806612D01*
X75957000Y-38155388D01*
X75961565Y-38109032D01*
X75973296Y-38070362D01*
X75992346Y-38034723D01*
X76017983Y-38003483D01*
X76049223Y-37977846D01*
X76084862Y-37958796D01*
X76123532Y-37947065D01*
X76169888Y-37942500D01*
X77246112Y-37942500D01*
X77292468Y-37947065D01*
X77292468Y-37947065D01*
G37*
G36*
X83639000Y-38966000D02*
G01*
X82137000Y-38966000D01*
X82137000Y-37664000D01*
X83639000Y-37664000D01*
X83639000Y-38966000D01*
X83639000Y-38966000D01*
G37*
G36*
X81439000Y-38966000D02*
G01*
X79937000Y-38966000D01*
X79937000Y-37664000D01*
X81439000Y-37664000D01*
X81439000Y-38966000D01*
X81439000Y-38966000D01*
G37*
G36*
X109784377Y-35017261D02*
G01*
X109805150Y-35019000D01*
X109812077Y-35019000D01*
X109907004Y-35037882D01*
X109910598Y-35038542D01*
X110005980Y-35054624D01*
X110012453Y-35057085D01*
X110032478Y-35062841D01*
X110039277Y-35064193D01*
X110101664Y-35090034D01*
X110128693Y-35101230D01*
X110132094Y-35102581D01*
X110222505Y-35136961D01*
X110228377Y-35140640D01*
X110246886Y-35150187D01*
X110253295Y-35152842D01*
X110333813Y-35206642D01*
X110336804Y-35208578D01*
X110418807Y-35259959D01*
X110423834Y-35264700D01*
X110440146Y-35277691D01*
X110445902Y-35281537D01*
X110514360Y-35349995D01*
X110516939Y-35352499D01*
X110587340Y-35418889D01*
X110591345Y-35424519D01*
X110604809Y-35440444D01*
X110609709Y-35445344D01*
X110663494Y-35525839D01*
X110665541Y-35528807D01*
X110721630Y-35607645D01*
X110724464Y-35613958D01*
X110734558Y-35632193D01*
X110738408Y-35637955D01*
X110775470Y-35727430D01*
X110776874Y-35730685D01*
X110816515Y-35818973D01*
X110818065Y-35825725D01*
X110824402Y-35845562D01*
X110827057Y-35851973D01*
X110845942Y-35946917D01*
X110846688Y-35950401D01*
X110868348Y-36044751D01*
X110868348Y-36044754D01*
X110868550Y-36051654D01*
X110870897Y-36072370D01*
X110872250Y-36079174D01*
X110872250Y-36175986D01*
X110872303Y-36179584D01*
X110873438Y-36218277D01*
X110872545Y-36231225D01*
X110872250Y-36239797D01*
X110872250Y-36310826D01*
X110866331Y-36340585D01*
X110865854Y-36342979D01*
X110863750Y-36358750D01*
X110825488Y-36913545D01*
X110796626Y-37084730D01*
X110714288Y-37301255D01*
X110591291Y-37497557D01*
X110432361Y-37666090D01*
X110243605Y-37800380D01*
X110032277Y-37895265D01*
X109806499Y-37947098D01*
X109574948Y-37953889D01*
X109574947Y-37953889D01*
X109507398Y-37942500D01*
X109346520Y-37915376D01*
X109129995Y-37833038D01*
X108933693Y-37710041D01*
X108765160Y-37551111D01*
X108630870Y-37362355D01*
X108535985Y-37151027D01*
X108484152Y-36925249D01*
X108479062Y-36751723D01*
X108519954Y-36158794D01*
X108520250Y-36150196D01*
X108520250Y-36079175D01*
X108539132Y-35984250D01*
X108539794Y-35980645D01*
X108545481Y-35946917D01*
X108555874Y-35885270D01*
X108558335Y-35878799D01*
X108564092Y-35858767D01*
X108565443Y-35851974D01*
X108568093Y-35845576D01*
X108602514Y-35762476D01*
X108603803Y-35759230D01*
X108638212Y-35668745D01*
X108641886Y-35662881D01*
X108651437Y-35644365D01*
X108654092Y-35637955D01*
X108707907Y-35557415D01*
X108709827Y-35554449D01*
X108761209Y-35472443D01*
X108765961Y-35467404D01*
X108778939Y-35451107D01*
X108782787Y-35445348D01*
X108851243Y-35376892D01*
X108853796Y-35374262D01*
X108874273Y-35352548D01*
X108920139Y-35303910D01*
X108925771Y-35299903D01*
X108941697Y-35286438D01*
X108946596Y-35281539D01*
X109027074Y-35227766D01*
X109030056Y-35225710D01*
X109108895Y-35169620D01*
X109115205Y-35166787D01*
X109133444Y-35156691D01*
X109139201Y-35152844D01*
X109139204Y-35152843D01*
X109139205Y-35152842D01*
X109228679Y-35115781D01*
X109231937Y-35114375D01*
X109320223Y-35074735D01*
X109326975Y-35073185D01*
X109346812Y-35066848D01*
X109353223Y-35064193D01*
X109448149Y-35045311D01*
X109451696Y-35044551D01*
X109546001Y-35022901D01*
X109548380Y-35022831D01*
X109552915Y-35022698D01*
X109573631Y-35020351D01*
X109580424Y-35019000D01*
X109677209Y-35019000D01*
X109680834Y-35018947D01*
X109777552Y-35016110D01*
X109784377Y-35017261D01*
X109784377Y-35017261D01*
G37*
G36*
X128834377Y-35017261D02*
G01*
X128855150Y-35019000D01*
X128862077Y-35019000D01*
X128957004Y-35037882D01*
X128960598Y-35038542D01*
X129055980Y-35054624D01*
X129062453Y-35057085D01*
X129082478Y-35062841D01*
X129089277Y-35064193D01*
X129151664Y-35090034D01*
X129178693Y-35101230D01*
X129182094Y-35102581D01*
X129272505Y-35136961D01*
X129278377Y-35140640D01*
X129296886Y-35150187D01*
X129303295Y-35152842D01*
X129383813Y-35206642D01*
X129386804Y-35208578D01*
X129468807Y-35259959D01*
X129473834Y-35264700D01*
X129490146Y-35277691D01*
X129495902Y-35281537D01*
X129564360Y-35349995D01*
X129566939Y-35352499D01*
X129637340Y-35418889D01*
X129641345Y-35424519D01*
X129654809Y-35440444D01*
X129659709Y-35445344D01*
X129713494Y-35525839D01*
X129715541Y-35528807D01*
X129771630Y-35607645D01*
X129774464Y-35613958D01*
X129784558Y-35632193D01*
X129788408Y-35637955D01*
X129825470Y-35727430D01*
X129826874Y-35730685D01*
X129866515Y-35818973D01*
X129868065Y-35825725D01*
X129874402Y-35845562D01*
X129877057Y-35851973D01*
X129895942Y-35946917D01*
X129896688Y-35950401D01*
X129918348Y-36044751D01*
X129918348Y-36044754D01*
X129918550Y-36051654D01*
X129920897Y-36072370D01*
X129922250Y-36079174D01*
X129922250Y-36175986D01*
X129922303Y-36179584D01*
X129923438Y-36218277D01*
X129922545Y-36231225D01*
X129922250Y-36239797D01*
X129922250Y-36310826D01*
X129916331Y-36340585D01*
X129915854Y-36342979D01*
X129913750Y-36358750D01*
X129875488Y-36913545D01*
X129846626Y-37084730D01*
X129764288Y-37301255D01*
X129641291Y-37497557D01*
X129482361Y-37666090D01*
X129293605Y-37800380D01*
X129082277Y-37895265D01*
X128856499Y-37947098D01*
X128624948Y-37953889D01*
X128624947Y-37953889D01*
X128557398Y-37942500D01*
X128396520Y-37915376D01*
X128179995Y-37833038D01*
X127983693Y-37710041D01*
X127815160Y-37551111D01*
X127680870Y-37362355D01*
X127585985Y-37151027D01*
X127534152Y-36925249D01*
X127529062Y-36751723D01*
X127569954Y-36158794D01*
X127570250Y-36150196D01*
X127570250Y-36079175D01*
X127589132Y-35984250D01*
X127589794Y-35980645D01*
X127595481Y-35946917D01*
X127605874Y-35885270D01*
X127608335Y-35878799D01*
X127614092Y-35858767D01*
X127615443Y-35851974D01*
X127618093Y-35845576D01*
X127652514Y-35762476D01*
X127653803Y-35759230D01*
X127688212Y-35668745D01*
X127691886Y-35662881D01*
X127701437Y-35644365D01*
X127704092Y-35637955D01*
X127757907Y-35557415D01*
X127759827Y-35554449D01*
X127811209Y-35472443D01*
X127815961Y-35467404D01*
X127828939Y-35451107D01*
X127832787Y-35445348D01*
X127901243Y-35376892D01*
X127903796Y-35374262D01*
X127924273Y-35352548D01*
X127970139Y-35303910D01*
X127975771Y-35299903D01*
X127991697Y-35286438D01*
X127996596Y-35281539D01*
X128077074Y-35227766D01*
X128080056Y-35225710D01*
X128158895Y-35169620D01*
X128165205Y-35166787D01*
X128183444Y-35156691D01*
X128189201Y-35152844D01*
X128189204Y-35152843D01*
X128189205Y-35152842D01*
X128278679Y-35115781D01*
X128281937Y-35114375D01*
X128370223Y-35074735D01*
X128376975Y-35073185D01*
X128396812Y-35066848D01*
X128403223Y-35064193D01*
X128498149Y-35045311D01*
X128501696Y-35044551D01*
X128596001Y-35022901D01*
X128598380Y-35022831D01*
X128602915Y-35022698D01*
X128623631Y-35020351D01*
X128630424Y-35019000D01*
X128727209Y-35019000D01*
X128730834Y-35018947D01*
X128827552Y-35016110D01*
X128834377Y-35017261D01*
X128834377Y-35017261D01*
G37*
G36*
X81439000Y-37266000D02*
G01*
X79937000Y-37266000D01*
X79937000Y-35964000D01*
X81439000Y-35964000D01*
X81439000Y-37266000D01*
X81439000Y-37266000D01*
G37*
G36*
X83639000Y-37266000D02*
G01*
X82137000Y-37266000D01*
X82137000Y-35964000D01*
X83639000Y-35964000D01*
X83639000Y-37266000D01*
X83639000Y-37266000D01*
G37*
G36*
X87833468Y-36120565D02*
G01*
X87872138Y-36132296D01*
X87907777Y-36151346D01*
X87939017Y-36176983D01*
X87964654Y-36208223D01*
X87983704Y-36243862D01*
X87995435Y-36282532D01*
X88000000Y-36328888D01*
X88000000Y-36980112D01*
X87995435Y-37026468D01*
X87983704Y-37065138D01*
X87964654Y-37100777D01*
X87939017Y-37132017D01*
X87907777Y-37157654D01*
X87872138Y-37176704D01*
X87833468Y-37188435D01*
X87787112Y-37193000D01*
X86710888Y-37193000D01*
X86664532Y-37188435D01*
X86625862Y-37176704D01*
X86590223Y-37157654D01*
X86558983Y-37132017D01*
X86533346Y-37100777D01*
X86514296Y-37065138D01*
X86502565Y-37026468D01*
X86498000Y-36980112D01*
X86498000Y-36328888D01*
X86502565Y-36282532D01*
X86514296Y-36243862D01*
X86533346Y-36208223D01*
X86558983Y-36176983D01*
X86590223Y-36151346D01*
X86625862Y-36132296D01*
X86664532Y-36120565D01*
X86710888Y-36116000D01*
X87787112Y-36116000D01*
X87833468Y-36120565D01*
X87833468Y-36120565D01*
G37*
G36*
X77292468Y-36072065D02*
G01*
X77331138Y-36083796D01*
X77366777Y-36102846D01*
X77398017Y-36128483D01*
X77423654Y-36159723D01*
X77442704Y-36195362D01*
X77454435Y-36234032D01*
X77459000Y-36280388D01*
X77459000Y-36931612D01*
X77454435Y-36977968D01*
X77442704Y-37016638D01*
X77423654Y-37052277D01*
X77398017Y-37083517D01*
X77366777Y-37109154D01*
X77331138Y-37128204D01*
X77292468Y-37139935D01*
X77246112Y-37144500D01*
X76169888Y-37144500D01*
X76123532Y-37139935D01*
X76084862Y-37128204D01*
X76049223Y-37109154D01*
X76017983Y-37083517D01*
X75992346Y-37052277D01*
X75973296Y-37016638D01*
X75961565Y-36977968D01*
X75957000Y-36931612D01*
X75957000Y-36280388D01*
X75961565Y-36234032D01*
X75973296Y-36195362D01*
X75992346Y-36159723D01*
X76017983Y-36128483D01*
X76049223Y-36102846D01*
X76084862Y-36083796D01*
X76123532Y-36072065D01*
X76169888Y-36067500D01*
X77246112Y-36067500D01*
X77292468Y-36072065D01*
X77292468Y-36072065D01*
G37*
G36*
X66756627Y-32172037D02*
G01*
X66926466Y-32223557D01*
X67082991Y-32307222D01*
X67118729Y-32336552D01*
X67220186Y-32419814D01*
X67303448Y-32521271D01*
X67332778Y-32557009D01*
X67416443Y-32713534D01*
X67467963Y-32883373D01*
X67481000Y-33015742D01*
X67481000Y-34104258D01*
X67467963Y-34236627D01*
X67416443Y-34406466D01*
X67332778Y-34562991D01*
X67303448Y-34598729D01*
X67220186Y-34700186D01*
X67082989Y-34812779D01*
X66926467Y-34896442D01*
X66926465Y-34896443D01*
X66756626Y-34947963D01*
X66580000Y-34965359D01*
X66403373Y-34947963D01*
X66233534Y-34896443D01*
X66077009Y-34812778D01*
X66041271Y-34783448D01*
X65939814Y-34700186D01*
X65827221Y-34562989D01*
X65743558Y-34406467D01*
X65743557Y-34406465D01*
X65692037Y-34236626D01*
X65679000Y-34104257D01*
X65679001Y-33015742D01*
X65692038Y-32883373D01*
X65743558Y-32713534D01*
X65827223Y-32557009D01*
X65856553Y-32521271D01*
X65939815Y-32419814D01*
X66041272Y-32336552D01*
X66077010Y-32307222D01*
X66233535Y-32223557D01*
X66403374Y-32172037D01*
X66580000Y-32154641D01*
X66756627Y-32172037D01*
X66756627Y-32172037D01*
G37*
G36*
X59456627Y-32172037D02*
G01*
X59626466Y-32223557D01*
X59782991Y-32307222D01*
X59818729Y-32336552D01*
X59920186Y-32419814D01*
X60003448Y-32521271D01*
X60032778Y-32557009D01*
X60116443Y-32713534D01*
X60167963Y-32883373D01*
X60181000Y-33015742D01*
X60181000Y-34104258D01*
X60167963Y-34236627D01*
X60116443Y-34406466D01*
X60032778Y-34562991D01*
X60003448Y-34598729D01*
X59920186Y-34700186D01*
X59782989Y-34812779D01*
X59626467Y-34896442D01*
X59626465Y-34896443D01*
X59456626Y-34947963D01*
X59280000Y-34965359D01*
X59103373Y-34947963D01*
X58933534Y-34896443D01*
X58777009Y-34812778D01*
X58741271Y-34783448D01*
X58639814Y-34700186D01*
X58527221Y-34562989D01*
X58443558Y-34406467D01*
X58443557Y-34406465D01*
X58392037Y-34236626D01*
X58379000Y-34104257D01*
X58379001Y-33015742D01*
X58392038Y-32883373D01*
X58443558Y-32713534D01*
X58527223Y-32557009D01*
X58556553Y-32521271D01*
X58639815Y-32419814D01*
X58741272Y-32336552D01*
X58777010Y-32307222D01*
X58933535Y-32223557D01*
X59103374Y-32172037D01*
X59280000Y-32154641D01*
X59456627Y-32172037D01*
X59456627Y-32172037D01*
G37*
M02*
