G04 #@! TF.GenerationSoftware,KiCad,Pcbnew,(5.1.4)-1*
G04 #@! TF.CreationDate,2021-05-04T15:53:45+02:00*
G04 #@! TF.ProjectId,techo,74656368-6f2e-46b6-9963-61645f706362,rev?*
G04 #@! TF.SameCoordinates,Original*
G04 #@! TF.FileFunction,Copper,L1,Top*
G04 #@! TF.FilePolarity,Positive*
%FSLAX46Y46*%
G04 Gerber Fmt 4.6, Leading zero omitted, Abs format (unit mm)*
G04 Created by KiCad (PCBNEW (5.1.4)-1) date 2021-05-04 15:53:45*
%MOMM*%
%LPD*%
G04 APERTURE LIST*
%ADD10O,1.700000X2.700000*%
%ADD11R,1.905000X1.905000*%
%ADD12C,1.905000*%
%ADD13C,2.250000*%
%ADD14C,2.250000*%
%ADD15C,0.800000*%
%ADD16C,0.381000*%
%ADD17C,0.250000*%
G04 APERTURE END LIST*
D10*
X59280000Y-33560000D03*
X66580000Y-33560000D03*
X66580000Y-38060000D03*
X59280000Y-38060000D03*
D11*
X127476250Y-65405000D03*
D12*
X124936250Y-65405000D03*
D13*
X123706250Y-56325000D03*
X123051251Y-57055000D03*
D14*
X122396250Y-57785000D02*
X123706252Y-56325000D01*
D13*
X128746250Y-55245000D03*
X128726250Y-55535000D03*
D14*
X128706250Y-55825000D02*
X128746250Y-55245000D01*
D11*
X108458000Y-65405000D03*
D12*
X105918000Y-65405000D03*
D13*
X104688000Y-56325000D03*
X104033001Y-57055000D03*
D14*
X103378000Y-57785000D02*
X104688002Y-56325000D01*
D13*
X109728000Y-55245000D03*
X109708000Y-55535000D03*
D14*
X109688000Y-55825000D02*
X109728000Y-55245000D01*
D11*
X127476250Y-46355000D03*
D12*
X124936250Y-46355000D03*
D13*
X123706250Y-37275000D03*
X123051251Y-38005000D03*
D14*
X122396250Y-38735000D02*
X123706252Y-37275000D01*
D13*
X128746250Y-36195000D03*
X128726250Y-36485000D03*
D14*
X128706250Y-36775000D02*
X128746250Y-36195000D01*
D11*
X108426250Y-46355000D03*
D12*
X105886250Y-46355000D03*
D13*
X104656250Y-37275000D03*
X104001251Y-38005000D03*
D14*
X103346250Y-38735000D02*
X104656252Y-37275000D01*
D13*
X109696250Y-36195000D03*
X109676250Y-36485000D03*
D14*
X109656250Y-36775000D02*
X109696250Y-36195000D01*
D15*
X74240000Y-42963000D03*
X74240000Y-44413000D03*
X88392000Y-60833000D03*
X92837000Y-60833000D03*
X75872990Y-58137500D03*
X75946000Y-61214000D03*
X74067000Y-55144000D03*
X74067000Y-48794000D03*
X93091000Y-48260000D03*
X67564000Y-62230000D03*
X68453000Y-40259000D03*
D16*
X74240000Y-42963000D02*
X74240000Y-44378000D01*
X74240000Y-44378000D02*
X74240000Y-44413000D01*
X88392000Y-60833000D02*
X88957685Y-60833000D01*
X88957685Y-60833000D02*
X92837000Y-60833000D01*
X75872990Y-58703185D02*
X75946000Y-58776195D01*
X75872990Y-58137500D02*
X75872990Y-58703185D01*
X75946000Y-58776195D02*
X75946000Y-61214000D01*
X74067000Y-55144000D02*
X74067000Y-48794000D01*
X92837000Y-48514000D02*
X93091000Y-48260000D01*
X92837000Y-60833000D02*
X92837000Y-48514000D01*
D17*
X103378000Y-55015000D02*
X103378000Y-57785000D01*
X103346250Y-54983250D02*
X103378000Y-55015000D01*
X103346250Y-38735000D02*
X103346250Y-54983250D01*
X122396250Y-38735000D02*
X122396250Y-57785000D01*
X67564000Y-61664315D02*
X68453000Y-60775315D01*
X67564000Y-62230000D02*
X67564000Y-61664315D01*
X68453000Y-60775315D02*
X68453000Y-40259000D01*
M02*
