G04 #@! TF.GenerationSoftware,KiCad,Pcbnew,(5.1.4)-1*
G04 #@! TF.CreationDate,2021-05-04T15:53:45+02:00*
G04 #@! TF.ProjectId,techo,74656368-6f2e-46b6-9963-61645f706362,rev?*
G04 #@! TF.SameCoordinates,Original*
G04 #@! TF.FileFunction,Legend,Bot*
G04 #@! TF.FilePolarity,Positive*
%FSLAX46Y46*%
G04 Gerber Fmt 4.6, Leading zero omitted, Abs format (unit mm)*
G04 Created by KiCad (PCBNEW (5.1.4)-1) date 2021-05-04 15:53:45*
%MOMM*%
%LPD*%
G04 APERTURE LIST*
%ADD10C,0.150000*%
%ADD11C,0.120000*%
G04 APERTURE END LIST*
D10*
X59080000Y-33560000D02*
X59080000Y-39010000D01*
X66780000Y-33560000D02*
X66780000Y-39010000D01*
X59080000Y-39010000D02*
X66780000Y-39010000D01*
D11*
X71124578Y-50240000D02*
X70607422Y-50240000D01*
X71124578Y-48820000D02*
X70607422Y-48820000D01*
X83788000Y-39115000D02*
X79788000Y-39115000D01*
X83788000Y-35815000D02*
X83788000Y-39115000D01*
D10*
X76867000Y-55400000D02*
X75592000Y-55400000D01*
X87217000Y-55975000D02*
X86542000Y-55975000D01*
X87217000Y-45625000D02*
X86542000Y-45625000D01*
X76867000Y-45625000D02*
X77542000Y-45625000D01*
X76867000Y-55975000D02*
X77542000Y-55975000D01*
X76867000Y-45625000D02*
X76867000Y-46300000D01*
X87217000Y-45625000D02*
X87217000Y-46300000D01*
X87217000Y-55975000D02*
X87217000Y-55300000D01*
X76867000Y-55975000D02*
X76867000Y-55400000D01*
X65084000Y-61535000D02*
X59884000Y-61535000D01*
X59884000Y-61535000D02*
X59884000Y-66735000D01*
X59884000Y-66735000D02*
X65084000Y-66735000D01*
X65084000Y-66735000D02*
X65084000Y-61535000D01*
X63484000Y-64135000D02*
G75*
G03X63484000Y-64135000I-1000000J0D01*
G01*
D11*
X90349000Y-55806078D02*
X90349000Y-55288922D01*
X91769000Y-55806078D02*
X91769000Y-55288922D01*
X60250000Y-43184578D02*
X60250000Y-42667422D01*
X61670000Y-43184578D02*
X61670000Y-42667422D01*
X63425000Y-43184578D02*
X63425000Y-42667422D01*
X64845000Y-43184578D02*
X64845000Y-42667422D01*
X70029000Y-41533578D02*
X70029000Y-41016422D01*
X71449000Y-41533578D02*
X71449000Y-41016422D01*
X57637000Y-48230064D02*
X57637000Y-47025936D01*
X59457000Y-48230064D02*
X59457000Y-47025936D01*
X135239000Y-62575000D02*
X135239000Y-58675000D01*
X133239000Y-62575000D02*
X133239000Y-58675000D01*
X135239000Y-62575000D02*
X133239000Y-62575000D01*
X116189000Y-62575000D02*
X116189000Y-58675000D01*
X114189000Y-62575000D02*
X114189000Y-58675000D01*
X116189000Y-62575000D02*
X114189000Y-62575000D01*
X135239000Y-43652000D02*
X135239000Y-39752000D01*
X133239000Y-43652000D02*
X133239000Y-39752000D01*
X135239000Y-43652000D02*
X133239000Y-43652000D01*
X116062000Y-43652000D02*
X116062000Y-39752000D01*
X114062000Y-43652000D02*
X114062000Y-39752000D01*
X116062000Y-43652000D02*
X114062000Y-43652000D01*
X72465000Y-56256422D02*
X72465000Y-56773578D01*
X71045000Y-56256422D02*
X71045000Y-56773578D01*
X85983578Y-61543000D02*
X85466422Y-61543000D01*
X85983578Y-60123000D02*
X85466422Y-60123000D01*
X90857000Y-47629578D02*
X90857000Y-47112422D01*
X92277000Y-47629578D02*
X92277000Y-47112422D01*
X73458000Y-41406578D02*
X73458000Y-40889422D01*
X74878000Y-41406578D02*
X74878000Y-40889422D01*
X77418000Y-37284922D02*
X77418000Y-37802078D01*
X75998000Y-37284922D02*
X75998000Y-37802078D01*
X86539000Y-37850578D02*
X86539000Y-37333422D01*
X87959000Y-37850578D02*
X87959000Y-37333422D01*
D10*
X64668095Y-35044380D02*
X64668095Y-35853904D01*
X64620476Y-35949142D01*
X64572857Y-35996761D01*
X64477619Y-36044380D01*
X64287142Y-36044380D01*
X64191904Y-35996761D01*
X64144285Y-35949142D01*
X64096666Y-35853904D01*
X64096666Y-35044380D01*
X63668095Y-35996761D02*
X63525238Y-36044380D01*
X63287142Y-36044380D01*
X63191904Y-35996761D01*
X63144285Y-35949142D01*
X63096666Y-35853904D01*
X63096666Y-35758666D01*
X63144285Y-35663428D01*
X63191904Y-35615809D01*
X63287142Y-35568190D01*
X63477619Y-35520571D01*
X63572857Y-35472952D01*
X63620476Y-35425333D01*
X63668095Y-35330095D01*
X63668095Y-35234857D01*
X63620476Y-35139619D01*
X63572857Y-35092000D01*
X63477619Y-35044380D01*
X63239523Y-35044380D01*
X63096666Y-35092000D01*
X62334761Y-35520571D02*
X62191904Y-35568190D01*
X62144285Y-35615809D01*
X62096666Y-35711047D01*
X62096666Y-35853904D01*
X62144285Y-35949142D01*
X62191904Y-35996761D01*
X62287142Y-36044380D01*
X62668095Y-36044380D01*
X62668095Y-35044380D01*
X62334761Y-35044380D01*
X62239523Y-35092000D01*
X62191904Y-35139619D01*
X62144285Y-35234857D01*
X62144285Y-35330095D01*
X62191904Y-35425333D01*
X62239523Y-35472952D01*
X62334761Y-35520571D01*
X62668095Y-35520571D01*
X61144285Y-36044380D02*
X61715714Y-36044380D01*
X61430000Y-36044380D02*
X61430000Y-35044380D01*
X61525238Y-35187238D01*
X61620476Y-35282476D01*
X61715714Y-35330095D01*
X71032666Y-48237142D02*
X71080285Y-48284761D01*
X71223142Y-48332380D01*
X71318380Y-48332380D01*
X71461238Y-48284761D01*
X71556476Y-48189523D01*
X71604095Y-48094285D01*
X71651714Y-47903809D01*
X71651714Y-47760952D01*
X71604095Y-47570476D01*
X71556476Y-47475238D01*
X71461238Y-47380000D01*
X71318380Y-47332380D01*
X71223142Y-47332380D01*
X71080285Y-47380000D01*
X71032666Y-47427619D01*
X70699333Y-47332380D02*
X70080285Y-47332380D01*
X70413619Y-47713333D01*
X70270761Y-47713333D01*
X70175523Y-47760952D01*
X70127904Y-47808571D01*
X70080285Y-47903809D01*
X70080285Y-48141904D01*
X70127904Y-48237142D01*
X70175523Y-48284761D01*
X70270761Y-48332380D01*
X70556476Y-48332380D01*
X70651714Y-48284761D01*
X70699333Y-48237142D01*
X82264190Y-34991190D02*
X82264190Y-35467380D01*
X82597523Y-34467380D02*
X82264190Y-34991190D01*
X81930857Y-34467380D01*
X81073714Y-35467380D02*
X81645142Y-35467380D01*
X81359428Y-35467380D02*
X81359428Y-34467380D01*
X81454666Y-34610238D01*
X81549904Y-34705476D01*
X81645142Y-34753095D01*
X82803904Y-57702380D02*
X82803904Y-58511904D01*
X82756285Y-58607142D01*
X82708666Y-58654761D01*
X82613428Y-58702380D01*
X82422952Y-58702380D01*
X82327714Y-58654761D01*
X82280095Y-58607142D01*
X82232476Y-58511904D01*
X82232476Y-57702380D01*
X81232476Y-58702380D02*
X81803904Y-58702380D01*
X81518190Y-58702380D02*
X81518190Y-57702380D01*
X81613428Y-57845238D01*
X81708666Y-57940476D01*
X81803904Y-57988095D01*
X63817333Y-68603761D02*
X63674476Y-68651380D01*
X63436380Y-68651380D01*
X63341142Y-68603761D01*
X63293523Y-68556142D01*
X63245904Y-68460904D01*
X63245904Y-68365666D01*
X63293523Y-68270428D01*
X63341142Y-68222809D01*
X63436380Y-68175190D01*
X63626857Y-68127571D01*
X63722095Y-68079952D01*
X63769714Y-68032333D01*
X63817333Y-67937095D01*
X63817333Y-67841857D01*
X63769714Y-67746619D01*
X63722095Y-67699000D01*
X63626857Y-67651380D01*
X63388761Y-67651380D01*
X63245904Y-67699000D01*
X62912571Y-67651380D02*
X62674476Y-68651380D01*
X62484000Y-67937095D01*
X62293523Y-68651380D01*
X62055428Y-67651380D01*
X61150666Y-68651380D02*
X61722095Y-68651380D01*
X61436380Y-68651380D02*
X61436380Y-67651380D01*
X61531619Y-67794238D01*
X61626857Y-67889476D01*
X61722095Y-67937095D01*
X93161380Y-55380833D02*
X92685190Y-55047500D01*
X93161380Y-54809404D02*
X92161380Y-54809404D01*
X92161380Y-55190357D01*
X92209000Y-55285595D01*
X92256619Y-55333214D01*
X92351857Y-55380833D01*
X92494714Y-55380833D01*
X92589952Y-55333214D01*
X92637571Y-55285595D01*
X92685190Y-55190357D01*
X92685190Y-54809404D01*
X92494714Y-56237976D02*
X93161380Y-56237976D01*
X92113761Y-55999880D02*
X92828047Y-55761785D01*
X92828047Y-56380833D01*
X63062380Y-42759333D02*
X62586190Y-42426000D01*
X63062380Y-42187904D02*
X62062380Y-42187904D01*
X62062380Y-42568857D01*
X62110000Y-42664095D01*
X62157619Y-42711714D01*
X62252857Y-42759333D01*
X62395714Y-42759333D01*
X62490952Y-42711714D01*
X62538571Y-42664095D01*
X62586190Y-42568857D01*
X62586190Y-42187904D01*
X62062380Y-43092666D02*
X62062380Y-43711714D01*
X62443333Y-43378380D01*
X62443333Y-43521238D01*
X62490952Y-43616476D01*
X62538571Y-43664095D01*
X62633809Y-43711714D01*
X62871904Y-43711714D01*
X62967142Y-43664095D01*
X63014761Y-43616476D01*
X63062380Y-43521238D01*
X63062380Y-43235523D01*
X63014761Y-43140285D01*
X62967142Y-43092666D01*
X66237380Y-42759333D02*
X65761190Y-42426000D01*
X66237380Y-42187904D02*
X65237380Y-42187904D01*
X65237380Y-42568857D01*
X65285000Y-42664095D01*
X65332619Y-42711714D01*
X65427857Y-42759333D01*
X65570714Y-42759333D01*
X65665952Y-42711714D01*
X65713571Y-42664095D01*
X65761190Y-42568857D01*
X65761190Y-42187904D01*
X65332619Y-43140285D02*
X65285000Y-43187904D01*
X65237380Y-43283142D01*
X65237380Y-43521238D01*
X65285000Y-43616476D01*
X65332619Y-43664095D01*
X65427857Y-43711714D01*
X65523095Y-43711714D01*
X65665952Y-43664095D01*
X66237380Y-43092666D01*
X66237380Y-43711714D01*
X72841380Y-41108333D02*
X72365190Y-40775000D01*
X72841380Y-40536904D02*
X71841380Y-40536904D01*
X71841380Y-40917857D01*
X71889000Y-41013095D01*
X71936619Y-41060714D01*
X72031857Y-41108333D01*
X72174714Y-41108333D01*
X72269952Y-41060714D01*
X72317571Y-41013095D01*
X72365190Y-40917857D01*
X72365190Y-40536904D01*
X72841380Y-42060714D02*
X72841380Y-41489285D01*
X72841380Y-41775000D02*
X71841380Y-41775000D01*
X71984238Y-41679761D01*
X72079476Y-41584523D01*
X72127095Y-41489285D01*
X60295571Y-47294666D02*
X60295571Y-46961333D01*
X60819380Y-46961333D02*
X59819380Y-46961333D01*
X59819380Y-47437523D01*
X60819380Y-48342285D02*
X60819380Y-47770857D01*
X60819380Y-48056571D02*
X59819380Y-48056571D01*
X59962238Y-47961333D01*
X60057476Y-47866095D01*
X60105095Y-47770857D01*
X136691380Y-59586904D02*
X135691380Y-59586904D01*
X135691380Y-59825000D01*
X135739000Y-59967857D01*
X135834238Y-60063095D01*
X135929476Y-60110714D01*
X136119952Y-60158333D01*
X136262809Y-60158333D01*
X136453285Y-60110714D01*
X136548523Y-60063095D01*
X136643761Y-59967857D01*
X136691380Y-59825000D01*
X136691380Y-59586904D01*
X136024714Y-61015476D02*
X136691380Y-61015476D01*
X135643761Y-60777380D02*
X136358047Y-60539285D01*
X136358047Y-61158333D01*
X117641380Y-59586904D02*
X116641380Y-59586904D01*
X116641380Y-59825000D01*
X116689000Y-59967857D01*
X116784238Y-60063095D01*
X116879476Y-60110714D01*
X117069952Y-60158333D01*
X117212809Y-60158333D01*
X117403285Y-60110714D01*
X117498523Y-60063095D01*
X117593761Y-59967857D01*
X117641380Y-59825000D01*
X117641380Y-59586904D01*
X116641380Y-60491666D02*
X116641380Y-61110714D01*
X117022333Y-60777380D01*
X117022333Y-60920238D01*
X117069952Y-61015476D01*
X117117571Y-61063095D01*
X117212809Y-61110714D01*
X117450904Y-61110714D01*
X117546142Y-61063095D01*
X117593761Y-61015476D01*
X117641380Y-60920238D01*
X117641380Y-60634523D01*
X117593761Y-60539285D01*
X117546142Y-60491666D01*
X136691380Y-40663904D02*
X135691380Y-40663904D01*
X135691380Y-40902000D01*
X135739000Y-41044857D01*
X135834238Y-41140095D01*
X135929476Y-41187714D01*
X136119952Y-41235333D01*
X136262809Y-41235333D01*
X136453285Y-41187714D01*
X136548523Y-41140095D01*
X136643761Y-41044857D01*
X136691380Y-40902000D01*
X136691380Y-40663904D01*
X135786619Y-41616285D02*
X135739000Y-41663904D01*
X135691380Y-41759142D01*
X135691380Y-41997238D01*
X135739000Y-42092476D01*
X135786619Y-42140095D01*
X135881857Y-42187714D01*
X135977095Y-42187714D01*
X136119952Y-42140095D01*
X136691380Y-41568666D01*
X136691380Y-42187714D01*
X117514380Y-40663904D02*
X116514380Y-40663904D01*
X116514380Y-40902000D01*
X116562000Y-41044857D01*
X116657238Y-41140095D01*
X116752476Y-41187714D01*
X116942952Y-41235333D01*
X117085809Y-41235333D01*
X117276285Y-41187714D01*
X117371523Y-41140095D01*
X117466761Y-41044857D01*
X117514380Y-40902000D01*
X117514380Y-40663904D01*
X117514380Y-42187714D02*
X117514380Y-41616285D01*
X117514380Y-41902000D02*
X116514380Y-41902000D01*
X116657238Y-41806761D01*
X116752476Y-41711523D01*
X116800095Y-41616285D01*
X70462142Y-56348333D02*
X70509761Y-56300714D01*
X70557380Y-56157857D01*
X70557380Y-56062619D01*
X70509761Y-55919761D01*
X70414523Y-55824523D01*
X70319285Y-55776904D01*
X70128809Y-55729285D01*
X69985952Y-55729285D01*
X69795476Y-55776904D01*
X69700238Y-55824523D01*
X69605000Y-55919761D01*
X69557380Y-56062619D01*
X69557380Y-56157857D01*
X69605000Y-56300714D01*
X69652619Y-56348333D01*
X69557380Y-56681666D02*
X69557380Y-57348333D01*
X70557380Y-56919761D01*
X85891666Y-59540142D02*
X85939285Y-59587761D01*
X86082142Y-59635380D01*
X86177380Y-59635380D01*
X86320238Y-59587761D01*
X86415476Y-59492523D01*
X86463095Y-59397285D01*
X86510714Y-59206809D01*
X86510714Y-59063952D01*
X86463095Y-58873476D01*
X86415476Y-58778238D01*
X86320238Y-58683000D01*
X86177380Y-58635380D01*
X86082142Y-58635380D01*
X85939285Y-58683000D01*
X85891666Y-58730619D01*
X85034523Y-58635380D02*
X85225000Y-58635380D01*
X85320238Y-58683000D01*
X85367857Y-58730619D01*
X85463095Y-58873476D01*
X85510714Y-59063952D01*
X85510714Y-59444904D01*
X85463095Y-59540142D01*
X85415476Y-59587761D01*
X85320238Y-59635380D01*
X85129761Y-59635380D01*
X85034523Y-59587761D01*
X84986904Y-59540142D01*
X84939285Y-59444904D01*
X84939285Y-59206809D01*
X84986904Y-59111571D01*
X85034523Y-59063952D01*
X85129761Y-59016333D01*
X85320238Y-59016333D01*
X85415476Y-59063952D01*
X85463095Y-59111571D01*
X85510714Y-59206809D01*
X93574142Y-47204333D02*
X93621761Y-47156714D01*
X93669380Y-47013857D01*
X93669380Y-46918619D01*
X93621761Y-46775761D01*
X93526523Y-46680523D01*
X93431285Y-46632904D01*
X93240809Y-46585285D01*
X93097952Y-46585285D01*
X92907476Y-46632904D01*
X92812238Y-46680523D01*
X92717000Y-46775761D01*
X92669380Y-46918619D01*
X92669380Y-47013857D01*
X92717000Y-47156714D01*
X92764619Y-47204333D01*
X92669380Y-48109095D02*
X92669380Y-47632904D01*
X93145571Y-47585285D01*
X93097952Y-47632904D01*
X93050333Y-47728142D01*
X93050333Y-47966238D01*
X93097952Y-48061476D01*
X93145571Y-48109095D01*
X93240809Y-48156714D01*
X93478904Y-48156714D01*
X93574142Y-48109095D01*
X93621761Y-48061476D01*
X93669380Y-47966238D01*
X93669380Y-47728142D01*
X93621761Y-47632904D01*
X93574142Y-47585285D01*
X76175142Y-40981333D02*
X76222761Y-40933714D01*
X76270380Y-40790857D01*
X76270380Y-40695619D01*
X76222761Y-40552761D01*
X76127523Y-40457523D01*
X76032285Y-40409904D01*
X75841809Y-40362285D01*
X75698952Y-40362285D01*
X75508476Y-40409904D01*
X75413238Y-40457523D01*
X75318000Y-40552761D01*
X75270380Y-40695619D01*
X75270380Y-40790857D01*
X75318000Y-40933714D01*
X75365619Y-40981333D01*
X75603714Y-41838476D02*
X76270380Y-41838476D01*
X75222761Y-41600380D02*
X75937047Y-41362285D01*
X75937047Y-41981333D01*
X75415142Y-37376833D02*
X75462761Y-37329214D01*
X75510380Y-37186357D01*
X75510380Y-37091119D01*
X75462761Y-36948261D01*
X75367523Y-36853023D01*
X75272285Y-36805404D01*
X75081809Y-36757785D01*
X74938952Y-36757785D01*
X74748476Y-36805404D01*
X74653238Y-36853023D01*
X74558000Y-36948261D01*
X74510380Y-37091119D01*
X74510380Y-37186357D01*
X74558000Y-37329214D01*
X74605619Y-37376833D01*
X74605619Y-37757785D02*
X74558000Y-37805404D01*
X74510380Y-37900642D01*
X74510380Y-38138738D01*
X74558000Y-38233976D01*
X74605619Y-38281595D01*
X74700857Y-38329214D01*
X74796095Y-38329214D01*
X74938952Y-38281595D01*
X75510380Y-37710166D01*
X75510380Y-38329214D01*
X89256142Y-37425333D02*
X89303761Y-37377714D01*
X89351380Y-37234857D01*
X89351380Y-37139619D01*
X89303761Y-36996761D01*
X89208523Y-36901523D01*
X89113285Y-36853904D01*
X88922809Y-36806285D01*
X88779952Y-36806285D01*
X88589476Y-36853904D01*
X88494238Y-36901523D01*
X88399000Y-36996761D01*
X88351380Y-37139619D01*
X88351380Y-37234857D01*
X88399000Y-37377714D01*
X88446619Y-37425333D01*
X89351380Y-38377714D02*
X89351380Y-37806285D01*
X89351380Y-38092000D02*
X88351380Y-38092000D01*
X88494238Y-37996761D01*
X88589476Y-37901523D01*
X88637095Y-37806285D01*
M02*
