G04 #@! TF.GenerationSoftware,KiCad,Pcbnew,(5.1.4)-1*
G04 #@! TF.CreationDate,2021-05-04T15:53:45+02:00*
G04 #@! TF.ProjectId,techo,74656368-6f2e-46b6-9963-61645f706362,rev?*
G04 #@! TF.SameCoordinates,Original*
G04 #@! TF.FileFunction,Copper,L2,Bot*
G04 #@! TF.FilePolarity,Positive*
%FSLAX46Y46*%
G04 Gerber Fmt 4.6, Leading zero omitted, Abs format (unit mm)*
G04 Created by KiCad (PCBNEW (5.1.4)-1) date 2021-05-04 15:53:45*
%MOMM*%
%LPD*%
G04 APERTURE LIST*
%ADD10O,1.700000X2.700000*%
%ADD11R,0.500000X2.250000*%
%ADD12C,0.100000*%
%ADD13C,0.975000*%
%ADD14R,1.400000X1.200000*%
%ADD15R,0.550000X1.500000*%
%ADD16R,1.500000X0.550000*%
%ADD17R,1.800000X1.100000*%
%ADD18R,1.905000X1.905000*%
%ADD19C,1.905000*%
%ADD20C,2.250000*%
%ADD21C,2.250000*%
%ADD22C,1.250000*%
%ADD23R,1.200000X0.900000*%
%ADD24C,0.800000*%
%ADD25C,0.381000*%
%ADD26C,0.250000*%
%ADD27C,0.254000*%
G04 APERTURE END LIST*
D10*
X59280000Y-33560000D03*
X66580000Y-33560000D03*
X66580000Y-38060000D03*
X59280000Y-38060000D03*
D11*
X61330000Y-38060000D03*
X62130000Y-38060000D03*
X62930000Y-38060000D03*
X63730000Y-38060000D03*
X64530000Y-38060000D03*
D12*
G36*
X70196142Y-48831174D02*
G01*
X70219803Y-48834684D01*
X70243007Y-48840496D01*
X70265529Y-48848554D01*
X70287153Y-48858782D01*
X70307670Y-48871079D01*
X70326883Y-48885329D01*
X70344607Y-48901393D01*
X70360671Y-48919117D01*
X70374921Y-48938330D01*
X70387218Y-48958847D01*
X70397446Y-48980471D01*
X70405504Y-49002993D01*
X70411316Y-49026197D01*
X70414826Y-49049858D01*
X70416000Y-49073750D01*
X70416000Y-49986250D01*
X70414826Y-50010142D01*
X70411316Y-50033803D01*
X70405504Y-50057007D01*
X70397446Y-50079529D01*
X70387218Y-50101153D01*
X70374921Y-50121670D01*
X70360671Y-50140883D01*
X70344607Y-50158607D01*
X70326883Y-50174671D01*
X70307670Y-50188921D01*
X70287153Y-50201218D01*
X70265529Y-50211446D01*
X70243007Y-50219504D01*
X70219803Y-50225316D01*
X70196142Y-50228826D01*
X70172250Y-50230000D01*
X69684750Y-50230000D01*
X69660858Y-50228826D01*
X69637197Y-50225316D01*
X69613993Y-50219504D01*
X69591471Y-50211446D01*
X69569847Y-50201218D01*
X69549330Y-50188921D01*
X69530117Y-50174671D01*
X69512393Y-50158607D01*
X69496329Y-50140883D01*
X69482079Y-50121670D01*
X69469782Y-50101153D01*
X69459554Y-50079529D01*
X69451496Y-50057007D01*
X69445684Y-50033803D01*
X69442174Y-50010142D01*
X69441000Y-49986250D01*
X69441000Y-49073750D01*
X69442174Y-49049858D01*
X69445684Y-49026197D01*
X69451496Y-49002993D01*
X69459554Y-48980471D01*
X69469782Y-48958847D01*
X69482079Y-48938330D01*
X69496329Y-48919117D01*
X69512393Y-48901393D01*
X69530117Y-48885329D01*
X69549330Y-48871079D01*
X69569847Y-48858782D01*
X69591471Y-48848554D01*
X69613993Y-48840496D01*
X69637197Y-48834684D01*
X69660858Y-48831174D01*
X69684750Y-48830000D01*
X70172250Y-48830000D01*
X70196142Y-48831174D01*
X70196142Y-48831174D01*
G37*
D13*
X69928500Y-49530000D03*
D12*
G36*
X72071142Y-48831174D02*
G01*
X72094803Y-48834684D01*
X72118007Y-48840496D01*
X72140529Y-48848554D01*
X72162153Y-48858782D01*
X72182670Y-48871079D01*
X72201883Y-48885329D01*
X72219607Y-48901393D01*
X72235671Y-48919117D01*
X72249921Y-48938330D01*
X72262218Y-48958847D01*
X72272446Y-48980471D01*
X72280504Y-49002993D01*
X72286316Y-49026197D01*
X72289826Y-49049858D01*
X72291000Y-49073750D01*
X72291000Y-49986250D01*
X72289826Y-50010142D01*
X72286316Y-50033803D01*
X72280504Y-50057007D01*
X72272446Y-50079529D01*
X72262218Y-50101153D01*
X72249921Y-50121670D01*
X72235671Y-50140883D01*
X72219607Y-50158607D01*
X72201883Y-50174671D01*
X72182670Y-50188921D01*
X72162153Y-50201218D01*
X72140529Y-50211446D01*
X72118007Y-50219504D01*
X72094803Y-50225316D01*
X72071142Y-50228826D01*
X72047250Y-50230000D01*
X71559750Y-50230000D01*
X71535858Y-50228826D01*
X71512197Y-50225316D01*
X71488993Y-50219504D01*
X71466471Y-50211446D01*
X71444847Y-50201218D01*
X71424330Y-50188921D01*
X71405117Y-50174671D01*
X71387393Y-50158607D01*
X71371329Y-50140883D01*
X71357079Y-50121670D01*
X71344782Y-50101153D01*
X71334554Y-50079529D01*
X71326496Y-50057007D01*
X71320684Y-50033803D01*
X71317174Y-50010142D01*
X71316000Y-49986250D01*
X71316000Y-49073750D01*
X71317174Y-49049858D01*
X71320684Y-49026197D01*
X71326496Y-49002993D01*
X71334554Y-48980471D01*
X71344782Y-48958847D01*
X71357079Y-48938330D01*
X71371329Y-48919117D01*
X71387393Y-48901393D01*
X71405117Y-48885329D01*
X71424330Y-48871079D01*
X71444847Y-48858782D01*
X71466471Y-48848554D01*
X71488993Y-48840496D01*
X71512197Y-48834684D01*
X71535858Y-48831174D01*
X71559750Y-48830000D01*
X72047250Y-48830000D01*
X72071142Y-48831174D01*
X72071142Y-48831174D01*
G37*
D13*
X71803500Y-49530000D03*
D14*
X82888000Y-36615000D03*
X80688000Y-36615000D03*
X80688000Y-38315000D03*
X82888000Y-38315000D03*
D15*
X78042000Y-56500000D03*
X78842000Y-56500000D03*
X79642000Y-56500000D03*
X80442000Y-56500000D03*
X81242000Y-56500000D03*
X82042000Y-56500000D03*
X82842000Y-56500000D03*
X83642000Y-56500000D03*
X84442000Y-56500000D03*
X85242000Y-56500000D03*
X86042000Y-56500000D03*
D16*
X87742000Y-54800000D03*
X87742000Y-54000000D03*
X87742000Y-53200000D03*
X87742000Y-52400000D03*
X87742000Y-51600000D03*
X87742000Y-50800000D03*
X87742000Y-50000000D03*
X87742000Y-49200000D03*
X87742000Y-48400000D03*
X87742000Y-47600000D03*
X87742000Y-46800000D03*
D15*
X86042000Y-45100000D03*
X85242000Y-45100000D03*
X84442000Y-45100000D03*
X83642000Y-45100000D03*
X82842000Y-45100000D03*
X82042000Y-45100000D03*
X81242000Y-45100000D03*
X80442000Y-45100000D03*
X79642000Y-45100000D03*
X78842000Y-45100000D03*
X78042000Y-45100000D03*
D16*
X76342000Y-46800000D03*
X76342000Y-47600000D03*
X76342000Y-48400000D03*
X76342000Y-49200000D03*
X76342000Y-50000000D03*
X76342000Y-50800000D03*
X76342000Y-51600000D03*
X76342000Y-52400000D03*
X76342000Y-53200000D03*
X76342000Y-54000000D03*
X76342000Y-54800000D03*
D17*
X65584000Y-65985000D03*
X59384000Y-62285000D03*
X65584000Y-62285000D03*
X59384000Y-65985000D03*
D12*
G36*
X91539142Y-54123674D02*
G01*
X91562803Y-54127184D01*
X91586007Y-54132996D01*
X91608529Y-54141054D01*
X91630153Y-54151282D01*
X91650670Y-54163579D01*
X91669883Y-54177829D01*
X91687607Y-54193893D01*
X91703671Y-54211617D01*
X91717921Y-54230830D01*
X91730218Y-54251347D01*
X91740446Y-54272971D01*
X91748504Y-54295493D01*
X91754316Y-54318697D01*
X91757826Y-54342358D01*
X91759000Y-54366250D01*
X91759000Y-54853750D01*
X91757826Y-54877642D01*
X91754316Y-54901303D01*
X91748504Y-54924507D01*
X91740446Y-54947029D01*
X91730218Y-54968653D01*
X91717921Y-54989170D01*
X91703671Y-55008383D01*
X91687607Y-55026107D01*
X91669883Y-55042171D01*
X91650670Y-55056421D01*
X91630153Y-55068718D01*
X91608529Y-55078946D01*
X91586007Y-55087004D01*
X91562803Y-55092816D01*
X91539142Y-55096326D01*
X91515250Y-55097500D01*
X90602750Y-55097500D01*
X90578858Y-55096326D01*
X90555197Y-55092816D01*
X90531993Y-55087004D01*
X90509471Y-55078946D01*
X90487847Y-55068718D01*
X90467330Y-55056421D01*
X90448117Y-55042171D01*
X90430393Y-55026107D01*
X90414329Y-55008383D01*
X90400079Y-54989170D01*
X90387782Y-54968653D01*
X90377554Y-54947029D01*
X90369496Y-54924507D01*
X90363684Y-54901303D01*
X90360174Y-54877642D01*
X90359000Y-54853750D01*
X90359000Y-54366250D01*
X90360174Y-54342358D01*
X90363684Y-54318697D01*
X90369496Y-54295493D01*
X90377554Y-54272971D01*
X90387782Y-54251347D01*
X90400079Y-54230830D01*
X90414329Y-54211617D01*
X90430393Y-54193893D01*
X90448117Y-54177829D01*
X90467330Y-54163579D01*
X90487847Y-54151282D01*
X90509471Y-54141054D01*
X90531993Y-54132996D01*
X90555197Y-54127184D01*
X90578858Y-54123674D01*
X90602750Y-54122500D01*
X91515250Y-54122500D01*
X91539142Y-54123674D01*
X91539142Y-54123674D01*
G37*
D13*
X91059000Y-54610000D03*
D12*
G36*
X91539142Y-55998674D02*
G01*
X91562803Y-56002184D01*
X91586007Y-56007996D01*
X91608529Y-56016054D01*
X91630153Y-56026282D01*
X91650670Y-56038579D01*
X91669883Y-56052829D01*
X91687607Y-56068893D01*
X91703671Y-56086617D01*
X91717921Y-56105830D01*
X91730218Y-56126347D01*
X91740446Y-56147971D01*
X91748504Y-56170493D01*
X91754316Y-56193697D01*
X91757826Y-56217358D01*
X91759000Y-56241250D01*
X91759000Y-56728750D01*
X91757826Y-56752642D01*
X91754316Y-56776303D01*
X91748504Y-56799507D01*
X91740446Y-56822029D01*
X91730218Y-56843653D01*
X91717921Y-56864170D01*
X91703671Y-56883383D01*
X91687607Y-56901107D01*
X91669883Y-56917171D01*
X91650670Y-56931421D01*
X91630153Y-56943718D01*
X91608529Y-56953946D01*
X91586007Y-56962004D01*
X91562803Y-56967816D01*
X91539142Y-56971326D01*
X91515250Y-56972500D01*
X90602750Y-56972500D01*
X90578858Y-56971326D01*
X90555197Y-56967816D01*
X90531993Y-56962004D01*
X90509471Y-56953946D01*
X90487847Y-56943718D01*
X90467330Y-56931421D01*
X90448117Y-56917171D01*
X90430393Y-56901107D01*
X90414329Y-56883383D01*
X90400079Y-56864170D01*
X90387782Y-56843653D01*
X90377554Y-56822029D01*
X90369496Y-56799507D01*
X90363684Y-56776303D01*
X90360174Y-56752642D01*
X90359000Y-56728750D01*
X90359000Y-56241250D01*
X90360174Y-56217358D01*
X90363684Y-56193697D01*
X90369496Y-56170493D01*
X90377554Y-56147971D01*
X90387782Y-56126347D01*
X90400079Y-56105830D01*
X90414329Y-56086617D01*
X90430393Y-56068893D01*
X90448117Y-56052829D01*
X90467330Y-56038579D01*
X90487847Y-56026282D01*
X90509471Y-56016054D01*
X90531993Y-56007996D01*
X90555197Y-56002184D01*
X90578858Y-55998674D01*
X90602750Y-55997500D01*
X91515250Y-55997500D01*
X91539142Y-55998674D01*
X91539142Y-55998674D01*
G37*
D13*
X91059000Y-56485000D03*
D12*
G36*
X61440142Y-41502174D02*
G01*
X61463803Y-41505684D01*
X61487007Y-41511496D01*
X61509529Y-41519554D01*
X61531153Y-41529782D01*
X61551670Y-41542079D01*
X61570883Y-41556329D01*
X61588607Y-41572393D01*
X61604671Y-41590117D01*
X61618921Y-41609330D01*
X61631218Y-41629847D01*
X61641446Y-41651471D01*
X61649504Y-41673993D01*
X61655316Y-41697197D01*
X61658826Y-41720858D01*
X61660000Y-41744750D01*
X61660000Y-42232250D01*
X61658826Y-42256142D01*
X61655316Y-42279803D01*
X61649504Y-42303007D01*
X61641446Y-42325529D01*
X61631218Y-42347153D01*
X61618921Y-42367670D01*
X61604671Y-42386883D01*
X61588607Y-42404607D01*
X61570883Y-42420671D01*
X61551670Y-42434921D01*
X61531153Y-42447218D01*
X61509529Y-42457446D01*
X61487007Y-42465504D01*
X61463803Y-42471316D01*
X61440142Y-42474826D01*
X61416250Y-42476000D01*
X60503750Y-42476000D01*
X60479858Y-42474826D01*
X60456197Y-42471316D01*
X60432993Y-42465504D01*
X60410471Y-42457446D01*
X60388847Y-42447218D01*
X60368330Y-42434921D01*
X60349117Y-42420671D01*
X60331393Y-42404607D01*
X60315329Y-42386883D01*
X60301079Y-42367670D01*
X60288782Y-42347153D01*
X60278554Y-42325529D01*
X60270496Y-42303007D01*
X60264684Y-42279803D01*
X60261174Y-42256142D01*
X60260000Y-42232250D01*
X60260000Y-41744750D01*
X60261174Y-41720858D01*
X60264684Y-41697197D01*
X60270496Y-41673993D01*
X60278554Y-41651471D01*
X60288782Y-41629847D01*
X60301079Y-41609330D01*
X60315329Y-41590117D01*
X60331393Y-41572393D01*
X60349117Y-41556329D01*
X60368330Y-41542079D01*
X60388847Y-41529782D01*
X60410471Y-41519554D01*
X60432993Y-41511496D01*
X60456197Y-41505684D01*
X60479858Y-41502174D01*
X60503750Y-41501000D01*
X61416250Y-41501000D01*
X61440142Y-41502174D01*
X61440142Y-41502174D01*
G37*
D13*
X60960000Y-41988500D03*
D12*
G36*
X61440142Y-43377174D02*
G01*
X61463803Y-43380684D01*
X61487007Y-43386496D01*
X61509529Y-43394554D01*
X61531153Y-43404782D01*
X61551670Y-43417079D01*
X61570883Y-43431329D01*
X61588607Y-43447393D01*
X61604671Y-43465117D01*
X61618921Y-43484330D01*
X61631218Y-43504847D01*
X61641446Y-43526471D01*
X61649504Y-43548993D01*
X61655316Y-43572197D01*
X61658826Y-43595858D01*
X61660000Y-43619750D01*
X61660000Y-44107250D01*
X61658826Y-44131142D01*
X61655316Y-44154803D01*
X61649504Y-44178007D01*
X61641446Y-44200529D01*
X61631218Y-44222153D01*
X61618921Y-44242670D01*
X61604671Y-44261883D01*
X61588607Y-44279607D01*
X61570883Y-44295671D01*
X61551670Y-44309921D01*
X61531153Y-44322218D01*
X61509529Y-44332446D01*
X61487007Y-44340504D01*
X61463803Y-44346316D01*
X61440142Y-44349826D01*
X61416250Y-44351000D01*
X60503750Y-44351000D01*
X60479858Y-44349826D01*
X60456197Y-44346316D01*
X60432993Y-44340504D01*
X60410471Y-44332446D01*
X60388847Y-44322218D01*
X60368330Y-44309921D01*
X60349117Y-44295671D01*
X60331393Y-44279607D01*
X60315329Y-44261883D01*
X60301079Y-44242670D01*
X60288782Y-44222153D01*
X60278554Y-44200529D01*
X60270496Y-44178007D01*
X60264684Y-44154803D01*
X60261174Y-44131142D01*
X60260000Y-44107250D01*
X60260000Y-43619750D01*
X60261174Y-43595858D01*
X60264684Y-43572197D01*
X60270496Y-43548993D01*
X60278554Y-43526471D01*
X60288782Y-43504847D01*
X60301079Y-43484330D01*
X60315329Y-43465117D01*
X60331393Y-43447393D01*
X60349117Y-43431329D01*
X60368330Y-43417079D01*
X60388847Y-43404782D01*
X60410471Y-43394554D01*
X60432993Y-43386496D01*
X60456197Y-43380684D01*
X60479858Y-43377174D01*
X60503750Y-43376000D01*
X61416250Y-43376000D01*
X61440142Y-43377174D01*
X61440142Y-43377174D01*
G37*
D13*
X60960000Y-43863500D03*
D12*
G36*
X64615142Y-41502174D02*
G01*
X64638803Y-41505684D01*
X64662007Y-41511496D01*
X64684529Y-41519554D01*
X64706153Y-41529782D01*
X64726670Y-41542079D01*
X64745883Y-41556329D01*
X64763607Y-41572393D01*
X64779671Y-41590117D01*
X64793921Y-41609330D01*
X64806218Y-41629847D01*
X64816446Y-41651471D01*
X64824504Y-41673993D01*
X64830316Y-41697197D01*
X64833826Y-41720858D01*
X64835000Y-41744750D01*
X64835000Y-42232250D01*
X64833826Y-42256142D01*
X64830316Y-42279803D01*
X64824504Y-42303007D01*
X64816446Y-42325529D01*
X64806218Y-42347153D01*
X64793921Y-42367670D01*
X64779671Y-42386883D01*
X64763607Y-42404607D01*
X64745883Y-42420671D01*
X64726670Y-42434921D01*
X64706153Y-42447218D01*
X64684529Y-42457446D01*
X64662007Y-42465504D01*
X64638803Y-42471316D01*
X64615142Y-42474826D01*
X64591250Y-42476000D01*
X63678750Y-42476000D01*
X63654858Y-42474826D01*
X63631197Y-42471316D01*
X63607993Y-42465504D01*
X63585471Y-42457446D01*
X63563847Y-42447218D01*
X63543330Y-42434921D01*
X63524117Y-42420671D01*
X63506393Y-42404607D01*
X63490329Y-42386883D01*
X63476079Y-42367670D01*
X63463782Y-42347153D01*
X63453554Y-42325529D01*
X63445496Y-42303007D01*
X63439684Y-42279803D01*
X63436174Y-42256142D01*
X63435000Y-42232250D01*
X63435000Y-41744750D01*
X63436174Y-41720858D01*
X63439684Y-41697197D01*
X63445496Y-41673993D01*
X63453554Y-41651471D01*
X63463782Y-41629847D01*
X63476079Y-41609330D01*
X63490329Y-41590117D01*
X63506393Y-41572393D01*
X63524117Y-41556329D01*
X63543330Y-41542079D01*
X63563847Y-41529782D01*
X63585471Y-41519554D01*
X63607993Y-41511496D01*
X63631197Y-41505684D01*
X63654858Y-41502174D01*
X63678750Y-41501000D01*
X64591250Y-41501000D01*
X64615142Y-41502174D01*
X64615142Y-41502174D01*
G37*
D13*
X64135000Y-41988500D03*
D12*
G36*
X64615142Y-43377174D02*
G01*
X64638803Y-43380684D01*
X64662007Y-43386496D01*
X64684529Y-43394554D01*
X64706153Y-43404782D01*
X64726670Y-43417079D01*
X64745883Y-43431329D01*
X64763607Y-43447393D01*
X64779671Y-43465117D01*
X64793921Y-43484330D01*
X64806218Y-43504847D01*
X64816446Y-43526471D01*
X64824504Y-43548993D01*
X64830316Y-43572197D01*
X64833826Y-43595858D01*
X64835000Y-43619750D01*
X64835000Y-44107250D01*
X64833826Y-44131142D01*
X64830316Y-44154803D01*
X64824504Y-44178007D01*
X64816446Y-44200529D01*
X64806218Y-44222153D01*
X64793921Y-44242670D01*
X64779671Y-44261883D01*
X64763607Y-44279607D01*
X64745883Y-44295671D01*
X64726670Y-44309921D01*
X64706153Y-44322218D01*
X64684529Y-44332446D01*
X64662007Y-44340504D01*
X64638803Y-44346316D01*
X64615142Y-44349826D01*
X64591250Y-44351000D01*
X63678750Y-44351000D01*
X63654858Y-44349826D01*
X63631197Y-44346316D01*
X63607993Y-44340504D01*
X63585471Y-44332446D01*
X63563847Y-44322218D01*
X63543330Y-44309921D01*
X63524117Y-44295671D01*
X63506393Y-44279607D01*
X63490329Y-44261883D01*
X63476079Y-44242670D01*
X63463782Y-44222153D01*
X63453554Y-44200529D01*
X63445496Y-44178007D01*
X63439684Y-44154803D01*
X63436174Y-44131142D01*
X63435000Y-44107250D01*
X63435000Y-43619750D01*
X63436174Y-43595858D01*
X63439684Y-43572197D01*
X63445496Y-43548993D01*
X63453554Y-43526471D01*
X63463782Y-43504847D01*
X63476079Y-43484330D01*
X63490329Y-43465117D01*
X63506393Y-43447393D01*
X63524117Y-43431329D01*
X63543330Y-43417079D01*
X63563847Y-43404782D01*
X63585471Y-43394554D01*
X63607993Y-43386496D01*
X63631197Y-43380684D01*
X63654858Y-43377174D01*
X63678750Y-43376000D01*
X64591250Y-43376000D01*
X64615142Y-43377174D01*
X64615142Y-43377174D01*
G37*
D13*
X64135000Y-43863500D03*
D12*
G36*
X71219142Y-39851174D02*
G01*
X71242803Y-39854684D01*
X71266007Y-39860496D01*
X71288529Y-39868554D01*
X71310153Y-39878782D01*
X71330670Y-39891079D01*
X71349883Y-39905329D01*
X71367607Y-39921393D01*
X71383671Y-39939117D01*
X71397921Y-39958330D01*
X71410218Y-39978847D01*
X71420446Y-40000471D01*
X71428504Y-40022993D01*
X71434316Y-40046197D01*
X71437826Y-40069858D01*
X71439000Y-40093750D01*
X71439000Y-40581250D01*
X71437826Y-40605142D01*
X71434316Y-40628803D01*
X71428504Y-40652007D01*
X71420446Y-40674529D01*
X71410218Y-40696153D01*
X71397921Y-40716670D01*
X71383671Y-40735883D01*
X71367607Y-40753607D01*
X71349883Y-40769671D01*
X71330670Y-40783921D01*
X71310153Y-40796218D01*
X71288529Y-40806446D01*
X71266007Y-40814504D01*
X71242803Y-40820316D01*
X71219142Y-40823826D01*
X71195250Y-40825000D01*
X70282750Y-40825000D01*
X70258858Y-40823826D01*
X70235197Y-40820316D01*
X70211993Y-40814504D01*
X70189471Y-40806446D01*
X70167847Y-40796218D01*
X70147330Y-40783921D01*
X70128117Y-40769671D01*
X70110393Y-40753607D01*
X70094329Y-40735883D01*
X70080079Y-40716670D01*
X70067782Y-40696153D01*
X70057554Y-40674529D01*
X70049496Y-40652007D01*
X70043684Y-40628803D01*
X70040174Y-40605142D01*
X70039000Y-40581250D01*
X70039000Y-40093750D01*
X70040174Y-40069858D01*
X70043684Y-40046197D01*
X70049496Y-40022993D01*
X70057554Y-40000471D01*
X70067782Y-39978847D01*
X70080079Y-39958330D01*
X70094329Y-39939117D01*
X70110393Y-39921393D01*
X70128117Y-39905329D01*
X70147330Y-39891079D01*
X70167847Y-39878782D01*
X70189471Y-39868554D01*
X70211993Y-39860496D01*
X70235197Y-39854684D01*
X70258858Y-39851174D01*
X70282750Y-39850000D01*
X71195250Y-39850000D01*
X71219142Y-39851174D01*
X71219142Y-39851174D01*
G37*
D13*
X70739000Y-40337500D03*
D12*
G36*
X71219142Y-41726174D02*
G01*
X71242803Y-41729684D01*
X71266007Y-41735496D01*
X71288529Y-41743554D01*
X71310153Y-41753782D01*
X71330670Y-41766079D01*
X71349883Y-41780329D01*
X71367607Y-41796393D01*
X71383671Y-41814117D01*
X71397921Y-41833330D01*
X71410218Y-41853847D01*
X71420446Y-41875471D01*
X71428504Y-41897993D01*
X71434316Y-41921197D01*
X71437826Y-41944858D01*
X71439000Y-41968750D01*
X71439000Y-42456250D01*
X71437826Y-42480142D01*
X71434316Y-42503803D01*
X71428504Y-42527007D01*
X71420446Y-42549529D01*
X71410218Y-42571153D01*
X71397921Y-42591670D01*
X71383671Y-42610883D01*
X71367607Y-42628607D01*
X71349883Y-42644671D01*
X71330670Y-42658921D01*
X71310153Y-42671218D01*
X71288529Y-42681446D01*
X71266007Y-42689504D01*
X71242803Y-42695316D01*
X71219142Y-42698826D01*
X71195250Y-42700000D01*
X70282750Y-42700000D01*
X70258858Y-42698826D01*
X70235197Y-42695316D01*
X70211993Y-42689504D01*
X70189471Y-42681446D01*
X70167847Y-42671218D01*
X70147330Y-42658921D01*
X70128117Y-42644671D01*
X70110393Y-42628607D01*
X70094329Y-42610883D01*
X70080079Y-42591670D01*
X70067782Y-42571153D01*
X70057554Y-42549529D01*
X70049496Y-42527007D01*
X70043684Y-42503803D01*
X70040174Y-42480142D01*
X70039000Y-42456250D01*
X70039000Y-41968750D01*
X70040174Y-41944858D01*
X70043684Y-41921197D01*
X70049496Y-41897993D01*
X70057554Y-41875471D01*
X70067782Y-41853847D01*
X70080079Y-41833330D01*
X70094329Y-41814117D01*
X70110393Y-41796393D01*
X70128117Y-41780329D01*
X70147330Y-41766079D01*
X70167847Y-41753782D01*
X70189471Y-41743554D01*
X70211993Y-41735496D01*
X70235197Y-41729684D01*
X70258858Y-41726174D01*
X70282750Y-41725000D01*
X71195250Y-41725000D01*
X71219142Y-41726174D01*
X71219142Y-41726174D01*
G37*
D13*
X70739000Y-42212500D03*
D18*
X127476250Y-65405000D03*
D19*
X124936250Y-65405000D03*
D20*
X123706250Y-56325000D03*
X123051251Y-57055000D03*
D21*
X122396250Y-57785000D02*
X123706252Y-56325000D01*
D20*
X128746250Y-55245000D03*
X128726250Y-55535000D03*
D21*
X128706250Y-55825000D02*
X128746250Y-55245000D01*
D18*
X108458000Y-65405000D03*
D19*
X105918000Y-65405000D03*
D20*
X104688000Y-56325000D03*
X104033001Y-57055000D03*
D21*
X103378000Y-57785000D02*
X104688002Y-56325000D01*
D20*
X109728000Y-55245000D03*
X109708000Y-55535000D03*
D21*
X109688000Y-55825000D02*
X109728000Y-55245000D01*
D18*
X127476250Y-46355000D03*
D19*
X124936250Y-46355000D03*
D20*
X123706250Y-37275000D03*
X123051251Y-38005000D03*
D21*
X122396250Y-38735000D02*
X123706252Y-37275000D01*
D20*
X128746250Y-36195000D03*
X128726250Y-36485000D03*
D21*
X128706250Y-36775000D02*
X128746250Y-36195000D01*
D18*
X108426250Y-46355000D03*
D19*
X105886250Y-46355000D03*
D20*
X104656250Y-37275000D03*
X104001251Y-38005000D03*
D21*
X103346250Y-38735000D02*
X104656252Y-37275000D01*
D20*
X109696250Y-36195000D03*
X109676250Y-36485000D03*
D21*
X109656250Y-36775000D02*
X109696250Y-36195000D01*
D12*
G36*
X59196504Y-45604204D02*
G01*
X59220773Y-45607804D01*
X59244571Y-45613765D01*
X59267671Y-45622030D01*
X59289849Y-45632520D01*
X59310893Y-45645133D01*
X59330598Y-45659747D01*
X59348777Y-45676223D01*
X59365253Y-45694402D01*
X59379867Y-45714107D01*
X59392480Y-45735151D01*
X59402970Y-45757329D01*
X59411235Y-45780429D01*
X59417196Y-45804227D01*
X59420796Y-45828496D01*
X59422000Y-45853000D01*
X59422000Y-46603000D01*
X59420796Y-46627504D01*
X59417196Y-46651773D01*
X59411235Y-46675571D01*
X59402970Y-46698671D01*
X59392480Y-46720849D01*
X59379867Y-46741893D01*
X59365253Y-46761598D01*
X59348777Y-46779777D01*
X59330598Y-46796253D01*
X59310893Y-46810867D01*
X59289849Y-46823480D01*
X59267671Y-46833970D01*
X59244571Y-46842235D01*
X59220773Y-46848196D01*
X59196504Y-46851796D01*
X59172000Y-46853000D01*
X57922000Y-46853000D01*
X57897496Y-46851796D01*
X57873227Y-46848196D01*
X57849429Y-46842235D01*
X57826329Y-46833970D01*
X57804151Y-46823480D01*
X57783107Y-46810867D01*
X57763402Y-46796253D01*
X57745223Y-46779777D01*
X57728747Y-46761598D01*
X57714133Y-46741893D01*
X57701520Y-46720849D01*
X57691030Y-46698671D01*
X57682765Y-46675571D01*
X57676804Y-46651773D01*
X57673204Y-46627504D01*
X57672000Y-46603000D01*
X57672000Y-45853000D01*
X57673204Y-45828496D01*
X57676804Y-45804227D01*
X57682765Y-45780429D01*
X57691030Y-45757329D01*
X57701520Y-45735151D01*
X57714133Y-45714107D01*
X57728747Y-45694402D01*
X57745223Y-45676223D01*
X57763402Y-45659747D01*
X57783107Y-45645133D01*
X57804151Y-45632520D01*
X57826329Y-45622030D01*
X57849429Y-45613765D01*
X57873227Y-45607804D01*
X57897496Y-45604204D01*
X57922000Y-45603000D01*
X59172000Y-45603000D01*
X59196504Y-45604204D01*
X59196504Y-45604204D01*
G37*
D22*
X58547000Y-46228000D03*
D12*
G36*
X59196504Y-48404204D02*
G01*
X59220773Y-48407804D01*
X59244571Y-48413765D01*
X59267671Y-48422030D01*
X59289849Y-48432520D01*
X59310893Y-48445133D01*
X59330598Y-48459747D01*
X59348777Y-48476223D01*
X59365253Y-48494402D01*
X59379867Y-48514107D01*
X59392480Y-48535151D01*
X59402970Y-48557329D01*
X59411235Y-48580429D01*
X59417196Y-48604227D01*
X59420796Y-48628496D01*
X59422000Y-48653000D01*
X59422000Y-49403000D01*
X59420796Y-49427504D01*
X59417196Y-49451773D01*
X59411235Y-49475571D01*
X59402970Y-49498671D01*
X59392480Y-49520849D01*
X59379867Y-49541893D01*
X59365253Y-49561598D01*
X59348777Y-49579777D01*
X59330598Y-49596253D01*
X59310893Y-49610867D01*
X59289849Y-49623480D01*
X59267671Y-49633970D01*
X59244571Y-49642235D01*
X59220773Y-49648196D01*
X59196504Y-49651796D01*
X59172000Y-49653000D01*
X57922000Y-49653000D01*
X57897496Y-49651796D01*
X57873227Y-49648196D01*
X57849429Y-49642235D01*
X57826329Y-49633970D01*
X57804151Y-49623480D01*
X57783107Y-49610867D01*
X57763402Y-49596253D01*
X57745223Y-49579777D01*
X57728747Y-49561598D01*
X57714133Y-49541893D01*
X57701520Y-49520849D01*
X57691030Y-49498671D01*
X57682765Y-49475571D01*
X57676804Y-49451773D01*
X57673204Y-49427504D01*
X57672000Y-49403000D01*
X57672000Y-48653000D01*
X57673204Y-48628496D01*
X57676804Y-48604227D01*
X57682765Y-48580429D01*
X57691030Y-48557329D01*
X57701520Y-48535151D01*
X57714133Y-48514107D01*
X57728747Y-48494402D01*
X57745223Y-48476223D01*
X57763402Y-48459747D01*
X57783107Y-48445133D01*
X57804151Y-48432520D01*
X57826329Y-48422030D01*
X57849429Y-48413765D01*
X57873227Y-48407804D01*
X57897496Y-48404204D01*
X57922000Y-48403000D01*
X59172000Y-48403000D01*
X59196504Y-48404204D01*
X59196504Y-48404204D01*
G37*
D22*
X58547000Y-49028000D03*
D23*
X134239000Y-58675000D03*
X134239000Y-61975000D03*
X115189000Y-58675000D03*
X115189000Y-61975000D03*
X134239000Y-39752000D03*
X134239000Y-43052000D03*
X115062000Y-39752000D03*
X115062000Y-43052000D03*
D12*
G36*
X72235142Y-56966174D02*
G01*
X72258803Y-56969684D01*
X72282007Y-56975496D01*
X72304529Y-56983554D01*
X72326153Y-56993782D01*
X72346670Y-57006079D01*
X72365883Y-57020329D01*
X72383607Y-57036393D01*
X72399671Y-57054117D01*
X72413921Y-57073330D01*
X72426218Y-57093847D01*
X72436446Y-57115471D01*
X72444504Y-57137993D01*
X72450316Y-57161197D01*
X72453826Y-57184858D01*
X72455000Y-57208750D01*
X72455000Y-57696250D01*
X72453826Y-57720142D01*
X72450316Y-57743803D01*
X72444504Y-57767007D01*
X72436446Y-57789529D01*
X72426218Y-57811153D01*
X72413921Y-57831670D01*
X72399671Y-57850883D01*
X72383607Y-57868607D01*
X72365883Y-57884671D01*
X72346670Y-57898921D01*
X72326153Y-57911218D01*
X72304529Y-57921446D01*
X72282007Y-57929504D01*
X72258803Y-57935316D01*
X72235142Y-57938826D01*
X72211250Y-57940000D01*
X71298750Y-57940000D01*
X71274858Y-57938826D01*
X71251197Y-57935316D01*
X71227993Y-57929504D01*
X71205471Y-57921446D01*
X71183847Y-57911218D01*
X71163330Y-57898921D01*
X71144117Y-57884671D01*
X71126393Y-57868607D01*
X71110329Y-57850883D01*
X71096079Y-57831670D01*
X71083782Y-57811153D01*
X71073554Y-57789529D01*
X71065496Y-57767007D01*
X71059684Y-57743803D01*
X71056174Y-57720142D01*
X71055000Y-57696250D01*
X71055000Y-57208750D01*
X71056174Y-57184858D01*
X71059684Y-57161197D01*
X71065496Y-57137993D01*
X71073554Y-57115471D01*
X71083782Y-57093847D01*
X71096079Y-57073330D01*
X71110329Y-57054117D01*
X71126393Y-57036393D01*
X71144117Y-57020329D01*
X71163330Y-57006079D01*
X71183847Y-56993782D01*
X71205471Y-56983554D01*
X71227993Y-56975496D01*
X71251197Y-56969684D01*
X71274858Y-56966174D01*
X71298750Y-56965000D01*
X72211250Y-56965000D01*
X72235142Y-56966174D01*
X72235142Y-56966174D01*
G37*
D13*
X71755000Y-57452500D03*
D12*
G36*
X72235142Y-55091174D02*
G01*
X72258803Y-55094684D01*
X72282007Y-55100496D01*
X72304529Y-55108554D01*
X72326153Y-55118782D01*
X72346670Y-55131079D01*
X72365883Y-55145329D01*
X72383607Y-55161393D01*
X72399671Y-55179117D01*
X72413921Y-55198330D01*
X72426218Y-55218847D01*
X72436446Y-55240471D01*
X72444504Y-55262993D01*
X72450316Y-55286197D01*
X72453826Y-55309858D01*
X72455000Y-55333750D01*
X72455000Y-55821250D01*
X72453826Y-55845142D01*
X72450316Y-55868803D01*
X72444504Y-55892007D01*
X72436446Y-55914529D01*
X72426218Y-55936153D01*
X72413921Y-55956670D01*
X72399671Y-55975883D01*
X72383607Y-55993607D01*
X72365883Y-56009671D01*
X72346670Y-56023921D01*
X72326153Y-56036218D01*
X72304529Y-56046446D01*
X72282007Y-56054504D01*
X72258803Y-56060316D01*
X72235142Y-56063826D01*
X72211250Y-56065000D01*
X71298750Y-56065000D01*
X71274858Y-56063826D01*
X71251197Y-56060316D01*
X71227993Y-56054504D01*
X71205471Y-56046446D01*
X71183847Y-56036218D01*
X71163330Y-56023921D01*
X71144117Y-56009671D01*
X71126393Y-55993607D01*
X71110329Y-55975883D01*
X71096079Y-55956670D01*
X71083782Y-55936153D01*
X71073554Y-55914529D01*
X71065496Y-55892007D01*
X71059684Y-55868803D01*
X71056174Y-55845142D01*
X71055000Y-55821250D01*
X71055000Y-55333750D01*
X71056174Y-55309858D01*
X71059684Y-55286197D01*
X71065496Y-55262993D01*
X71073554Y-55240471D01*
X71083782Y-55218847D01*
X71096079Y-55198330D01*
X71110329Y-55179117D01*
X71126393Y-55161393D01*
X71144117Y-55145329D01*
X71163330Y-55131079D01*
X71183847Y-55118782D01*
X71205471Y-55108554D01*
X71227993Y-55100496D01*
X71251197Y-55094684D01*
X71274858Y-55091174D01*
X71298750Y-55090000D01*
X72211250Y-55090000D01*
X72235142Y-55091174D01*
X72235142Y-55091174D01*
G37*
D13*
X71755000Y-55577500D03*
D12*
G36*
X85055142Y-60134174D02*
G01*
X85078803Y-60137684D01*
X85102007Y-60143496D01*
X85124529Y-60151554D01*
X85146153Y-60161782D01*
X85166670Y-60174079D01*
X85185883Y-60188329D01*
X85203607Y-60204393D01*
X85219671Y-60222117D01*
X85233921Y-60241330D01*
X85246218Y-60261847D01*
X85256446Y-60283471D01*
X85264504Y-60305993D01*
X85270316Y-60329197D01*
X85273826Y-60352858D01*
X85275000Y-60376750D01*
X85275000Y-61289250D01*
X85273826Y-61313142D01*
X85270316Y-61336803D01*
X85264504Y-61360007D01*
X85256446Y-61382529D01*
X85246218Y-61404153D01*
X85233921Y-61424670D01*
X85219671Y-61443883D01*
X85203607Y-61461607D01*
X85185883Y-61477671D01*
X85166670Y-61491921D01*
X85146153Y-61504218D01*
X85124529Y-61514446D01*
X85102007Y-61522504D01*
X85078803Y-61528316D01*
X85055142Y-61531826D01*
X85031250Y-61533000D01*
X84543750Y-61533000D01*
X84519858Y-61531826D01*
X84496197Y-61528316D01*
X84472993Y-61522504D01*
X84450471Y-61514446D01*
X84428847Y-61504218D01*
X84408330Y-61491921D01*
X84389117Y-61477671D01*
X84371393Y-61461607D01*
X84355329Y-61443883D01*
X84341079Y-61424670D01*
X84328782Y-61404153D01*
X84318554Y-61382529D01*
X84310496Y-61360007D01*
X84304684Y-61336803D01*
X84301174Y-61313142D01*
X84300000Y-61289250D01*
X84300000Y-60376750D01*
X84301174Y-60352858D01*
X84304684Y-60329197D01*
X84310496Y-60305993D01*
X84318554Y-60283471D01*
X84328782Y-60261847D01*
X84341079Y-60241330D01*
X84355329Y-60222117D01*
X84371393Y-60204393D01*
X84389117Y-60188329D01*
X84408330Y-60174079D01*
X84428847Y-60161782D01*
X84450471Y-60151554D01*
X84472993Y-60143496D01*
X84496197Y-60137684D01*
X84519858Y-60134174D01*
X84543750Y-60133000D01*
X85031250Y-60133000D01*
X85055142Y-60134174D01*
X85055142Y-60134174D01*
G37*
D13*
X84787500Y-60833000D03*
D12*
G36*
X86930142Y-60134174D02*
G01*
X86953803Y-60137684D01*
X86977007Y-60143496D01*
X86999529Y-60151554D01*
X87021153Y-60161782D01*
X87041670Y-60174079D01*
X87060883Y-60188329D01*
X87078607Y-60204393D01*
X87094671Y-60222117D01*
X87108921Y-60241330D01*
X87121218Y-60261847D01*
X87131446Y-60283471D01*
X87139504Y-60305993D01*
X87145316Y-60329197D01*
X87148826Y-60352858D01*
X87150000Y-60376750D01*
X87150000Y-61289250D01*
X87148826Y-61313142D01*
X87145316Y-61336803D01*
X87139504Y-61360007D01*
X87131446Y-61382529D01*
X87121218Y-61404153D01*
X87108921Y-61424670D01*
X87094671Y-61443883D01*
X87078607Y-61461607D01*
X87060883Y-61477671D01*
X87041670Y-61491921D01*
X87021153Y-61504218D01*
X86999529Y-61514446D01*
X86977007Y-61522504D01*
X86953803Y-61528316D01*
X86930142Y-61531826D01*
X86906250Y-61533000D01*
X86418750Y-61533000D01*
X86394858Y-61531826D01*
X86371197Y-61528316D01*
X86347993Y-61522504D01*
X86325471Y-61514446D01*
X86303847Y-61504218D01*
X86283330Y-61491921D01*
X86264117Y-61477671D01*
X86246393Y-61461607D01*
X86230329Y-61443883D01*
X86216079Y-61424670D01*
X86203782Y-61404153D01*
X86193554Y-61382529D01*
X86185496Y-61360007D01*
X86179684Y-61336803D01*
X86176174Y-61313142D01*
X86175000Y-61289250D01*
X86175000Y-60376750D01*
X86176174Y-60352858D01*
X86179684Y-60329197D01*
X86185496Y-60305993D01*
X86193554Y-60283471D01*
X86203782Y-60261847D01*
X86216079Y-60241330D01*
X86230329Y-60222117D01*
X86246393Y-60204393D01*
X86264117Y-60188329D01*
X86283330Y-60174079D01*
X86303847Y-60161782D01*
X86325471Y-60151554D01*
X86347993Y-60143496D01*
X86371197Y-60137684D01*
X86394858Y-60134174D01*
X86418750Y-60133000D01*
X86906250Y-60133000D01*
X86930142Y-60134174D01*
X86930142Y-60134174D01*
G37*
D13*
X86662500Y-60833000D03*
D12*
G36*
X92047142Y-45947174D02*
G01*
X92070803Y-45950684D01*
X92094007Y-45956496D01*
X92116529Y-45964554D01*
X92138153Y-45974782D01*
X92158670Y-45987079D01*
X92177883Y-46001329D01*
X92195607Y-46017393D01*
X92211671Y-46035117D01*
X92225921Y-46054330D01*
X92238218Y-46074847D01*
X92248446Y-46096471D01*
X92256504Y-46118993D01*
X92262316Y-46142197D01*
X92265826Y-46165858D01*
X92267000Y-46189750D01*
X92267000Y-46677250D01*
X92265826Y-46701142D01*
X92262316Y-46724803D01*
X92256504Y-46748007D01*
X92248446Y-46770529D01*
X92238218Y-46792153D01*
X92225921Y-46812670D01*
X92211671Y-46831883D01*
X92195607Y-46849607D01*
X92177883Y-46865671D01*
X92158670Y-46879921D01*
X92138153Y-46892218D01*
X92116529Y-46902446D01*
X92094007Y-46910504D01*
X92070803Y-46916316D01*
X92047142Y-46919826D01*
X92023250Y-46921000D01*
X91110750Y-46921000D01*
X91086858Y-46919826D01*
X91063197Y-46916316D01*
X91039993Y-46910504D01*
X91017471Y-46902446D01*
X90995847Y-46892218D01*
X90975330Y-46879921D01*
X90956117Y-46865671D01*
X90938393Y-46849607D01*
X90922329Y-46831883D01*
X90908079Y-46812670D01*
X90895782Y-46792153D01*
X90885554Y-46770529D01*
X90877496Y-46748007D01*
X90871684Y-46724803D01*
X90868174Y-46701142D01*
X90867000Y-46677250D01*
X90867000Y-46189750D01*
X90868174Y-46165858D01*
X90871684Y-46142197D01*
X90877496Y-46118993D01*
X90885554Y-46096471D01*
X90895782Y-46074847D01*
X90908079Y-46054330D01*
X90922329Y-46035117D01*
X90938393Y-46017393D01*
X90956117Y-46001329D01*
X90975330Y-45987079D01*
X90995847Y-45974782D01*
X91017471Y-45964554D01*
X91039993Y-45956496D01*
X91063197Y-45950684D01*
X91086858Y-45947174D01*
X91110750Y-45946000D01*
X92023250Y-45946000D01*
X92047142Y-45947174D01*
X92047142Y-45947174D01*
G37*
D13*
X91567000Y-46433500D03*
D12*
G36*
X92047142Y-47822174D02*
G01*
X92070803Y-47825684D01*
X92094007Y-47831496D01*
X92116529Y-47839554D01*
X92138153Y-47849782D01*
X92158670Y-47862079D01*
X92177883Y-47876329D01*
X92195607Y-47892393D01*
X92211671Y-47910117D01*
X92225921Y-47929330D01*
X92238218Y-47949847D01*
X92248446Y-47971471D01*
X92256504Y-47993993D01*
X92262316Y-48017197D01*
X92265826Y-48040858D01*
X92267000Y-48064750D01*
X92267000Y-48552250D01*
X92265826Y-48576142D01*
X92262316Y-48599803D01*
X92256504Y-48623007D01*
X92248446Y-48645529D01*
X92238218Y-48667153D01*
X92225921Y-48687670D01*
X92211671Y-48706883D01*
X92195607Y-48724607D01*
X92177883Y-48740671D01*
X92158670Y-48754921D01*
X92138153Y-48767218D01*
X92116529Y-48777446D01*
X92094007Y-48785504D01*
X92070803Y-48791316D01*
X92047142Y-48794826D01*
X92023250Y-48796000D01*
X91110750Y-48796000D01*
X91086858Y-48794826D01*
X91063197Y-48791316D01*
X91039993Y-48785504D01*
X91017471Y-48777446D01*
X90995847Y-48767218D01*
X90975330Y-48754921D01*
X90956117Y-48740671D01*
X90938393Y-48724607D01*
X90922329Y-48706883D01*
X90908079Y-48687670D01*
X90895782Y-48667153D01*
X90885554Y-48645529D01*
X90877496Y-48623007D01*
X90871684Y-48599803D01*
X90868174Y-48576142D01*
X90867000Y-48552250D01*
X90867000Y-48064750D01*
X90868174Y-48040858D01*
X90871684Y-48017197D01*
X90877496Y-47993993D01*
X90885554Y-47971471D01*
X90895782Y-47949847D01*
X90908079Y-47929330D01*
X90922329Y-47910117D01*
X90938393Y-47892393D01*
X90956117Y-47876329D01*
X90975330Y-47862079D01*
X90995847Y-47849782D01*
X91017471Y-47839554D01*
X91039993Y-47831496D01*
X91063197Y-47825684D01*
X91086858Y-47822174D01*
X91110750Y-47821000D01*
X92023250Y-47821000D01*
X92047142Y-47822174D01*
X92047142Y-47822174D01*
G37*
D13*
X91567000Y-48308500D03*
D12*
G36*
X74648142Y-39724174D02*
G01*
X74671803Y-39727684D01*
X74695007Y-39733496D01*
X74717529Y-39741554D01*
X74739153Y-39751782D01*
X74759670Y-39764079D01*
X74778883Y-39778329D01*
X74796607Y-39794393D01*
X74812671Y-39812117D01*
X74826921Y-39831330D01*
X74839218Y-39851847D01*
X74849446Y-39873471D01*
X74857504Y-39895993D01*
X74863316Y-39919197D01*
X74866826Y-39942858D01*
X74868000Y-39966750D01*
X74868000Y-40454250D01*
X74866826Y-40478142D01*
X74863316Y-40501803D01*
X74857504Y-40525007D01*
X74849446Y-40547529D01*
X74839218Y-40569153D01*
X74826921Y-40589670D01*
X74812671Y-40608883D01*
X74796607Y-40626607D01*
X74778883Y-40642671D01*
X74759670Y-40656921D01*
X74739153Y-40669218D01*
X74717529Y-40679446D01*
X74695007Y-40687504D01*
X74671803Y-40693316D01*
X74648142Y-40696826D01*
X74624250Y-40698000D01*
X73711750Y-40698000D01*
X73687858Y-40696826D01*
X73664197Y-40693316D01*
X73640993Y-40687504D01*
X73618471Y-40679446D01*
X73596847Y-40669218D01*
X73576330Y-40656921D01*
X73557117Y-40642671D01*
X73539393Y-40626607D01*
X73523329Y-40608883D01*
X73509079Y-40589670D01*
X73496782Y-40569153D01*
X73486554Y-40547529D01*
X73478496Y-40525007D01*
X73472684Y-40501803D01*
X73469174Y-40478142D01*
X73468000Y-40454250D01*
X73468000Y-39966750D01*
X73469174Y-39942858D01*
X73472684Y-39919197D01*
X73478496Y-39895993D01*
X73486554Y-39873471D01*
X73496782Y-39851847D01*
X73509079Y-39831330D01*
X73523329Y-39812117D01*
X73539393Y-39794393D01*
X73557117Y-39778329D01*
X73576330Y-39764079D01*
X73596847Y-39751782D01*
X73618471Y-39741554D01*
X73640993Y-39733496D01*
X73664197Y-39727684D01*
X73687858Y-39724174D01*
X73711750Y-39723000D01*
X74624250Y-39723000D01*
X74648142Y-39724174D01*
X74648142Y-39724174D01*
G37*
D13*
X74168000Y-40210500D03*
D12*
G36*
X74648142Y-41599174D02*
G01*
X74671803Y-41602684D01*
X74695007Y-41608496D01*
X74717529Y-41616554D01*
X74739153Y-41626782D01*
X74759670Y-41639079D01*
X74778883Y-41653329D01*
X74796607Y-41669393D01*
X74812671Y-41687117D01*
X74826921Y-41706330D01*
X74839218Y-41726847D01*
X74849446Y-41748471D01*
X74857504Y-41770993D01*
X74863316Y-41794197D01*
X74866826Y-41817858D01*
X74868000Y-41841750D01*
X74868000Y-42329250D01*
X74866826Y-42353142D01*
X74863316Y-42376803D01*
X74857504Y-42400007D01*
X74849446Y-42422529D01*
X74839218Y-42444153D01*
X74826921Y-42464670D01*
X74812671Y-42483883D01*
X74796607Y-42501607D01*
X74778883Y-42517671D01*
X74759670Y-42531921D01*
X74739153Y-42544218D01*
X74717529Y-42554446D01*
X74695007Y-42562504D01*
X74671803Y-42568316D01*
X74648142Y-42571826D01*
X74624250Y-42573000D01*
X73711750Y-42573000D01*
X73687858Y-42571826D01*
X73664197Y-42568316D01*
X73640993Y-42562504D01*
X73618471Y-42554446D01*
X73596847Y-42544218D01*
X73576330Y-42531921D01*
X73557117Y-42517671D01*
X73539393Y-42501607D01*
X73523329Y-42483883D01*
X73509079Y-42464670D01*
X73496782Y-42444153D01*
X73486554Y-42422529D01*
X73478496Y-42400007D01*
X73472684Y-42376803D01*
X73469174Y-42353142D01*
X73468000Y-42329250D01*
X73468000Y-41841750D01*
X73469174Y-41817858D01*
X73472684Y-41794197D01*
X73478496Y-41770993D01*
X73486554Y-41748471D01*
X73496782Y-41726847D01*
X73509079Y-41706330D01*
X73523329Y-41687117D01*
X73539393Y-41669393D01*
X73557117Y-41653329D01*
X73576330Y-41639079D01*
X73596847Y-41626782D01*
X73618471Y-41616554D01*
X73640993Y-41608496D01*
X73664197Y-41602684D01*
X73687858Y-41599174D01*
X73711750Y-41598000D01*
X74624250Y-41598000D01*
X74648142Y-41599174D01*
X74648142Y-41599174D01*
G37*
D13*
X74168000Y-42085500D03*
D12*
G36*
X77188142Y-37994674D02*
G01*
X77211803Y-37998184D01*
X77235007Y-38003996D01*
X77257529Y-38012054D01*
X77279153Y-38022282D01*
X77299670Y-38034579D01*
X77318883Y-38048829D01*
X77336607Y-38064893D01*
X77352671Y-38082617D01*
X77366921Y-38101830D01*
X77379218Y-38122347D01*
X77389446Y-38143971D01*
X77397504Y-38166493D01*
X77403316Y-38189697D01*
X77406826Y-38213358D01*
X77408000Y-38237250D01*
X77408000Y-38724750D01*
X77406826Y-38748642D01*
X77403316Y-38772303D01*
X77397504Y-38795507D01*
X77389446Y-38818029D01*
X77379218Y-38839653D01*
X77366921Y-38860170D01*
X77352671Y-38879383D01*
X77336607Y-38897107D01*
X77318883Y-38913171D01*
X77299670Y-38927421D01*
X77279153Y-38939718D01*
X77257529Y-38949946D01*
X77235007Y-38958004D01*
X77211803Y-38963816D01*
X77188142Y-38967326D01*
X77164250Y-38968500D01*
X76251750Y-38968500D01*
X76227858Y-38967326D01*
X76204197Y-38963816D01*
X76180993Y-38958004D01*
X76158471Y-38949946D01*
X76136847Y-38939718D01*
X76116330Y-38927421D01*
X76097117Y-38913171D01*
X76079393Y-38897107D01*
X76063329Y-38879383D01*
X76049079Y-38860170D01*
X76036782Y-38839653D01*
X76026554Y-38818029D01*
X76018496Y-38795507D01*
X76012684Y-38772303D01*
X76009174Y-38748642D01*
X76008000Y-38724750D01*
X76008000Y-38237250D01*
X76009174Y-38213358D01*
X76012684Y-38189697D01*
X76018496Y-38166493D01*
X76026554Y-38143971D01*
X76036782Y-38122347D01*
X76049079Y-38101830D01*
X76063329Y-38082617D01*
X76079393Y-38064893D01*
X76097117Y-38048829D01*
X76116330Y-38034579D01*
X76136847Y-38022282D01*
X76158471Y-38012054D01*
X76180993Y-38003996D01*
X76204197Y-37998184D01*
X76227858Y-37994674D01*
X76251750Y-37993500D01*
X77164250Y-37993500D01*
X77188142Y-37994674D01*
X77188142Y-37994674D01*
G37*
D13*
X76708000Y-38481000D03*
D12*
G36*
X77188142Y-36119674D02*
G01*
X77211803Y-36123184D01*
X77235007Y-36128996D01*
X77257529Y-36137054D01*
X77279153Y-36147282D01*
X77299670Y-36159579D01*
X77318883Y-36173829D01*
X77336607Y-36189893D01*
X77352671Y-36207617D01*
X77366921Y-36226830D01*
X77379218Y-36247347D01*
X77389446Y-36268971D01*
X77397504Y-36291493D01*
X77403316Y-36314697D01*
X77406826Y-36338358D01*
X77408000Y-36362250D01*
X77408000Y-36849750D01*
X77406826Y-36873642D01*
X77403316Y-36897303D01*
X77397504Y-36920507D01*
X77389446Y-36943029D01*
X77379218Y-36964653D01*
X77366921Y-36985170D01*
X77352671Y-37004383D01*
X77336607Y-37022107D01*
X77318883Y-37038171D01*
X77299670Y-37052421D01*
X77279153Y-37064718D01*
X77257529Y-37074946D01*
X77235007Y-37083004D01*
X77211803Y-37088816D01*
X77188142Y-37092326D01*
X77164250Y-37093500D01*
X76251750Y-37093500D01*
X76227858Y-37092326D01*
X76204197Y-37088816D01*
X76180993Y-37083004D01*
X76158471Y-37074946D01*
X76136847Y-37064718D01*
X76116330Y-37052421D01*
X76097117Y-37038171D01*
X76079393Y-37022107D01*
X76063329Y-37004383D01*
X76049079Y-36985170D01*
X76036782Y-36964653D01*
X76026554Y-36943029D01*
X76018496Y-36920507D01*
X76012684Y-36897303D01*
X76009174Y-36873642D01*
X76008000Y-36849750D01*
X76008000Y-36362250D01*
X76009174Y-36338358D01*
X76012684Y-36314697D01*
X76018496Y-36291493D01*
X76026554Y-36268971D01*
X76036782Y-36247347D01*
X76049079Y-36226830D01*
X76063329Y-36207617D01*
X76079393Y-36189893D01*
X76097117Y-36173829D01*
X76116330Y-36159579D01*
X76136847Y-36147282D01*
X76158471Y-36137054D01*
X76180993Y-36128996D01*
X76204197Y-36123184D01*
X76227858Y-36119674D01*
X76251750Y-36118500D01*
X77164250Y-36118500D01*
X77188142Y-36119674D01*
X77188142Y-36119674D01*
G37*
D13*
X76708000Y-36606000D03*
D12*
G36*
X87729142Y-36168174D02*
G01*
X87752803Y-36171684D01*
X87776007Y-36177496D01*
X87798529Y-36185554D01*
X87820153Y-36195782D01*
X87840670Y-36208079D01*
X87859883Y-36222329D01*
X87877607Y-36238393D01*
X87893671Y-36256117D01*
X87907921Y-36275330D01*
X87920218Y-36295847D01*
X87930446Y-36317471D01*
X87938504Y-36339993D01*
X87944316Y-36363197D01*
X87947826Y-36386858D01*
X87949000Y-36410750D01*
X87949000Y-36898250D01*
X87947826Y-36922142D01*
X87944316Y-36945803D01*
X87938504Y-36969007D01*
X87930446Y-36991529D01*
X87920218Y-37013153D01*
X87907921Y-37033670D01*
X87893671Y-37052883D01*
X87877607Y-37070607D01*
X87859883Y-37086671D01*
X87840670Y-37100921D01*
X87820153Y-37113218D01*
X87798529Y-37123446D01*
X87776007Y-37131504D01*
X87752803Y-37137316D01*
X87729142Y-37140826D01*
X87705250Y-37142000D01*
X86792750Y-37142000D01*
X86768858Y-37140826D01*
X86745197Y-37137316D01*
X86721993Y-37131504D01*
X86699471Y-37123446D01*
X86677847Y-37113218D01*
X86657330Y-37100921D01*
X86638117Y-37086671D01*
X86620393Y-37070607D01*
X86604329Y-37052883D01*
X86590079Y-37033670D01*
X86577782Y-37013153D01*
X86567554Y-36991529D01*
X86559496Y-36969007D01*
X86553684Y-36945803D01*
X86550174Y-36922142D01*
X86549000Y-36898250D01*
X86549000Y-36410750D01*
X86550174Y-36386858D01*
X86553684Y-36363197D01*
X86559496Y-36339993D01*
X86567554Y-36317471D01*
X86577782Y-36295847D01*
X86590079Y-36275330D01*
X86604329Y-36256117D01*
X86620393Y-36238393D01*
X86638117Y-36222329D01*
X86657330Y-36208079D01*
X86677847Y-36195782D01*
X86699471Y-36185554D01*
X86721993Y-36177496D01*
X86745197Y-36171684D01*
X86768858Y-36168174D01*
X86792750Y-36167000D01*
X87705250Y-36167000D01*
X87729142Y-36168174D01*
X87729142Y-36168174D01*
G37*
D13*
X87249000Y-36654500D03*
D12*
G36*
X87729142Y-38043174D02*
G01*
X87752803Y-38046684D01*
X87776007Y-38052496D01*
X87798529Y-38060554D01*
X87820153Y-38070782D01*
X87840670Y-38083079D01*
X87859883Y-38097329D01*
X87877607Y-38113393D01*
X87893671Y-38131117D01*
X87907921Y-38150330D01*
X87920218Y-38170847D01*
X87930446Y-38192471D01*
X87938504Y-38214993D01*
X87944316Y-38238197D01*
X87947826Y-38261858D01*
X87949000Y-38285750D01*
X87949000Y-38773250D01*
X87947826Y-38797142D01*
X87944316Y-38820803D01*
X87938504Y-38844007D01*
X87930446Y-38866529D01*
X87920218Y-38888153D01*
X87907921Y-38908670D01*
X87893671Y-38927883D01*
X87877607Y-38945607D01*
X87859883Y-38961671D01*
X87840670Y-38975921D01*
X87820153Y-38988218D01*
X87798529Y-38998446D01*
X87776007Y-39006504D01*
X87752803Y-39012316D01*
X87729142Y-39015826D01*
X87705250Y-39017000D01*
X86792750Y-39017000D01*
X86768858Y-39015826D01*
X86745197Y-39012316D01*
X86721993Y-39006504D01*
X86699471Y-38998446D01*
X86677847Y-38988218D01*
X86657330Y-38975921D01*
X86638117Y-38961671D01*
X86620393Y-38945607D01*
X86604329Y-38927883D01*
X86590079Y-38908670D01*
X86577782Y-38888153D01*
X86567554Y-38866529D01*
X86559496Y-38844007D01*
X86553684Y-38820803D01*
X86550174Y-38797142D01*
X86549000Y-38773250D01*
X86549000Y-38285750D01*
X86550174Y-38261858D01*
X86553684Y-38238197D01*
X86559496Y-38214993D01*
X86567554Y-38192471D01*
X86577782Y-38170847D01*
X86590079Y-38150330D01*
X86604329Y-38131117D01*
X86620393Y-38113393D01*
X86638117Y-38097329D01*
X86657330Y-38083079D01*
X86677847Y-38070782D01*
X86699471Y-38060554D01*
X86721993Y-38052496D01*
X86745197Y-38046684D01*
X86768858Y-38043174D01*
X86792750Y-38042000D01*
X87705250Y-38042000D01*
X87729142Y-38043174D01*
X87729142Y-38043174D01*
G37*
D13*
X87249000Y-38529500D03*
D24*
X74240000Y-42963000D03*
X74240000Y-44413000D03*
X88392000Y-60833000D03*
X92837000Y-60833000D03*
X75872990Y-58137500D03*
X75946000Y-61214000D03*
X74067000Y-55144000D03*
X74067000Y-48794000D03*
X93091000Y-48260000D03*
X67564000Y-62230000D03*
X68453000Y-40259000D03*
D25*
X80442000Y-43969000D02*
X80442000Y-45100000D01*
X80442000Y-42802500D02*
X80442000Y-43969000D01*
X76708000Y-38481000D02*
X76708000Y-39068500D01*
X80307501Y-44965501D02*
X80442000Y-45100000D01*
X80307501Y-44037599D02*
X80307501Y-44965501D01*
X74168000Y-40210500D02*
X76480402Y-40210500D01*
X76480402Y-40210500D02*
X80307501Y-44037599D01*
X82888000Y-35634000D02*
X82306000Y-35052000D01*
X82888000Y-36615000D02*
X82888000Y-35634000D01*
X82306000Y-35052000D02*
X75438000Y-35052000D01*
X75438000Y-35052000D02*
X74803000Y-35687000D01*
X75908000Y-38481000D02*
X74803000Y-37376000D01*
X76708000Y-38481000D02*
X75908000Y-38481000D01*
X74803000Y-37376000D02*
X74803000Y-35687000D01*
X80990902Y-38315000D02*
X80688000Y-38315000D01*
X82690902Y-36615000D02*
X80990902Y-38315000D01*
X82888000Y-36615000D02*
X82690902Y-36615000D01*
X87209500Y-36615000D02*
X87249000Y-36654500D01*
X82888000Y-36615000D02*
X87209500Y-36615000D01*
X84787500Y-60833000D02*
X84787500Y-59357500D01*
X85242000Y-58903000D02*
X85242000Y-56500000D01*
X84787500Y-59357500D02*
X85242000Y-58903000D01*
X91567000Y-46433500D02*
X89710500Y-46433500D01*
X89344000Y-46800000D02*
X87742000Y-46800000D01*
X89710500Y-46433500D02*
X89344000Y-46800000D01*
X91059000Y-57072500D02*
X91059000Y-59690000D01*
X91059000Y-56485000D02*
X91059000Y-57072500D01*
X91059000Y-59690000D02*
X88265000Y-62484000D01*
X84787500Y-60833000D02*
X84787500Y-61800500D01*
X85471000Y-62484000D02*
X86614000Y-62484000D01*
X84787500Y-61800500D02*
X85471000Y-62484000D01*
X88265000Y-62484000D02*
X86614000Y-62484000D01*
X86614000Y-62484000D02*
X86438500Y-62484000D01*
X71755000Y-57452500D02*
X71755000Y-58420000D01*
X71755000Y-58420000D02*
X72263000Y-58928000D01*
X78842000Y-57631000D02*
X78842000Y-56500000D01*
X77545000Y-58928000D02*
X78842000Y-57631000D01*
X72263000Y-58928000D02*
X77545000Y-58928000D01*
X71998500Y-51600000D02*
X76342000Y-51600000D01*
X69928500Y-49530000D02*
X71998500Y-51600000D01*
X68872000Y-51600000D02*
X71998500Y-51600000D01*
X67310000Y-50038000D02*
X68872000Y-51600000D01*
X76708000Y-39068500D02*
X80442000Y-42802500D01*
X59034000Y-65985000D02*
X57150000Y-64101000D01*
X59384000Y-65985000D02*
X59034000Y-65985000D01*
X57150000Y-64101000D02*
X57150000Y-59817000D01*
X59514500Y-57452500D02*
X71755000Y-57452500D01*
X57150000Y-59817000D02*
X59514500Y-57452500D01*
X86611000Y-46800000D02*
X87742000Y-46800000D01*
X80442000Y-46231000D02*
X81011000Y-46800000D01*
X80442000Y-45100000D02*
X80442000Y-46231000D01*
X85242000Y-56500000D02*
X85242000Y-55270000D01*
X83122000Y-53150000D02*
X83122000Y-46800000D01*
X85242000Y-55270000D02*
X83122000Y-53150000D01*
X81011000Y-46800000D02*
X83122000Y-46800000D01*
X83122000Y-46800000D02*
X86611000Y-46800000D01*
X78842000Y-55369000D02*
X78842000Y-56500000D01*
X81061000Y-53150000D02*
X78842000Y-55369000D01*
X83122000Y-53150000D02*
X81061000Y-53150000D01*
X79511000Y-51600000D02*
X76342000Y-51600000D01*
X81061000Y-53150000D02*
X79511000Y-51600000D01*
X64530000Y-38060000D02*
X64530000Y-39566000D01*
X67310000Y-42346000D02*
X67310000Y-44180000D01*
X64530000Y-39566000D02*
X67310000Y-42346000D01*
X67310000Y-43680000D02*
X67310000Y-44180000D01*
X67310000Y-44180000D02*
X67310000Y-50038000D01*
D26*
X83102500Y-38529500D02*
X82888000Y-38315000D01*
X87249000Y-38529500D02*
X83102500Y-38529500D01*
X82042000Y-44100000D02*
X82042000Y-45100000D01*
X82042000Y-40011000D02*
X82042000Y-44100000D01*
X82888000Y-39165000D02*
X82042000Y-40011000D01*
X82888000Y-38315000D02*
X82888000Y-39165000D01*
X80679000Y-36606000D02*
X80688000Y-36615000D01*
X76708000Y-36606000D02*
X80679000Y-36606000D01*
X81242000Y-42253000D02*
X81242000Y-45100000D01*
X80588000Y-36615000D02*
X80119000Y-37084000D01*
X80688000Y-36615000D02*
X80588000Y-36615000D01*
X80119000Y-37084000D02*
X79629000Y-37084000D01*
X79629000Y-37084000D02*
X78994000Y-37719000D01*
X78994000Y-37719000D02*
X78994000Y-40005000D01*
X78994000Y-40005000D02*
X81242000Y-42253000D01*
X75342000Y-50800000D02*
X76342000Y-50800000D01*
X73661000Y-50800000D02*
X75342000Y-50800000D01*
X72391000Y-49530000D02*
X73661000Y-50800000D01*
X71803500Y-49530000D02*
X72391000Y-49530000D01*
D25*
X74168000Y-42085500D02*
X77518500Y-42085500D01*
X79642000Y-44209000D02*
X79642000Y-45100000D01*
X77518500Y-42085500D02*
X79642000Y-44209000D01*
X86662500Y-60833000D02*
X86662500Y-59611500D01*
X86042000Y-58991000D02*
X86042000Y-56500000D01*
X86662500Y-59611500D02*
X86042000Y-58991000D01*
X90058500Y-47600000D02*
X87742000Y-47600000D01*
X91567000Y-48308500D02*
X90767000Y-48308500D01*
X90767000Y-48308500D02*
X90058500Y-47600000D01*
X78042000Y-57594000D02*
X78042000Y-56500000D01*
X71755000Y-55577500D02*
X72849500Y-55577500D01*
X73533000Y-56261000D02*
X73533000Y-57531000D01*
X73533000Y-57531000D02*
X74348990Y-58346990D01*
X77289010Y-58346990D02*
X78042000Y-57594000D01*
X70955000Y-55577500D02*
X71755000Y-55577500D01*
X64371500Y-55577500D02*
X70955000Y-55577500D01*
X58547000Y-49753000D02*
X64371500Y-55577500D01*
X58547000Y-49028000D02*
X58547000Y-49753000D01*
X74168000Y-42085500D02*
X74168000Y-42673000D01*
X74168000Y-42673000D02*
X74168000Y-42891000D01*
X74168000Y-42891000D02*
X74240000Y-42963000D01*
X72939500Y-44413000D02*
X70739000Y-42212500D01*
X74240000Y-44413000D02*
X72939500Y-44413000D01*
X86662500Y-60833000D02*
X88392000Y-60833000D01*
X76207501Y-49865501D02*
X76342000Y-50000000D01*
X75279599Y-49865501D02*
X76207501Y-49865501D01*
X73840001Y-48425903D02*
X75279599Y-49865501D01*
X74240000Y-44413000D02*
X73840001Y-44812999D01*
X73840001Y-44812999D02*
X73840001Y-48425903D01*
X73458000Y-55753000D02*
X73025000Y-55753000D01*
X76342000Y-54000000D02*
X75211000Y-54000000D01*
X72849500Y-55577500D02*
X73025000Y-55753000D01*
X73025000Y-55753000D02*
X73533000Y-56261000D01*
X92837000Y-61398685D02*
X90989685Y-63246000D01*
X92837000Y-60833000D02*
X92837000Y-61398685D01*
X75872990Y-58346990D02*
X75872990Y-58137500D01*
X75872990Y-58346990D02*
X77289010Y-58346990D01*
X74348990Y-58346990D02*
X75872990Y-58346990D01*
X76345999Y-61613999D02*
X78123999Y-61613999D01*
X75946000Y-61214000D02*
X76345999Y-61613999D01*
X79756000Y-63246000D02*
X90989685Y-63246000D01*
X78123999Y-61613999D02*
X79756000Y-63246000D01*
X74067000Y-55144000D02*
X73458000Y-55753000D01*
X75211000Y-54000000D02*
X74067000Y-55144000D01*
X91567000Y-48308500D02*
X93042500Y-48308500D01*
X93042500Y-48308500D02*
X93091000Y-48260000D01*
D26*
X115062000Y-39752000D02*
X115062000Y-39052000D01*
X112785000Y-36775000D02*
X113633500Y-37623500D01*
X109656250Y-36775000D02*
X112785000Y-36775000D01*
X115062000Y-39052000D02*
X113633500Y-37623500D01*
X113633500Y-37623500D02*
X113094000Y-37084000D01*
X134239000Y-43752000D02*
X133795000Y-44196000D01*
X134239000Y-43052000D02*
X134239000Y-43752000D01*
X115912000Y-43052000D02*
X115062000Y-43052000D01*
X117056000Y-44196000D02*
X115912000Y-43052000D01*
X133795000Y-44196000D02*
X117056000Y-44196000D01*
X88742000Y-50000000D02*
X87742000Y-50000000D01*
X108814000Y-50000000D02*
X88742000Y-50000000D01*
X115062000Y-43752000D02*
X108814000Y-50000000D01*
X115062000Y-43052000D02*
X115062000Y-43752000D01*
X128706250Y-36775000D02*
X132533000Y-36775000D01*
X134239000Y-38481000D02*
X134239000Y-39752000D01*
X132533000Y-36775000D02*
X134239000Y-38481000D01*
X113039000Y-55825000D02*
X112086000Y-55825000D01*
X115189000Y-57975000D02*
X113039000Y-55825000D01*
X115189000Y-58675000D02*
X115189000Y-57975000D01*
X109688000Y-55825000D02*
X112086000Y-55825000D01*
X112086000Y-55825000D02*
X112594000Y-55825000D01*
X134089000Y-61975000D02*
X132691000Y-63373000D01*
X134239000Y-61975000D02*
X134089000Y-61975000D01*
X116039000Y-61975000D02*
X115189000Y-61975000D01*
X117437000Y-63373000D02*
X116039000Y-61975000D01*
X132691000Y-63373000D02*
X117437000Y-63373000D01*
X88742000Y-52400000D02*
X87742000Y-52400000D01*
X90353350Y-52400000D02*
X88742000Y-52400000D01*
X100597251Y-62643901D02*
X90353350Y-52400000D01*
X113670099Y-62643901D02*
X100597251Y-62643901D01*
X114339000Y-61975000D02*
X113670099Y-62643901D01*
X115189000Y-61975000D02*
X114339000Y-61975000D01*
X128706250Y-55825000D02*
X132787000Y-55825000D01*
X134239000Y-57277000D02*
X134239000Y-58675000D01*
X132787000Y-55825000D02*
X134239000Y-57277000D01*
D25*
X61330000Y-39566000D02*
X58547000Y-42349000D01*
X61330000Y-38060000D02*
X61330000Y-39566000D01*
X58547000Y-42349000D02*
X58547000Y-43587000D01*
X58547000Y-46228000D02*
X58547000Y-43587000D01*
X58547000Y-43587000D02*
X58547000Y-42813000D01*
D26*
X97193000Y-51600000D02*
X87742000Y-51600000D01*
X103378000Y-57785000D02*
X97193000Y-51600000D01*
X115411250Y-50800000D02*
X87742000Y-50800000D01*
X122396250Y-57785000D02*
X115411250Y-50800000D01*
X78842000Y-44289998D02*
X78842000Y-45100000D01*
X71960500Y-40337500D02*
X72517000Y-40894000D01*
X70739000Y-40337500D02*
X71960500Y-40337500D01*
X72517000Y-42545000D02*
X73660000Y-43688000D01*
X72517000Y-40894000D02*
X72517000Y-42545000D01*
X73660000Y-43688000D02*
X78240002Y-43688000D01*
X78240002Y-43688000D02*
X78842000Y-44289998D01*
X66734000Y-62285000D02*
X66789000Y-62230000D01*
X65584000Y-62285000D02*
X66734000Y-62285000D01*
X66789000Y-62230000D02*
X67564000Y-62230000D01*
X70660500Y-40259000D02*
X70739000Y-40337500D01*
X68453000Y-40259000D02*
X70660500Y-40259000D01*
X62930000Y-40783500D02*
X64135000Y-41988500D01*
X62930000Y-38060000D02*
X62930000Y-40783500D01*
X66751000Y-52400000D02*
X76342000Y-52400000D01*
X64135000Y-43863500D02*
X64135000Y-49784000D01*
X64135000Y-49784000D02*
X66751000Y-52400000D01*
X62130000Y-40818500D02*
X60960000Y-41988500D01*
X62130000Y-38060000D02*
X62130000Y-40818500D01*
X66662000Y-53200000D02*
X76342000Y-53200000D01*
X60960000Y-43863500D02*
X60960000Y-47498000D01*
X60960000Y-47498000D02*
X66662000Y-53200000D01*
X91059000Y-54610000D02*
X89789000Y-54610000D01*
X89599000Y-54800000D02*
X87742000Y-54800000D01*
X89789000Y-54610000D02*
X89599000Y-54800000D01*
X66580000Y-33560000D02*
X66580000Y-35160000D01*
X59280000Y-33560000D02*
X60380000Y-33560000D01*
X59280000Y-33560000D02*
X66580000Y-33560000D01*
X66580000Y-33560000D02*
X66580000Y-38060000D01*
X59280000Y-33560000D02*
X59280000Y-38060000D01*
D27*
G36*
X80515815Y-46301185D02*
G01*
X80612506Y-46380537D01*
X80635667Y-46392917D01*
X80727750Y-46485000D01*
X80841337Y-46475454D01*
X80842518Y-46475812D01*
X80967000Y-46488072D01*
X81517000Y-46488072D01*
X81641482Y-46475812D01*
X81642000Y-46475655D01*
X81642518Y-46475812D01*
X81767000Y-46488072D01*
X82317000Y-46488072D01*
X82441482Y-46475812D01*
X82442000Y-46475655D01*
X82442518Y-46475812D01*
X82567000Y-46488072D01*
X83117000Y-46488072D01*
X83241482Y-46475812D01*
X83242000Y-46475655D01*
X83242518Y-46475812D01*
X83367000Y-46488072D01*
X83917000Y-46488072D01*
X84041482Y-46475812D01*
X84042000Y-46475655D01*
X84042518Y-46475812D01*
X84167000Y-46488072D01*
X84717000Y-46488072D01*
X84841482Y-46475812D01*
X84842000Y-46475655D01*
X84842518Y-46475812D01*
X84967000Y-46488072D01*
X85517000Y-46488072D01*
X85641482Y-46475812D01*
X85642000Y-46475655D01*
X85642518Y-46475812D01*
X85767000Y-46488072D01*
X86317000Y-46488072D01*
X86359552Y-46483881D01*
X86357000Y-46514250D01*
X86515750Y-46673000D01*
X86614000Y-46673000D01*
X86614000Y-46813754D01*
X86540815Y-46873815D01*
X86461463Y-46970506D01*
X86449083Y-46993667D01*
X86357000Y-47085750D01*
X86366546Y-47199337D01*
X86366188Y-47200518D01*
X86353928Y-47325000D01*
X86353928Y-47875000D01*
X86366188Y-47999482D01*
X86366345Y-48000000D01*
X86366188Y-48000518D01*
X86353928Y-48125000D01*
X86353928Y-48675000D01*
X86366188Y-48799482D01*
X86366345Y-48800000D01*
X86366188Y-48800518D01*
X86353928Y-48925000D01*
X86353928Y-49475000D01*
X86366188Y-49599482D01*
X86366345Y-49600000D01*
X86366188Y-49600518D01*
X86353928Y-49725000D01*
X86353928Y-50275000D01*
X86366188Y-50399482D01*
X86366345Y-50400000D01*
X86366188Y-50400518D01*
X86353928Y-50525000D01*
X86353928Y-51075000D01*
X86366188Y-51199482D01*
X86366345Y-51200000D01*
X86366188Y-51200518D01*
X86353928Y-51325000D01*
X86353928Y-51875000D01*
X86366188Y-51999482D01*
X86366345Y-52000000D01*
X86366188Y-52000518D01*
X86353928Y-52125000D01*
X86353928Y-52675000D01*
X86366188Y-52799482D01*
X86366345Y-52800000D01*
X86366188Y-52800518D01*
X86353928Y-52925000D01*
X86353928Y-53475000D01*
X86366188Y-53599482D01*
X86366345Y-53600000D01*
X86366188Y-53600518D01*
X86353928Y-53725000D01*
X86353928Y-54275000D01*
X86366188Y-54399482D01*
X86366345Y-54400000D01*
X86366188Y-54400518D01*
X86353928Y-54525000D01*
X86353928Y-55075000D01*
X86357962Y-55115962D01*
X86317000Y-55111928D01*
X85767000Y-55111928D01*
X85642518Y-55124188D01*
X85641337Y-55124546D01*
X85527750Y-55115000D01*
X85435667Y-55207083D01*
X85412506Y-55219463D01*
X85315815Y-55298815D01*
X85255754Y-55372000D01*
X85228246Y-55372000D01*
X85168185Y-55298815D01*
X85071494Y-55219463D01*
X85048333Y-55207083D01*
X84956250Y-55115000D01*
X84842663Y-55124546D01*
X84841482Y-55124188D01*
X84717000Y-55111928D01*
X84167000Y-55111928D01*
X84042518Y-55124188D01*
X84042000Y-55124345D01*
X84041482Y-55124188D01*
X83917000Y-55111928D01*
X83367000Y-55111928D01*
X83242518Y-55124188D01*
X83242000Y-55124345D01*
X83241482Y-55124188D01*
X83117000Y-55111928D01*
X82567000Y-55111928D01*
X82442518Y-55124188D01*
X82442000Y-55124345D01*
X82441482Y-55124188D01*
X82317000Y-55111928D01*
X81767000Y-55111928D01*
X81642518Y-55124188D01*
X81642000Y-55124345D01*
X81641482Y-55124188D01*
X81517000Y-55111928D01*
X80967000Y-55111928D01*
X80842518Y-55124188D01*
X80842000Y-55124345D01*
X80841482Y-55124188D01*
X80717000Y-55111928D01*
X80167000Y-55111928D01*
X80042518Y-55124188D01*
X80042000Y-55124345D01*
X80041482Y-55124188D01*
X79917000Y-55111928D01*
X79367000Y-55111928D01*
X79242518Y-55124188D01*
X79241337Y-55124546D01*
X79127750Y-55115000D01*
X79035667Y-55207083D01*
X79012506Y-55219463D01*
X78915815Y-55298815D01*
X78855754Y-55372000D01*
X78828246Y-55372000D01*
X78768185Y-55298815D01*
X78671494Y-55219463D01*
X78648333Y-55207083D01*
X78556250Y-55115000D01*
X78442663Y-55124546D01*
X78441482Y-55124188D01*
X78317000Y-55111928D01*
X77767000Y-55111928D01*
X77726038Y-55115962D01*
X77730072Y-55075000D01*
X77730072Y-54525000D01*
X77717812Y-54400518D01*
X77717655Y-54400000D01*
X77717812Y-54399482D01*
X77730072Y-54275000D01*
X77730072Y-53725000D01*
X77717812Y-53600518D01*
X77717655Y-53600000D01*
X77717812Y-53599482D01*
X77730072Y-53475000D01*
X77730072Y-52925000D01*
X77717812Y-52800518D01*
X77717655Y-52800000D01*
X77717812Y-52799482D01*
X77730072Y-52675000D01*
X77730072Y-52125000D01*
X77717812Y-52000518D01*
X77717454Y-51999337D01*
X77727000Y-51885750D01*
X77634917Y-51793667D01*
X77622537Y-51770506D01*
X77543185Y-51673815D01*
X77521938Y-51656378D01*
X77523479Y-51542357D01*
X77543185Y-51526185D01*
X77622537Y-51429494D01*
X77634917Y-51406333D01*
X77727000Y-51314250D01*
X77717454Y-51200663D01*
X77717812Y-51199482D01*
X77730072Y-51075000D01*
X77730072Y-50525000D01*
X77717812Y-50400518D01*
X77717655Y-50400000D01*
X77717812Y-50399482D01*
X77730072Y-50275000D01*
X77730072Y-49725000D01*
X77717812Y-49600518D01*
X77717655Y-49600000D01*
X77717812Y-49599482D01*
X77730072Y-49475000D01*
X77730072Y-48925000D01*
X77717812Y-48800518D01*
X77717655Y-48800000D01*
X77717812Y-48799482D01*
X77730072Y-48675000D01*
X77730072Y-48125000D01*
X77717812Y-48000518D01*
X77717655Y-48000000D01*
X77717812Y-47999482D01*
X77730072Y-47875000D01*
X77730072Y-47325000D01*
X77717812Y-47200518D01*
X77717655Y-47200000D01*
X77717812Y-47199482D01*
X77730072Y-47075000D01*
X77730072Y-46525000D01*
X77726038Y-46484038D01*
X77767000Y-46488072D01*
X78317000Y-46488072D01*
X78441482Y-46475812D01*
X78442000Y-46475655D01*
X78442518Y-46475812D01*
X78567000Y-46488072D01*
X79117000Y-46488072D01*
X79241482Y-46475812D01*
X79242000Y-46475655D01*
X79242518Y-46475812D01*
X79367000Y-46488072D01*
X79917000Y-46488072D01*
X80041482Y-46475812D01*
X80042663Y-46475454D01*
X80156250Y-46485000D01*
X80248333Y-46392917D01*
X80271494Y-46380537D01*
X80368185Y-46301185D01*
X80428246Y-46228000D01*
X80455754Y-46228000D01*
X80515815Y-46301185D01*
X80515815Y-46301185D01*
G37*
X80515815Y-46301185D02*
X80612506Y-46380537D01*
X80635667Y-46392917D01*
X80727750Y-46485000D01*
X80841337Y-46475454D01*
X80842518Y-46475812D01*
X80967000Y-46488072D01*
X81517000Y-46488072D01*
X81641482Y-46475812D01*
X81642000Y-46475655D01*
X81642518Y-46475812D01*
X81767000Y-46488072D01*
X82317000Y-46488072D01*
X82441482Y-46475812D01*
X82442000Y-46475655D01*
X82442518Y-46475812D01*
X82567000Y-46488072D01*
X83117000Y-46488072D01*
X83241482Y-46475812D01*
X83242000Y-46475655D01*
X83242518Y-46475812D01*
X83367000Y-46488072D01*
X83917000Y-46488072D01*
X84041482Y-46475812D01*
X84042000Y-46475655D01*
X84042518Y-46475812D01*
X84167000Y-46488072D01*
X84717000Y-46488072D01*
X84841482Y-46475812D01*
X84842000Y-46475655D01*
X84842518Y-46475812D01*
X84967000Y-46488072D01*
X85517000Y-46488072D01*
X85641482Y-46475812D01*
X85642000Y-46475655D01*
X85642518Y-46475812D01*
X85767000Y-46488072D01*
X86317000Y-46488072D01*
X86359552Y-46483881D01*
X86357000Y-46514250D01*
X86515750Y-46673000D01*
X86614000Y-46673000D01*
X86614000Y-46813754D01*
X86540815Y-46873815D01*
X86461463Y-46970506D01*
X86449083Y-46993667D01*
X86357000Y-47085750D01*
X86366546Y-47199337D01*
X86366188Y-47200518D01*
X86353928Y-47325000D01*
X86353928Y-47875000D01*
X86366188Y-47999482D01*
X86366345Y-48000000D01*
X86366188Y-48000518D01*
X86353928Y-48125000D01*
X86353928Y-48675000D01*
X86366188Y-48799482D01*
X86366345Y-48800000D01*
X86366188Y-48800518D01*
X86353928Y-48925000D01*
X86353928Y-49475000D01*
X86366188Y-49599482D01*
X86366345Y-49600000D01*
X86366188Y-49600518D01*
X86353928Y-49725000D01*
X86353928Y-50275000D01*
X86366188Y-50399482D01*
X86366345Y-50400000D01*
X86366188Y-50400518D01*
X86353928Y-50525000D01*
X86353928Y-51075000D01*
X86366188Y-51199482D01*
X86366345Y-51200000D01*
X86366188Y-51200518D01*
X86353928Y-51325000D01*
X86353928Y-51875000D01*
X86366188Y-51999482D01*
X86366345Y-52000000D01*
X86366188Y-52000518D01*
X86353928Y-52125000D01*
X86353928Y-52675000D01*
X86366188Y-52799482D01*
X86366345Y-52800000D01*
X86366188Y-52800518D01*
X86353928Y-52925000D01*
X86353928Y-53475000D01*
X86366188Y-53599482D01*
X86366345Y-53600000D01*
X86366188Y-53600518D01*
X86353928Y-53725000D01*
X86353928Y-54275000D01*
X86366188Y-54399482D01*
X86366345Y-54400000D01*
X86366188Y-54400518D01*
X86353928Y-54525000D01*
X86353928Y-55075000D01*
X86357962Y-55115962D01*
X86317000Y-55111928D01*
X85767000Y-55111928D01*
X85642518Y-55124188D01*
X85641337Y-55124546D01*
X85527750Y-55115000D01*
X85435667Y-55207083D01*
X85412506Y-55219463D01*
X85315815Y-55298815D01*
X85255754Y-55372000D01*
X85228246Y-55372000D01*
X85168185Y-55298815D01*
X85071494Y-55219463D01*
X85048333Y-55207083D01*
X84956250Y-55115000D01*
X84842663Y-55124546D01*
X84841482Y-55124188D01*
X84717000Y-55111928D01*
X84167000Y-55111928D01*
X84042518Y-55124188D01*
X84042000Y-55124345D01*
X84041482Y-55124188D01*
X83917000Y-55111928D01*
X83367000Y-55111928D01*
X83242518Y-55124188D01*
X83242000Y-55124345D01*
X83241482Y-55124188D01*
X83117000Y-55111928D01*
X82567000Y-55111928D01*
X82442518Y-55124188D01*
X82442000Y-55124345D01*
X82441482Y-55124188D01*
X82317000Y-55111928D01*
X81767000Y-55111928D01*
X81642518Y-55124188D01*
X81642000Y-55124345D01*
X81641482Y-55124188D01*
X81517000Y-55111928D01*
X80967000Y-55111928D01*
X80842518Y-55124188D01*
X80842000Y-55124345D01*
X80841482Y-55124188D01*
X80717000Y-55111928D01*
X80167000Y-55111928D01*
X80042518Y-55124188D01*
X80042000Y-55124345D01*
X80041482Y-55124188D01*
X79917000Y-55111928D01*
X79367000Y-55111928D01*
X79242518Y-55124188D01*
X79241337Y-55124546D01*
X79127750Y-55115000D01*
X79035667Y-55207083D01*
X79012506Y-55219463D01*
X78915815Y-55298815D01*
X78855754Y-55372000D01*
X78828246Y-55372000D01*
X78768185Y-55298815D01*
X78671494Y-55219463D01*
X78648333Y-55207083D01*
X78556250Y-55115000D01*
X78442663Y-55124546D01*
X78441482Y-55124188D01*
X78317000Y-55111928D01*
X77767000Y-55111928D01*
X77726038Y-55115962D01*
X77730072Y-55075000D01*
X77730072Y-54525000D01*
X77717812Y-54400518D01*
X77717655Y-54400000D01*
X77717812Y-54399482D01*
X77730072Y-54275000D01*
X77730072Y-53725000D01*
X77717812Y-53600518D01*
X77717655Y-53600000D01*
X77717812Y-53599482D01*
X77730072Y-53475000D01*
X77730072Y-52925000D01*
X77717812Y-52800518D01*
X77717655Y-52800000D01*
X77717812Y-52799482D01*
X77730072Y-52675000D01*
X77730072Y-52125000D01*
X77717812Y-52000518D01*
X77717454Y-51999337D01*
X77727000Y-51885750D01*
X77634917Y-51793667D01*
X77622537Y-51770506D01*
X77543185Y-51673815D01*
X77521938Y-51656378D01*
X77523479Y-51542357D01*
X77543185Y-51526185D01*
X77622537Y-51429494D01*
X77634917Y-51406333D01*
X77727000Y-51314250D01*
X77717454Y-51200663D01*
X77717812Y-51199482D01*
X77730072Y-51075000D01*
X77730072Y-50525000D01*
X77717812Y-50400518D01*
X77717655Y-50400000D01*
X77717812Y-50399482D01*
X77730072Y-50275000D01*
X77730072Y-49725000D01*
X77717812Y-49600518D01*
X77717655Y-49600000D01*
X77717812Y-49599482D01*
X77730072Y-49475000D01*
X77730072Y-48925000D01*
X77717812Y-48800518D01*
X77717655Y-48800000D01*
X77717812Y-48799482D01*
X77730072Y-48675000D01*
X77730072Y-48125000D01*
X77717812Y-48000518D01*
X77717655Y-48000000D01*
X77717812Y-47999482D01*
X77730072Y-47875000D01*
X77730072Y-47325000D01*
X77717812Y-47200518D01*
X77717655Y-47200000D01*
X77717812Y-47199482D01*
X77730072Y-47075000D01*
X77730072Y-46525000D01*
X77726038Y-46484038D01*
X77767000Y-46488072D01*
X78317000Y-46488072D01*
X78441482Y-46475812D01*
X78442000Y-46475655D01*
X78442518Y-46475812D01*
X78567000Y-46488072D01*
X79117000Y-46488072D01*
X79241482Y-46475812D01*
X79242000Y-46475655D01*
X79242518Y-46475812D01*
X79367000Y-46488072D01*
X79917000Y-46488072D01*
X80041482Y-46475812D01*
X80042663Y-46475454D01*
X80156250Y-46485000D01*
X80248333Y-46392917D01*
X80271494Y-46380537D01*
X80368185Y-46301185D01*
X80428246Y-46228000D01*
X80455754Y-46228000D01*
X80515815Y-46301185D01*
G36*
X88545705Y-34746659D02*
G01*
X88573586Y-36038476D01*
X88538502Y-35922820D01*
X88479537Y-35812506D01*
X88400185Y-35715815D01*
X88303494Y-35636463D01*
X88193180Y-35577498D01*
X88073482Y-35541188D01*
X87949000Y-35528928D01*
X87534750Y-35532000D01*
X87376000Y-35690750D01*
X87376000Y-36527500D01*
X88425250Y-36527500D01*
X88580783Y-36371967D01*
X88660203Y-40051760D01*
X83128651Y-39999150D01*
X83399003Y-39728799D01*
X83428001Y-39705001D01*
X83522974Y-39589276D01*
X83542326Y-39553072D01*
X83588000Y-39553072D01*
X83712482Y-39540812D01*
X83832180Y-39504502D01*
X83942494Y-39445537D01*
X84039185Y-39366185D01*
X84102119Y-39289500D01*
X86081155Y-39289500D01*
X86169208Y-39396792D01*
X86302836Y-39506458D01*
X86455291Y-39587947D01*
X86620715Y-39638128D01*
X86792750Y-39655072D01*
X87705250Y-39655072D01*
X87877285Y-39638128D01*
X88042709Y-39587947D01*
X88195164Y-39506458D01*
X88328792Y-39396792D01*
X88438458Y-39263164D01*
X88519947Y-39110709D01*
X88570128Y-38945285D01*
X88587072Y-38773250D01*
X88587072Y-38285750D01*
X88570128Y-38113715D01*
X88519947Y-37948291D01*
X88438458Y-37795836D01*
X88328792Y-37662208D01*
X88322436Y-37656992D01*
X88400185Y-37593185D01*
X88479537Y-37496494D01*
X88538502Y-37386180D01*
X88574812Y-37266482D01*
X88587072Y-37142000D01*
X88584000Y-36940250D01*
X88425250Y-36781500D01*
X87376000Y-36781500D01*
X87376000Y-36801500D01*
X87122000Y-36801500D01*
X87122000Y-36781500D01*
X86072750Y-36781500D01*
X85914000Y-36940250D01*
X85910928Y-37142000D01*
X85923188Y-37266482D01*
X85959498Y-37386180D01*
X86018463Y-37496494D01*
X86097815Y-37593185D01*
X86175564Y-37656992D01*
X86169208Y-37662208D01*
X86081155Y-37769500D01*
X84226072Y-37769500D01*
X84226072Y-37715000D01*
X84213812Y-37590518D01*
X84177502Y-37470820D01*
X84174391Y-37465000D01*
X84177502Y-37459180D01*
X84213812Y-37339482D01*
X84226072Y-37215000D01*
X84223000Y-36900750D01*
X84064250Y-36742000D01*
X83015000Y-36742000D01*
X83015000Y-36762000D01*
X82761000Y-36762000D01*
X82761000Y-36742000D01*
X82741000Y-36742000D01*
X82741000Y-36488000D01*
X82761000Y-36488000D01*
X82761000Y-35538750D01*
X83015000Y-35538750D01*
X83015000Y-36488000D01*
X84064250Y-36488000D01*
X84223000Y-36329250D01*
X84224586Y-36167000D01*
X85910928Y-36167000D01*
X85914000Y-36368750D01*
X86072750Y-36527500D01*
X87122000Y-36527500D01*
X87122000Y-35690750D01*
X86963250Y-35532000D01*
X86549000Y-35528928D01*
X86424518Y-35541188D01*
X86304820Y-35577498D01*
X86194506Y-35636463D01*
X86097815Y-35715815D01*
X86018463Y-35812506D01*
X85959498Y-35922820D01*
X85923188Y-36042518D01*
X85910928Y-36167000D01*
X84224586Y-36167000D01*
X84226072Y-36015000D01*
X84213812Y-35890518D01*
X84177502Y-35770820D01*
X84118537Y-35660506D01*
X84039185Y-35563815D01*
X83942494Y-35484463D01*
X83832180Y-35425498D01*
X83712482Y-35389188D01*
X83588000Y-35376928D01*
X83173750Y-35380000D01*
X83015000Y-35538750D01*
X82761000Y-35538750D01*
X82602250Y-35380000D01*
X82188000Y-35376928D01*
X82063518Y-35389188D01*
X81943820Y-35425498D01*
X81833506Y-35484463D01*
X81788000Y-35521809D01*
X81742494Y-35484463D01*
X81632180Y-35425498D01*
X81512482Y-35389188D01*
X81388000Y-35376928D01*
X79988000Y-35376928D01*
X79863518Y-35389188D01*
X79743820Y-35425498D01*
X79633506Y-35484463D01*
X79536815Y-35563815D01*
X79457463Y-35660506D01*
X79398498Y-35770820D01*
X79375692Y-35846000D01*
X77875845Y-35846000D01*
X77787792Y-35738708D01*
X77654164Y-35629042D01*
X77501709Y-35547553D01*
X77336285Y-35497372D01*
X77164250Y-35480428D01*
X76251750Y-35480428D01*
X76079715Y-35497372D01*
X75914291Y-35547553D01*
X75761836Y-35629042D01*
X75628208Y-35738708D01*
X75518542Y-35872336D01*
X75437053Y-36024791D01*
X75386872Y-36190215D01*
X75369928Y-36362250D01*
X75369928Y-36849750D01*
X75386872Y-37021785D01*
X75437053Y-37187209D01*
X75518542Y-37339664D01*
X75628208Y-37473292D01*
X75634564Y-37478508D01*
X75556815Y-37542315D01*
X75477463Y-37639006D01*
X75418498Y-37749320D01*
X75382188Y-37869018D01*
X75369928Y-37993500D01*
X75373000Y-38195250D01*
X75531750Y-38354000D01*
X76581000Y-38354000D01*
X76581000Y-38334000D01*
X76835000Y-38334000D01*
X76835000Y-38354000D01*
X77884250Y-38354000D01*
X78043000Y-38195250D01*
X78046072Y-37993500D01*
X78033812Y-37869018D01*
X77997502Y-37749320D01*
X77938537Y-37639006D01*
X77859185Y-37542315D01*
X77781436Y-37478508D01*
X77787792Y-37473292D01*
X77875845Y-37366000D01*
X78320928Y-37366000D01*
X78291598Y-37420872D01*
X78288454Y-37426754D01*
X78244997Y-37570015D01*
X78234000Y-37681668D01*
X78234000Y-37681678D01*
X78230324Y-37719000D01*
X78234000Y-37756323D01*
X78234001Y-39952598D01*
X75501144Y-39926606D01*
X75503000Y-39924750D01*
X75506072Y-39723000D01*
X75493812Y-39598518D01*
X75457502Y-39478820D01*
X75398537Y-39368506D01*
X75319185Y-39271815D01*
X75222494Y-39192463D01*
X75112180Y-39133498D01*
X74992482Y-39097188D01*
X74868000Y-39084928D01*
X74453750Y-39088000D01*
X74295002Y-39246748D01*
X74295002Y-39088000D01*
X74203978Y-39088000D01*
X74204853Y-38968500D01*
X75369928Y-38968500D01*
X75382188Y-39092982D01*
X75418498Y-39212680D01*
X75477463Y-39322994D01*
X75556815Y-39419685D01*
X75653506Y-39499037D01*
X75763820Y-39558002D01*
X75883518Y-39594312D01*
X76008000Y-39606572D01*
X76422250Y-39603500D01*
X76581000Y-39444750D01*
X76581000Y-38608000D01*
X76835000Y-38608000D01*
X76835000Y-39444750D01*
X76993750Y-39603500D01*
X77408000Y-39606572D01*
X77532482Y-39594312D01*
X77652180Y-39558002D01*
X77762494Y-39499037D01*
X77859185Y-39419685D01*
X77938537Y-39322994D01*
X77997502Y-39212680D01*
X78033812Y-39092982D01*
X78046072Y-38968500D01*
X78043000Y-38766750D01*
X77884250Y-38608000D01*
X76835000Y-38608000D01*
X76581000Y-38608000D01*
X75531750Y-38608000D01*
X75373000Y-38766750D01*
X75369928Y-38968500D01*
X74204853Y-38968500D01*
X74236071Y-34707347D01*
X88545705Y-34746659D01*
X88545705Y-34746659D01*
G37*
X88545705Y-34746659D02*
X88573586Y-36038476D01*
X88538502Y-35922820D01*
X88479537Y-35812506D01*
X88400185Y-35715815D01*
X88303494Y-35636463D01*
X88193180Y-35577498D01*
X88073482Y-35541188D01*
X87949000Y-35528928D01*
X87534750Y-35532000D01*
X87376000Y-35690750D01*
X87376000Y-36527500D01*
X88425250Y-36527500D01*
X88580783Y-36371967D01*
X88660203Y-40051760D01*
X83128651Y-39999150D01*
X83399003Y-39728799D01*
X83428001Y-39705001D01*
X83522974Y-39589276D01*
X83542326Y-39553072D01*
X83588000Y-39553072D01*
X83712482Y-39540812D01*
X83832180Y-39504502D01*
X83942494Y-39445537D01*
X84039185Y-39366185D01*
X84102119Y-39289500D01*
X86081155Y-39289500D01*
X86169208Y-39396792D01*
X86302836Y-39506458D01*
X86455291Y-39587947D01*
X86620715Y-39638128D01*
X86792750Y-39655072D01*
X87705250Y-39655072D01*
X87877285Y-39638128D01*
X88042709Y-39587947D01*
X88195164Y-39506458D01*
X88328792Y-39396792D01*
X88438458Y-39263164D01*
X88519947Y-39110709D01*
X88570128Y-38945285D01*
X88587072Y-38773250D01*
X88587072Y-38285750D01*
X88570128Y-38113715D01*
X88519947Y-37948291D01*
X88438458Y-37795836D01*
X88328792Y-37662208D01*
X88322436Y-37656992D01*
X88400185Y-37593185D01*
X88479537Y-37496494D01*
X88538502Y-37386180D01*
X88574812Y-37266482D01*
X88587072Y-37142000D01*
X88584000Y-36940250D01*
X88425250Y-36781500D01*
X87376000Y-36781500D01*
X87376000Y-36801500D01*
X87122000Y-36801500D01*
X87122000Y-36781500D01*
X86072750Y-36781500D01*
X85914000Y-36940250D01*
X85910928Y-37142000D01*
X85923188Y-37266482D01*
X85959498Y-37386180D01*
X86018463Y-37496494D01*
X86097815Y-37593185D01*
X86175564Y-37656992D01*
X86169208Y-37662208D01*
X86081155Y-37769500D01*
X84226072Y-37769500D01*
X84226072Y-37715000D01*
X84213812Y-37590518D01*
X84177502Y-37470820D01*
X84174391Y-37465000D01*
X84177502Y-37459180D01*
X84213812Y-37339482D01*
X84226072Y-37215000D01*
X84223000Y-36900750D01*
X84064250Y-36742000D01*
X83015000Y-36742000D01*
X83015000Y-36762000D01*
X82761000Y-36762000D01*
X82761000Y-36742000D01*
X82741000Y-36742000D01*
X82741000Y-36488000D01*
X82761000Y-36488000D01*
X82761000Y-35538750D01*
X83015000Y-35538750D01*
X83015000Y-36488000D01*
X84064250Y-36488000D01*
X84223000Y-36329250D01*
X84224586Y-36167000D01*
X85910928Y-36167000D01*
X85914000Y-36368750D01*
X86072750Y-36527500D01*
X87122000Y-36527500D01*
X87122000Y-35690750D01*
X86963250Y-35532000D01*
X86549000Y-35528928D01*
X86424518Y-35541188D01*
X86304820Y-35577498D01*
X86194506Y-35636463D01*
X86097815Y-35715815D01*
X86018463Y-35812506D01*
X85959498Y-35922820D01*
X85923188Y-36042518D01*
X85910928Y-36167000D01*
X84224586Y-36167000D01*
X84226072Y-36015000D01*
X84213812Y-35890518D01*
X84177502Y-35770820D01*
X84118537Y-35660506D01*
X84039185Y-35563815D01*
X83942494Y-35484463D01*
X83832180Y-35425498D01*
X83712482Y-35389188D01*
X83588000Y-35376928D01*
X83173750Y-35380000D01*
X83015000Y-35538750D01*
X82761000Y-35538750D01*
X82602250Y-35380000D01*
X82188000Y-35376928D01*
X82063518Y-35389188D01*
X81943820Y-35425498D01*
X81833506Y-35484463D01*
X81788000Y-35521809D01*
X81742494Y-35484463D01*
X81632180Y-35425498D01*
X81512482Y-35389188D01*
X81388000Y-35376928D01*
X79988000Y-35376928D01*
X79863518Y-35389188D01*
X79743820Y-35425498D01*
X79633506Y-35484463D01*
X79536815Y-35563815D01*
X79457463Y-35660506D01*
X79398498Y-35770820D01*
X79375692Y-35846000D01*
X77875845Y-35846000D01*
X77787792Y-35738708D01*
X77654164Y-35629042D01*
X77501709Y-35547553D01*
X77336285Y-35497372D01*
X77164250Y-35480428D01*
X76251750Y-35480428D01*
X76079715Y-35497372D01*
X75914291Y-35547553D01*
X75761836Y-35629042D01*
X75628208Y-35738708D01*
X75518542Y-35872336D01*
X75437053Y-36024791D01*
X75386872Y-36190215D01*
X75369928Y-36362250D01*
X75369928Y-36849750D01*
X75386872Y-37021785D01*
X75437053Y-37187209D01*
X75518542Y-37339664D01*
X75628208Y-37473292D01*
X75634564Y-37478508D01*
X75556815Y-37542315D01*
X75477463Y-37639006D01*
X75418498Y-37749320D01*
X75382188Y-37869018D01*
X75369928Y-37993500D01*
X75373000Y-38195250D01*
X75531750Y-38354000D01*
X76581000Y-38354000D01*
X76581000Y-38334000D01*
X76835000Y-38334000D01*
X76835000Y-38354000D01*
X77884250Y-38354000D01*
X78043000Y-38195250D01*
X78046072Y-37993500D01*
X78033812Y-37869018D01*
X77997502Y-37749320D01*
X77938537Y-37639006D01*
X77859185Y-37542315D01*
X77781436Y-37478508D01*
X77787792Y-37473292D01*
X77875845Y-37366000D01*
X78320928Y-37366000D01*
X78291598Y-37420872D01*
X78288454Y-37426754D01*
X78244997Y-37570015D01*
X78234000Y-37681668D01*
X78234000Y-37681678D01*
X78230324Y-37719000D01*
X78234000Y-37756323D01*
X78234001Y-39952598D01*
X75501144Y-39926606D01*
X75503000Y-39924750D01*
X75506072Y-39723000D01*
X75493812Y-39598518D01*
X75457502Y-39478820D01*
X75398537Y-39368506D01*
X75319185Y-39271815D01*
X75222494Y-39192463D01*
X75112180Y-39133498D01*
X74992482Y-39097188D01*
X74868000Y-39084928D01*
X74453750Y-39088000D01*
X74295002Y-39246748D01*
X74295002Y-39088000D01*
X74203978Y-39088000D01*
X74204853Y-38968500D01*
X75369928Y-38968500D01*
X75382188Y-39092982D01*
X75418498Y-39212680D01*
X75477463Y-39322994D01*
X75556815Y-39419685D01*
X75653506Y-39499037D01*
X75763820Y-39558002D01*
X75883518Y-39594312D01*
X76008000Y-39606572D01*
X76422250Y-39603500D01*
X76581000Y-39444750D01*
X76581000Y-38608000D01*
X76835000Y-38608000D01*
X76835000Y-39444750D01*
X76993750Y-39603500D01*
X77408000Y-39606572D01*
X77532482Y-39594312D01*
X77652180Y-39558002D01*
X77762494Y-39499037D01*
X77859185Y-39419685D01*
X77938537Y-39322994D01*
X77997502Y-39212680D01*
X78033812Y-39092982D01*
X78046072Y-38968500D01*
X78043000Y-38766750D01*
X77884250Y-38608000D01*
X76835000Y-38608000D01*
X76581000Y-38608000D01*
X75531750Y-38608000D01*
X75373000Y-38766750D01*
X75369928Y-38968500D01*
X74204853Y-38968500D01*
X74236071Y-34707347D01*
X88545705Y-34746659D01*
G36*
X80815000Y-38188000D02*
G01*
X80835000Y-38188000D01*
X80835000Y-38442000D01*
X80815000Y-38442000D01*
X80815000Y-39391250D01*
X80973750Y-39550000D01*
X81388000Y-39553072D01*
X81438745Y-39548074D01*
X81407026Y-39586724D01*
X81400722Y-39598518D01*
X81336454Y-39718754D01*
X81292997Y-39862015D01*
X81282000Y-39973668D01*
X81282000Y-39973678D01*
X81281222Y-39981579D01*
X80033514Y-39969713D01*
X79754000Y-39690199D01*
X79754000Y-39507590D01*
X79863518Y-39540812D01*
X79988000Y-39553072D01*
X80402250Y-39550000D01*
X80561000Y-39391250D01*
X80561000Y-38442000D01*
X80541000Y-38442000D01*
X80541000Y-38188000D01*
X80561000Y-38188000D01*
X80561000Y-38168000D01*
X80815000Y-38168000D01*
X80815000Y-38188000D01*
X80815000Y-38188000D01*
G37*
X80815000Y-38188000D02*
X80835000Y-38188000D01*
X80835000Y-38442000D01*
X80815000Y-38442000D01*
X80815000Y-39391250D01*
X80973750Y-39550000D01*
X81388000Y-39553072D01*
X81438745Y-39548074D01*
X81407026Y-39586724D01*
X81400722Y-39598518D01*
X81336454Y-39718754D01*
X81292997Y-39862015D01*
X81282000Y-39973668D01*
X81282000Y-39973678D01*
X81281222Y-39981579D01*
X80033514Y-39969713D01*
X79754000Y-39690199D01*
X79754000Y-39507590D01*
X79863518Y-39540812D01*
X79988000Y-39553072D01*
X80402250Y-39550000D01*
X80561000Y-39391250D01*
X80561000Y-38442000D01*
X80541000Y-38442000D01*
X80541000Y-38188000D01*
X80561000Y-38188000D01*
X80561000Y-38168000D01*
X80815000Y-38168000D01*
X80815000Y-38188000D01*
M02*
